SplineFontDB: 3.0
FontName: Klein-Regular
FullName: Klein
FamilyName: Klein
Weight: Regular
Copyright: Copyright (c) 2016, mrkline
UComments: "2016-1-15: Created with FontForge (http://fontforge.org)"
Version: 0.1
ItalicAngle: 0
UnderlinePosition: -100
UnderlineWidth: 50
Ascent: 800
Descent: 200
InvalidEm: 0
LayerCount: 2
Layer: 0 0 "Back" 1
Layer: 1 0 "Fore" 0
XUID: [1021 77 -1879282181 14856649]
FSType: 0
OS2Version: 0
OS2_WeightWidthSlopeOnly: 0
OS2_UseTypoMetrics: 1
CreationTime: 1452917949
ModificationTime: 1453839497
PfmFamily: 17
TTFWeight: 500
TTFWidth: 5
LineGap: 100
VLineGap: 0
OS2TypoAscent: 0
OS2TypoAOffset: 1
OS2TypoDescent: 0
OS2TypoDOffset: 1
OS2TypoLinegap: 200
OS2WinAscent: 0
OS2WinAOffset: 1
OS2WinDescent: 0
OS2WinDOffset: 1
HheadAscent: 0
HheadAOffset: 1
HheadDescent: 0
HheadDOffset: 1
OS2XHeight: 430
OS2Vendor: 'PfEd'
Lookup: 4 0 1 "'liga' standard ligatures" { "'liga' standard ligatures-subtable"  } ['liga' ('DFLT' <'dflt' > 'latn' <'dflt' > ) ]
Lookup: 4 0 0 "'dlig' discretionary/historic ligatures" { "'dlig' discretionary/historic ligatures-subtable"  } ['dlig' ('DFLT' <'dflt' > 'latn' <'dflt' > ) ]
Lookup: 258 0 0 "'kern' Horizontal Kerning in Latin lookup 0" { "by class" [150,0,2] "per glyph" [150,15,0] } ['kern' ('DFLT' <'dflt' > 'latn' <'dflt' > ) ]
MarkAttachClasses: 1
DEI: 91125
KernClass2: 5 5 "by class"
 1 A
 5 V W Y
 1 T
 3 a u
 3 V W
 1 A
 39 a c d e g i j m n o p q r s u v w x y z
 27 f t f_f f_i f_f_i f_l f_f_l
 0 {} 0 {} 0 {} 0 {} 0 {} 0 {} -145 {} 0 {} 0 {} 0 {} 0 {} 0 {} -145 {} -120 {} 0 {} 0 {} 0 {} 0 {} -80 {} 0 {} 0 {} 0 {} 0 {} 0 {} -10 {}

StartChar: l
Encoding: 108 108 0
Width: 242
VWidth: 811
Flags: HMW
LayerCount: 2
Back
SplineSet
216.725585938 16.2197265625 m 1
 216.725585938 0 l 1
 29.384765625 0 l 1
 29.384765625 16.2197265625 l 1
 86.1552734375 28.384765625 l 1
 86.1552734375 601.76171875 l 1
 29.384765625 622.84765625 l 1
 29.384765625 633.390625 l 1
 153.467773438 673.129882812 l 1
 160.766601562 673.129882812 l 1
 160.766601562 28.384765625 l 1
 216.725585938 16.2197265625 l 1
EndSplineSet
Fore
SplineSet
86 28 m 5
 86 601 l 5
 25 623 l 5
 25 634 l 5
 100 649 122 658 153 673 c 5
 161 673 l 5
 161 28 l 5
 217 16 l 5
 217 0 l 5
 29 0 l 5
 29 16 l 5
 86 28 l 5
EndSplineSet
Validated: 1
EndChar

StartChar: o
Encoding: 111 111 1
Width: 477
VWidth: 811
Flags: HMW
LayerCount: 2
Back
SplineSet
238.623046875 437.940429688 m 4
 269.44140625 437.940429688 297.826171875 432.262695312 323.778320312 420.909179688 c 4
 349.73046875 409.5546875 372.16796875 394.010742188 391.090820312 374.276367188 c 4
 410.013671875 354.541992188 424.881835938 331.0234375 435.6953125 303.719726562 c 4
 446.5078125 276.416015625 451.915039062 246.814453125 451.915039062 214.915039062 c 4
 451.915039062 183.015625 446.5078125 153.4140625 435.6953125 126.110351562 c 4
 424.881835938 98.806640625 410.013671875 75.15234375 391.090820312 55.1474609375 c 4
 372.16796875 35.142578125 349.73046875 19.59765625 323.778320312 8.513671875 c 4
 297.826171875 -2.5703125 269.44140625 -8.111328125 238.623046875 -8.111328125 c 4
 207.8046875 -8.111328125 179.419921875 -2.5703125 153.467773438 8.513671875 c 4
 127.515625 19.59765625 105.078125 35.142578125 86.1552734375 55.1474609375 c 4
 67.2314453125 75.15234375 52.3642578125 98.806640625 41.55078125 126.110351562 c 4
 30.7373046875 153.4140625 25.3310546875 183.015625 25.3310546875 214.915039062 c 4
 25.3310546875 246.814453125 30.7373046875 276.416015625 41.55078125 303.719726562 c 4
 52.3642578125 331.0234375 67.2314453125 354.541992188 86.1552734375 374.276367188 c 4
 105.078125 394.010742188 127.515625 409.5546875 153.467773438 420.909179688 c 4
 179.419921875 432.262695312 207.8046875 437.940429688 238.623046875 437.940429688 c 4
111.295898438 214.915039062 m 4
 111.295898438 155.982421875 122.513671875 110.16015625 144.952148438 77.4501953125 c 4
 167.389648438 44.7392578125 198.342773438 28.3837890625 237.811523438 28.3837890625 c 4
 277.821289062 28.3837890625 309.1796875 44.8740234375 331.887695312 77.85546875 c 4
 354.595703125 110.8359375 365.950195312 156.79296875 365.950195312 215.725585938 c 4
 365.950195312 274.118164062 354.731445312 319.668945312 332.293945312 352.379882812 c 4
 309.85546875 385.08984375 278.631835938 401.4453125 238.623046875 401.4453125 c 4
 198.614257812 401.4453125 167.390625 385.08984375 144.952148438 352.379882812 c 4
 122.514648438 319.668945312 111.295898438 273.84765625 111.295898438 214.915039062 c 4
EndSplineSet
Fore
SplineSet
452 215 m 3
 452 87 361 -8 240 -8 c 3
 111 -8 25 91 25 215 c 3
 25 344 119 438 237 438 c 3
 365 438 452 339 452 215 c 3
239 393 m 3
 147 393 111 316 111 215 c 3
 111 115 146 36 238 36 c 3
 330 36 366 115 366 216 c 3
 366 316 331 393 239 393 c 3
EndSplineSet
Validated: 1
EndChar

StartChar: x
Encoding: 120 120 2
Width: 468
VWidth: 811
Flags: HMW
LayerCount: 2
Back
SplineSet
256.276367188 270.874023438 m 1
 320.345703125 355.215820312 l 2
 326.833984375 363.866210938 330.888671875 370.084960938 332.510742188 373.869140625 c 0
 334.1328125 377.654296875 334.943359375 381.708984375 334.943359375 386.034179688 c 0
 334.943359375 391.981445312 331.293945312 397.388671875 323.995117188 402.254882812 c 0
 316.696289062 407.120117188 304.666992188 410.905273438 287.90625 413.608398438 c 1
 287.90625 429.828125 l 1
 454.971679688 429.828125 l 1
 454.971679688 413.608398438 l 1
 441.99609375 410.905273438 431.046875 408.202148438 422.125976562 405.499023438 c 0
 413.205078125 402.795898438 405.23046875 399.416992188 398.202148438 395.361328125 c 0
 391.172851562 391.306640625 384.684570312 386.305664062 378.737304688 380.358398438 c 0
 372.791015625 374.411132812 366.302734375 367.112304688 359.2734375 358.4609375 c 2
 272.497070312 245.732421875 l 1
 399.012695312 51.091796875 l 2
 406.58203125 39.73828125 414.961914062 31.6279296875 424.153320312 26.7626953125 c 0
 433.34375 21.896484375 448.211914062 18.3818359375 468.756835938 16.21875 c 1
 468.756835938 -0.0009765625 l 1
 266.818359375 -0.0009765625 l 1
 266.818359375 16.21875 l 1
 286.282226562 18.3818359375 299.123046875 20.4091796875 305.340820312 22.3017578125 c 0
 311.55859375 24.193359375 314.666992188 27.84375 314.666992188 33.25 c 0
 314.666992188 35.953125 313.856445312 39.0615234375 312.234375 42.576171875 c 0
 310.612304688 46.08984375 307.09765625 51.90234375 301.69140625 60.0126953125 c 2
 222.212890625 181.662109375 l 1
 141.11328125 74.6103515625 l 2
 135.166015625 67.041015625 131.24609375 61.0947265625 129.354492188 56.76953125 c 0
 127.462890625 52.4443359375 126.515625 48.6591796875 126.515625 45.4150390625 c 0
 126.515625 37.845703125 130.571289062 31.763671875 138.680664062 27.16796875 c 0
 146.791015625 22.572265625 160.307617188 18.921875 179.231445312 16.21875 c 1
 179.231445312 -0.0009765625 l 1
 0 -0.0009765625 l 1
 0 16.21875 l 1
 27.033203125 20.00390625 48.2548828125 26.0869140625 63.6630859375 34.466796875 c 0
 79.072265625 42.8466796875 93.2646484375 55.9580078125 106.241210938 73.7998046875 c 2
 205.182617188 208.42578125 l 1
 94.88671875 378.736328125 l 2
 91.1025390625 384.143554688 87.1826171875 388.739257812 83.1279296875 392.524414062 c 0
 79.072265625 396.30859375 74.2060546875 399.552734375 68.529296875 402.255859375 c 0
 62.8525390625 404.958984375 56.0947265625 407.122070312 48.2548828125 408.744140625 c 0
 40.4150390625 410.366210938 30.818359375 411.98828125 19.4638671875 413.610351562 c 1
 19.4638671875 429.830078125 l 1
 102.185546875 429.830078125 l 4
 223.025390625 429.830078125 l 1
 223.025390625 413.610351562 l 1
 206.8046875 412.529296875 195.586914062 410.500976562 189.368164062 407.52734375 c 0
 183.150390625 404.553710938 180.041992188 400.904296875 180.041992188 396.579101562 c 0
 180.041992188 390.631835938 184.096679688 381.7109375 192.20703125 369.81640625 c 2
 256.276367188 270.874023438 l 1
EndSplineSet
Fore
SplineSet
288 414 m 1
 288 430 l 1
 455 430 l 1
 455 414 l 1
 419 404 414 402 369 342 c 2
 283 230 l 1
 399 51 l 2
 415 26 430 20 469 16 c 1
 469 0 l 1
 267 0 l 1
 267 16 l 1
 286 18 299 20 305 22 c 0
 311 24 315 27 315 33 c 0
 315 44 309 49 302 60 c 2
 233 165 l 1
 152 58 l 2
 146 49 142 43 142 37 c 0
 142 24 159 19 179 16 c 1
 179 0 l 1
 0 0 l 1
 0 16 l 1
 55 23 72 49 99 85 c 2
 198 220 l 1
 95 379 l 1
 78 403 55 409 19 414 c 1
 19 430 l 1
 223 430 l 1
 223 414 l 1
 204 412 180 411 180 397 c 0
 180 391 184 382 192 370 c 2
 249 282 l 1
 313 367 l 2
 321 378 329 386 329 393 c 0
 329 401 319 408 288 414 c 1
EndSplineSet
Validated: 1
EndChar

StartChar: y
Encoding: 121 121 3
Width: 466
VWidth: 811
Flags: HMW
LayerCount: 2
Back
SplineSet
264.385742188 116.784179688 m 1
 340.619140625 349.54296875 l 2
 344.404296875 360.356445312 346.295898438 370.088867188 346.295898438 378.739257812 c 0
 346.295898438 388.471679688 341.565429688 396.446289062 332.103515625 402.6640625 c 0
 322.641601562 408.881835938 306.557617188 412.53125 283.849609375 413.612304688 c 1
 283.849609375 429.83203125 l 1
 466.32421875 429.83203125 l 1
 466.32421875 413.612304688 l 1
 450.645507812 410.909179688 437.8046875 408.071289062 427.802734375 405.096679688 c 0
 417.80078125 402.123046875 409.5546875 398.337890625 403.067382812 393.7421875 c 0
 396.579101562 389.146484375 391.307617188 383.19921875 387.252929688 375.900390625 c 0
 383.197265625 368.6015625 379.278320312 359.544921875 375.493164062 348.731445312 c 2
 217.34765625 -114.349609375 l 2
 211.401367188 -131.650390625 205.182617188 -145.842773438 198.6953125 -156.926757812 c 0
 192.20703125 -168.010742188 185.71875 -176.796875 179.231445312 -183.284179688 c 0
 171.12109375 -192.475585938 161.119140625 -199.369140625 149.223632812 -203.96484375 c 0
 137.329101562 -208.560546875 124.353515625 -210.858398438 110.295898438 -210.858398438 c 4
 90.291015625 -210.858398438 74.2060546875 -205.857421875 62.041015625 -195.854492188 c 4
 49.876953125 -185.852539062 43.7939453125 -172.741210938 43.7939453125 -156.521484375 c 4
 43.7939453125 -144.0859375 47.8486328125 -133.94921875 55.958984375 -126.109375 c 4
 64.0693359375 -118.268554688 75.1533203125 -114.349609375 89.2099609375 -114.349609375 c 4
 100.0234375 -114.349609375 108.268554688 -117.1875 113.9453125 -122.865234375 c 4
 119.622070312 -128.541992188 123.8125 -138.138671875 126.515625 -151.655273438 c 4
 127.596679688 -161.928710938 129.21875 -168.551757812 131.381835938 -171.525390625 c 0
 133.544921875 -174.5 137.330078125 -175.986328125 142.736328125 -175.986328125 c 0
 151.927734375 -175.986328125 160.172851562 -170.850585938 167.47265625 -160.577148438 c 0
 174.771484375 -150.3046875 182.475585938 -133.002929688 190.5859375 -108.672851562 c 2
 223.836914062 -6.4873046875 l 1
 65.69140625 381.170898438 l 2
 60.826171875 391.443359375 54.0673828125 399.012695312 45.4169921875 403.87890625 c 0
 36.765625 408.745117188 24.3310546875 411.989257812 8.1103515625 413.610351562 c 1
 8.1103515625 429.831054688 l 1
 208.427734375 429.831054688 l 1
 208.427734375 413.610351562 l 1
 186.80078125 412.529296875 172.47265625 410.908203125 165.444335938 408.745117188 c 0
 158.415039062 406.58203125 154.901367188 402.796875 154.901367188 397.389648438 c 0
 154.901367188 392.524414062 157.063476562 384.4140625 161.388671875 373.059570312 c 2
 260.331054688 116.784179688 l 1
 264.385742188 116.784179688 l 1
EndSplineSet
Fore
SplineSet
44 -157 m 3
 44 -131 62 -114 89 -114 c 3
 132 -114 119 -159 135 -159 c 0
 144 -159 157 -146 168 -114 c 2
 214 18 l 1
 66 381 l 1
 55 403 39 411 8 414 c 1
 8 430 l 1
 208 430 l 1
 208 414 l 1
 182 414 155 413 155 397 c 0
 155 392 157 384 161 373 c 2
 251 141 l 1
 255 141 l 1
 331 374 l 2
 333 380 334 384 334 389 c 0
 334 403 324 414 284 414 c 1
 284 430 l 1
 466 430 l 1
 466 414 l 1
 430 408 402 402 387 376 c 0
 383 369 379 360 375 349 c 2
 217 -117 l 2
 191 -193 152 -211 110 -211 c 3
 74 -211 44 -192 44 -157 c 3
EndSplineSet
Validated: 1
EndChar

StartChar: z
Encoding: 122 122 4
Width: 401
VWidth: 811
Flags: HMW
LayerCount: 2
Fore
SplineSet
376 430 m 1
 376 408 l 1
 120 26 l 1
 308 26 l 1
 347 157 l 1
 364 155 l 1
 359 0 l 1
 25 0 l 1
 25 23 l 1
 278 404 l 1
 99 404 l 1
 59 268 l 1
 42 269 l 1
 51 430 l 1
 376 430 l 1
EndSplineSet
Validated: 1
EndChar

StartChar: i
Encoding: 105 105 5
Width: 245
VWidth: 811
Flags: HMW
LayerCount: 2
Back
SplineSet
73.1787109375 579.865234375 m 4
 73.1787109375 595.00390625 77.9091796875 607.57421875 87.37109375 617.576171875 c 4
 96.8330078125 627.578125 109.404296875 632.580078125 125.083007812 632.580078125 c 4
 141.302734375 632.580078125 154.143554688 627.578125 163.60546875 617.576171875 c 4
 173.067382812 607.57421875 177.797851562 595.00390625 177.797851562 579.865234375 c 4
 177.797851562 565.807617188 173.067382812 553.642578125 163.60546875 543.370117188 c 4
 154.143554688 533.096679688 141.302734375 527.9609375 125.083007812 527.9609375 c 4
 109.404296875 527.9609375 96.8330078125 533.096679688 87.37109375 543.370117188 c 4
 77.9091796875 553.642578125 73.1787109375 565.807617188 73.1787109375 579.865234375 c 4
224.8359375 16.2197265625 m 5
 224.8359375 0 l 5
 25.330078125 0 l 5
 25.330078125 16.2197265625 l 5
 86.9658203125 28.384765625 l 5
 86.9658203125 365.760742188 l 5
 26.9521484375 387.658203125 l 5
 26.9521484375 399.01171875 l 5
 156.711914062 437.940429688 l 5
 164.010742188 437.940429688 l 5
 164.010742188 28.384765625 l 5
 224.8359375 16.2197265625 l 5
EndSplineSet
Fore
SplineSet
155 438 m 1
 164 438 l 1
 164 28 l 1
 225 16 l 1
 225 0 l 1
 25 0 l 1
 25 16 l 1
 87 28 l 1
 87 366 l 1
 27 388 l 1
 27 399 l 1
 102 414 124 423 155 438 c 1
125 528 m 3
 96 528 73 552 73 580 c 3
 73 611 94 633 125 633 c 3
 157 633 178 612 178 580 c 3
 178 550 156 528 125 528 c 3
EndSplineSet
Validated: 1
EndChar

StartChar: t
Encoding: 116 116 6
Width: 280
VWidth: 811
Flags: HMW
LayerCount: 2
Back
SplineSet
597.655273438 56.76953125 m 1
 568.458984375 18.6533203125 531.153320312 0 483.303710938 0 c 0
 431.400390625 0 367.331054688 20.275390625 367.331054688 102.185546875 c 2
 367.331054688 373.87109375 l 1
 299.20703125 373.87109375 l 1
 299.20703125 400.633789062 l 1
 378.684570312 403.877929688 414.369140625 448.483398438 413.557617188 548.236328125 c 1
 444.375976562 548.236328125 l 1
 444.375976562 400.633789062 l 1
 560.348632812 400.633789062 l 1
 560.348632812 373.87109375 l 1
 444.375976562 373.87109375 l 1
 444.375976562 278.984375 l 0
 444.375976562 139.4921875 l 2
 444.375976562 65.69140625 463.83984375 32.4404296875 505.201171875 32.4404296875 c 0
 529.53125 32.4404296875 548.18359375 42.9833984375 575.7578125 74.6123046875 c 1
 597.655273438 56.76953125 l 1
161.336914062 -8.1103515625 m 0
 135.384765625 -8.1103515625 114.298828125 -0.5419921875 98.0791015625 14.59765625 c 0
 88.3466796875 23.7880859375 81.453125 35.27734375 77.3984375 49.064453125 c 0
 73.34375 62.8515625 71.31640625 82.1806640625 71.31640625 107.05078125 c 2
 71.31640625 401.444335938 l 1
 18.6005859375 401.444335938 l 1
 16.9794921875 414.419921875 l 1
 133.762695312 536.0703125 l 1
 148.361328125 534.448242188 l 1
 148.361328125 429.829101562 l 1
 264.333984375 429.829101562 l 1
 257.845703125 401.444335938 l 1
 148.361328125 401.444335938 l 1
 148.361328125 114.350585938 l 2
 148.361328125 94.345703125 148.90234375 80.2880859375 149.983398438 72.177734375 c 0
 151.064453125 64.068359375 152.956054688 57.580078125 155.659179688 52.7138671875 c 0
 164.310546875 37.5751953125 177.827148438 30.005859375 196.209960938 30.005859375 c 0
 207.0234375 30.005859375 217.971679688 32.98046875 229.055664062 38.9267578125 c 0
 240.139648438 44.8740234375 249.736328125 52.984375 257.845703125 63.2568359375 c 1
 271.6328125 52.7138671875 l 1
 259.198242188 33.791015625 243.248046875 18.9228515625 223.784179688 8.1103515625 c 0
 204.3203125 -2.703125 183.50390625 -8.1103515625 161.336914062 -8.1103515625 c 0
EndSplineSet
Fore
SplineSet
270 53 m 1
 249 21 210 -8 160 -8 c 0
 118 -8 87 14 76 49 c 0
 72 63 70 82 70 107 c 2
 70 396 l 1
 15 396 l 1
 15 430 l 1
 77 432 123 496 126 568 c 1
 147 568 l 1
 147 430 l 1
 263 430 l 1
 263 396 l 1
 147 396 l 1
 147 114 l 2
 147 92 147 65 154 53 c 0
 163 38 175 30 194 30 c 0
 220 30 243 47 256 63 c 1
 270 53 l 1
EndSplineSet
Validated: 1
EndChar

StartChar: s
Encoding: 115 115 7
Width: 346
VWidth: 811
Flags: HMW
LayerCount: 2
Back
SplineSet
190.396484375 437.940429688 m 4
 208.779296875 437.940429688 226.758789062 436.72265625 244.331054688 434.290039062 c 4
 261.90234375 431.856445312 275.825195312 428.477539062 286.09765625 424.15234375 c 5
 286.09765625 311.422851562 l 5
 269.067382812 311.422851562 l 5
 260.95703125 379.546875 229.328125 413.609375 174.1796875 413.609375 c 4
 152.552734375 413.609375 135.38671875 407.796875 122.680664062 396.172851562 c 4
 109.974609375 384.548828125 103.622070312 368.463867188 103.622070312 347.918945312 c 4
 103.622070312 330.077148438 108.624023438 315.614257812 118.625976562 304.530273438 c 4
 128.627929688 293.446289062 141.0625 283.849609375 155.930664062 275.740234375 c 4
 170.798828125 267.629882812 187.018554688 259.790039062 204.590820312 252.220703125 c 4
 222.163085938 244.65234375 238.3828125 235.595703125 253.250976562 225.052734375 c 4
 268.119140625 214.509765625 280.553710938 201.263671875 290.555664062 185.313476562 c 4
 300.55859375 169.36328125 305.559570312 148.682617188 305.559570312 123.272460938 c 4
 305.559570312 82.7216796875 292.177734375 50.6875 265.415039062 27.1689453125 c 4
 238.65234375 3.6494140625 202.29296875 -8.1103515625 156.3359375 -8.1103515625 c 4
 139.034179688 -8.1103515625 119.975585938 -6.48828125 99.16015625 -3.244140625 c 4
 78.34375 0 60.0966796875 4.3251953125 44.41796875 9.732421875 c 5
 39.5517578125 141.114257812 l 5
 59.015625 141.114257812 l 5
 66.5849609375 57.8505859375 101.1875 16.2197265625 162.823242188 16.2197265625 c 4
 187.153320312 16.2197265625 206.6171875 22.978515625 221.215820312 36.4951171875 c 4
 235.813476562 50.01171875 243.112304688 68.1240234375 243.112304688 90.83203125 c 4
 243.112304688 109.754882812 238.111328125 125.1640625 228.109375 137.05859375 c 4
 218.107421875 148.954101562 205.536132812 159.361328125 190.397460938 168.282226562 c 4
 175.258789062 177.203125 158.903320312 185.583984375 141.331054688 193.423828125 c 4
 123.759765625 201.263671875 107.404296875 210.454101562 92.2646484375 220.997070312 c 4
 77.1259765625 231.540039062 64.5556640625 244.516601562 54.5537109375 259.92578125 c 4
 44.5517578125 275.334960938 39.5498046875 295.204101562 39.5498046875 319.534179688 c 4
 39.5498046875 357.380859375 52.5263671875 386.577148438 78.4775390625 407.122070312 c 4
 104.4296875 427.666992188 141.736328125 437.940429688 190.396484375 437.940429688 c 4
EndSplineSet
Fore
SplineSet
40 320 m 3
 40 403 85 438 173 438 c 3
 206 438 264 433 286 424 c 1
 286 311 l 1
 269 311 l 1
 261 379 229 393 174 393 c 3
 132 393 104 375 104 348 c 3
 104 309 129 291 156 276 c 0
 187 259 226 245 254 225 c 0
 284 204 306 174 306 123 c 3
 306 38 250 -8 163 -8 c 3
 127 -8 72 0 44 10 c 1
 40 141 l 1
 59 141 l 1
 66 57 101 36 163 36 c 3
 228 36 243 66 243 91 c 3
 243 132 217 153 190 169 c 0
 159 187 121 201 92 221 c 0
 63 241 40 271 40 320 c 3
EndSplineSet
Validated: 1
EndChar

StartChar: h
Encoding: 104 104 8
Width: 497
VWidth: 811
Flags: HMW
LayerCount: 2
Back
SplineSet
219.78125 16.2197265625 m 1
 219.780273438 0.0009765625 l 1
 20.2744140625 0.0009765625 l 1
 20.2744140625 16.220703125 l 1
 81.91015625 28.3857421875 l 1
 81.91015625 600.952148438 l 1
 21.896484375 622.848632812 l 1
 21.896484375 634.203125 l 1
 150.844726562 673.130859375 l 1
 158.955078125 673.130859375 l 1
 158.955078125 370.627929688 l 1
 183.826171875 392.254882812 210.18359375 408.879882812 238.02734375 420.50390625 c 0
 265.872070312 432.127929688 293.581054688 437.940429688 321.155273438 437.940429688 c 0
 342.782226562 437.940429688 361.975585938 433.615234375 378.737304688 424.96484375 c 0
 395.498046875 416.313476562 407.663085938 404.418945312 415.232421875 389.280273438 c 0
 417.39453125 384.955078125 419.15234375 380.224609375 420.50390625 375.087890625 c 0
 421.856445312 369.952148438 422.9375 363.05859375 423.748046875 354.408203125 c 0
 424.559570312 345.756835938 425.100585938 335.078125 425.370117188 322.372070312 c 0
 425.640625 309.666992188 425.775390625 293.58203125 425.775390625 274.118164062 c 2
 425.775390625 27.57421875 l 1
 486.600585938 16.2197265625 l 1
 486.600585938 0 l 1
 287.90625 0 l 1
 287.90625 16.2197265625 l 1
 348.73046875 27.57421875 l 1
 348.73046875 266.0078125 l 2
 348.73046875 289.256835938 348.055664062 307.774414062 346.703125 321.561523438 c 0
 345.3515625 335.348632812 342.783203125 346.837890625 338.998046875 356.029296875 c 0
 328.724609375 380.900390625 307.638671875 393.334960938 275.740234375 393.334960938 c 0
 230.32421875 393.334960938 191.396484375 375.762695312 158.956054688 340.620117188 c 1
 158.956054688 28.384765625 l 1
 219.78125 16.2197265625 l 1
EndSplineSet
Fore
SplineSet
149 673 m 5
 159 673 l 5
 159 385 l 5
 200 421 254 438 321 438 c 7
 370 438 410 414 421 375 c 4
 426 357 426 337 426 315 c 6
 426 315 426 124 426 28 c 5
 487 16 l 5
 487 0 l 5
 288 0 l 5
 288 16 l 5
 349 28 l 5
 349 266 l 6
 349 338 345 383 276 383 c 7
 231 383 191 368 159 333 c 5
 159 28 l 5
 220 16 l 5
 220 0 l 5
 20 0 l 5
 20 16 l 5
 82 28 l 5
 82 601 l 5
 21 623 l 5
 21 634 l 5
 96 649 118 658 149 673 c 5
EndSplineSet
Validated: 1
EndChar

StartChar: b
Encoding: 98 98 9
Width: 480
VWidth: 811
Flags: HMW
LayerCount: 2
Back
SplineSet
235.623046875 -8.1103515625 m 4
 193.9921875 -8.1103515625 156.684570312 4.32421875 123.703125 29.1953125 c 5
 119.6484375 29.1953125 l 5
 82.3427734375 1.62109375 l 5
 69.3662109375 1.62109375 l 5
 69.3662109375 600.950195312 l 5
 10.1630859375 622.84765625 l 5
 10.1630859375 633.390625 l 5
 139.112304688 673.12890625 l 5
 147.22265625 673.12890625 l 5
 147.22265625 382.791015625 l 5
 181.284179688 419.556640625 222.375 437.939453125 270.494140625 437.939453125 c 4
 296.987304688 437.939453125 321.181640625 432.9375 343.079101562 422.935546875 c 4
 364.975585938 412.93359375 383.899414062 398.876953125 399.848632812 380.764648438 c 4
 415.798828125 362.65234375 428.099609375 341.025390625 436.75 315.884765625 c 4
 445.401367188 290.743164062 449.7265625 263.034179688 449.7265625 232.756835938 c 4
 449.7265625 198.6953125 444.319335938 166.930664062 433.505859375 137.46484375 c 4
 422.693359375 107.998046875 407.689453125 82.4521484375 388.49609375 60.8251953125 c 4
 369.301757812 39.1982421875 346.59375 22.302734375 320.372070312 10.1376953125 c 4
 294.149414062 -2.02734375 265.900390625 -8.1103515625 235.623046875 -8.1103515625 c 4
235.62109375 19.462890625 m 4
 255.084960938 19.462890625 272.659179688 24.0595703125 288.337890625 33.2509765625 c 4
 304.016601562 42.4423828125 317.3984375 55.2822265625 328.482421875 71.7724609375 c 4
 339.56640625 88.2626953125 348.08203125 108.267578125 354.029296875 131.787109375 c 4
 359.975585938 155.305664062 362.950195312 181.393554688 362.950195312 210.047851562 c 4
 362.950195312 267.359375 351.731445312 312.370117188 329.293945312 345.080078125 c 4
 306.85546875 377.790039062 275.90234375 394.145507812 236.43359375 394.145507812 c 4
 218.049804688 394.145507812 201.2890625 390.360351562 186.150390625 382.791015625 c 4
 171.01171875 375.221679688 158.03515625 364.94921875 147.22265625 351.973632812 c 5
 147.22265625 121.649414062 l 6
 147.22265625 90.8310546875 155.197265625 66.095703125 171.146484375 47.4423828125 c 4
 187.096679688 28.7900390625 208.587890625 19.462890625 235.62109375 19.462890625 c 4
EndSplineSet
Fore
SplineSet
69 601 m 1
 10 622 l 1
 10 633 l 1
 85 648 108 658 139 673 c 1
 147 673 l 1
 147 393 l 1
 181 429 222 438 270 438 c 3
 386 438 450 349 450 233 c 0
 450 98 368 -8 236 -8 c 0
 195 -8 157 4 124 29 c 1
 120 29 l 1
 82 2 l 1
 69 2 l 1
 69 601 l 1
147 122 m 2
 147 64 179 36 235 36 c 3
 319 36 363 124 363 210 c 3
 363 308 326 393 236 393 c 3
 195 393 166 365 147 341 c 1
 147 122 l 2
EndSplineSet
Validated: 1
EndChar

StartChar: v
Encoding: 118 118 10
Width: 449
VWidth: 811
Flags: HMW
LayerCount: 2
Back
SplineSet
203.670898438 -8.1103515625 m 5
 58.5029296875 378.739257812 l 6
 55.7998046875 385.227539062 53.2314453125 390.499023438 50.7978515625 394.553710938 c 4
 48.365234375 398.608398438 45.12109375 401.98828125 41.06640625 404.69140625 c 4
 37.01171875 407.39453125 31.740234375 409.286132812 25.251953125 410.3671875 c 4
 18.763671875 411.448242188 10.3837890625 412.529296875 0.1103515625 413.610351562 c 5
 0.1103515625 429.831054688 l 5
 201.239257812 429.831054688 l 5
 201.239257812 413.610351562 l 5
 177.990234375 412.529296875 162.850585938 410.501953125 155.822265625 407.528320312 c 4
 148.79296875 404.5546875 145.279296875 400.09375 145.279296875 394.146484375 c 4
 145.279296875 387.659179688 146.901367188 379.548828125 150.14453125 369.81640625 c 6
 243.41015625 100.564453125 l 5
 246.654296875 100.564453125 l 5
 334.2421875 351.974609375 l 6
 339.108398438 366.573242188 341.541015625 377.385742188 341.541015625 384.415039062 c 4
 341.541015625 392.524414062 338.02734375 398.471679688 330.998046875 402.256835938 c 4
 323.96875 406.041992188 308.290039062 409.826171875 283.959960938 413.611328125 c 5
 283.959960938 429.83203125 l 5
 448.592773438 429.83203125 l 5
 448.592773438 413.611328125 l 5
 433.454101562 410.908203125 421.2890625 408.0703125 412.09765625 405.095703125 c 4
 402.907226562 402.122070312 395.47265625 398.336914062 389.795898438 393.741210938 c 4
 384.118164062 389.145507812 379.522460938 383.333007812 376.008789062 376.303710938 c 4
 372.494140625 369.275390625 369.115234375 360.89453125 365.87109375 351.163085938 c 6
 239.35546875 -8.1103515625 l 5
 203.670898438 -8.1103515625 l 5
EndSplineSet
Fore
SplineSet
284 414 m 1
 284 430 l 1
 449 430 l 1
 449 414 l 1
 414 408 389 402 376 376 c 0
 373 369 369 361 366 351 c 2
 239 -8 l 1
 204 -8 l 1
 59 379 l 2
 52 396 45 407 25 410 c 0
 19 411 11 413 0 414 c 1
 0 430 l 1
 201 430 l 1
 201 414 l 1
 172 412 145 413 145 394 c 0
 145 388 147 380 150 370 c 2
 236 121 l 1
 239 121 l 1
 327 372 l 0
 328 375 329 378 329 381 c 0
 329 396 314 411 284 414 c 1
EndSplineSet
Validated: 1
EndChar

StartChar: u
Encoding: 117 117 11
Width: 477
VWidth: 811
Flags: HMW
LayerCount: 2
Back
SplineSet
267.629882812 413.610351562 m 5
 267.62890625 429.83203125 l 5
 405.499023438 429.83203125 l 5
 405.499023438 60.826171875 l 5
 460.647460938 41.3623046875 l 5
 460.647460938 31.630859375 l 5
 338.997070312 -8.1083984375 l 5
 333.3203125 -8.1083984375 l 5
 333.3203125 65.6923828125 l 5
 330.076171875 66.50390625 l 5
 310.612304688 42.173828125 288.4453125 23.65625 263.57421875 10.9501953125 c 4
 238.703125 -1.755859375 212.481445312 -8.1083984375 184.907226562 -8.1083984375 c 4
 162.740234375 -8.1083984375 143.681640625 -3.783203125 127.731445312 4.8671875 c 4
 111.782226562 13.5185546875 100.022460938 25.68359375 92.453125 41.3623046875 c 4
 90.2900390625 46.228515625 88.3984375 51.5 86.7763671875 57.1767578125 c 4
 85.154296875 62.8544921875 83.9375 69.8828125 83.126953125 78.2626953125 c 4
 82.3154296875 86.6435546875 81.7744140625 97.05078125 81.5048828125 109.485351562 c 4
 81.234375 121.920898438 81.099609375 137.599609375 81.099609375 156.5234375 c 6
 81.099609375 401.4453125 l 5
 20.2744140625 413.610351562 l 5
 20.2744140625 429.830078125 l 5
 158.14453125 429.830078125 l 5
 158.14453125 156.5234375 l 6
 158.14453125 131.112304688 158.819335938 111.647460938 160.171875 98.130859375 c 4
 161.5234375 84.6142578125 164.091796875 73.80078125 167.876953125 65.69140625 c 4
 172.202148438 56.5 179.231445312 49.201171875 188.962890625 43.7939453125 c 4
 198.6953125 38.38671875 210.58984375 35.68359375 224.647460938 35.68359375 c 4
 243.5703125 35.68359375 261.953125 40.5498046875 279.794921875 50.2822265625 c 4
 297.63671875 60.013671875 313.857421875 74.0712890625 328.455078125 92.4541015625 c 5
 328.455078125 401.4453125 l 5
 267.629882812 413.610351562 l 5
EndSplineSet
Fore
SplineSet
339 -8 m 5
 333 -8 l 5
 333 49 l 5
 330 49 l 5
 298 8 251 -8 185 -8 c 4
 125 -8 89 24 83 79 c 4
 81 98 81 115 81 137 c 6
 81 401 l 5
 20 414 l 5
 20 430 l 5
 158 430 l 5
 158 157 l 6
 158 88 159 36 225 36 c 4
 271 36 304 80 328 109 c 5
 328 304 l 4
 328 401 l 5
 268 414 l 5
 268 430 l 5
 406 430 l 5
 406 61 l 5
 467 42 l 5
 467 31 l 5
 392 16 370 7 339 -8 c 5
EndSplineSet
Validated: 1
EndChar

StartChar: c
Encoding: 99 99 12
Width: 428
VWidth: 811
Flags: HMW
LayerCount: 2
Back
SplineSet
232.37890625 -8.1103515625 m 0
 203.182617188 -8.1103515625 176.559570312 -2.8388671875 152.499023438 7.7041015625 c 0
 128.439453125 18.2470703125 107.624023438 33.115234375 90.0517578125 52.3095703125 c 0
 72.4794921875 71.50390625 58.828125 94.4814453125 49.095703125 121.244140625 c 0
 39.3642578125 148.0078125 34.498046875 177.338867188 34.498046875 209.23828125 c 0
 34.498046875 242.758789062 39.76953125 273.44140625 50.3125 301.286132812 c 0
 60.85546875 329.129882812 75.7236328125 353.189453125 94.91796875 373.46484375 c 0
 114.111328125 393.739257812 136.819335938 409.5546875 163.041992188 420.908203125 c 0
 189.263671875 432.262695312 218.32421875 437.939453125 250.223632812 437.939453125 c 0
 270.768554688 437.939453125 289.961914062 435.37109375 307.8046875 430.234375 c 0
 325.646484375 425.098632812 341.055664062 418.205078125 354.03125 409.5546875 c 0
 367.0078125 400.903320312 377.280273438 390.765625 384.849609375 379.141601562 c 0
 392.41796875 367.517578125 396.203125 355.216796875 396.203125 342.241210938 c 0
 396.203125 328.184570312 392.958984375 316.965820312 386.471679688 308.5859375 c 0
 379.983398438 300.205078125 370.791992188 296.014648438 358.897460938 296.014648438 c 0
 330.782226562 296.014648438 314.83203125 313.045898438 311.047851562 347.108398438 c 0
 309.42578125 360.625 307.127929688 371.573242188 304.154296875 379.953125 c 0
 301.1796875 388.333984375 297.395507812 394.95703125 292.798828125 399.823242188 c 0
 288.203125 404.689453125 282.662109375 407.932617188 276.173828125 409.5546875 c 0
 269.685546875 411.176757812 261.845703125 411.98828125 252.655273438 411.98828125 c 0
 209.401367188 411.98828125 176.015625 395.092773438 152.49609375 361.30078125 c 0
 128.977539062 327.508789062 117.217773438 282.227539062 117.217773438 225.458007812 c 0
 117.217773438 169.76953125 129.3828125 126.786132812 153.712890625 96.5087890625 c 0
 178.04296875 66.2314453125 212.375 51.0927734375 256.709960938 51.0927734375 c 0
 281.040039062 51.0927734375 303.8828125 55.958984375 325.239257812 65.69140625 c 0
 346.595703125 75.4228515625 364.573242188 90.291015625 379.170898438 110.295898438 c 2
 388.091796875 122.4609375 l 1
 403.500976562 114.350585938 l 1
 399.4453125 103.807617188 l 2
 385.388671875 68.1240234375 363.897460938 40.5498046875 334.971679688 21.0859375 c 0
 306.044921875 1.6220703125 271.84765625 -8.1103515625 232.37890625 -8.1103515625 c 0
EndSplineSet
Fore
SplineSet
396 342 m 3
 396 316 384 296 359 296 c 3
 331 296 315 313 311 347 c 0
 307 383 285 393 249 393 c 3
 147 393 117 322 117 225 c 3
 117 124 160 36 257 36 c 3
 313 36 354 75 379 110 c 2
 388 122 l 1
 404 114 l 1
 399 104 l 2
 374 39 318 -8 232 -8 c 3
 113 -8 34 84 34 209 c 3
 34 343 122 438 250 438 c 3
 317 438 396 402 396 342 c 3
EndSplineSet
Validated: 1
EndChar

StartChar: e
Encoding: 101 101 13
Width: 445
VWidth: 811
Flags: HMW
LayerCount: 2
Back
SplineSet
392.146484375 342.2421875 m 3
 392.146484375 316.290039062 379.981445312 296.014648438 354.83984375 296.014648438 c 3
 326.455078125 296.014648438 311.045898438 313.045898438 306.991210938 347.108398438 c 0
 302.935546875 382.791992188 280.227539062 393.334960938 244.543945312 393.334960938 c 3
 142.358398438 393.334960938 100.185546875 322.778320312 100.185546875 225.458007812 c 3
 100.185546875 124.083007812 156.14453125 36.4951171875 252.654296875 36.4951171875 c 3
 308.61328125 36.4951171875 349.973632812 75.4228515625 375.115234375 110.295898438 c 2
 384.036132812 122.4609375 l 1
 399.4453125 114.350585938 l 1
 395.389648438 103.807617188 l 2
 370.249023438 38.927734375 314.290039062 -8.1103515625 228.32421875 -8.1103515625 c 3
 109.107421875 -8.1103515625 30.4404296875 84.34375 30.4404296875 209.23828125 c 3
 30.4404296875 343.052734375 118.028320312 437.940429688 246.166015625 437.940429688 c 3
 313.478515625 437.940429688 392.146484375 402.255859375 392.146484375 342.2421875 c 3
EndSplineSet
Fore
SplineSet
103 187 m 2
 103 145 138 36 252 36 c 0
 308 36 355 73 381 105 c 2
 391 118 l 1
 404 109 l 1
 399 98 l 2
 373 36 310 -8 225 -8 c 0
 128 -8 70 48 44 120 c 0
 34 147 30 176 30 208 c 0
 30 315 83 390 159 422 c 0
 186 433 215 438 247 438 c 3
 382 438 415 346 415 211 c 1
 410 206 l 1
 102 206 l 1
 103 187 l 2
239 393 m 7
 164 393 102 327 102 248 c 1
 347 248 l 1
 345 348 303 393 239 393 c 7
EndSplineSet
Validated: 1
EndChar

StartChar: d
Encoding: 100 100 14
Width: 496
VWidth: 811
Flags: HMW
LayerCount: 2
Back
SplineSet
202.372070312 -8.1103515625 m 0
 178.583007812 -8.1103515625 156.413085938 -2.7041015625 135.868164062 8.109375 c 0
 115.323242188 18.921875 97.4814453125 33.92578125 82.3427734375 53.1201171875 c 0
 67.203125 72.3134765625 55.4443359375 95.1572265625 47.0634765625 121.650390625 c 0
 38.68359375 148.142578125 34.4931640625 176.797851562 34.4931640625 207.616210938 c 0
 34.4931640625 241.677734375 39.6298828125 272.765625 49.90234375 300.880859375 c 0
 60.17578125 328.99609375 74.7734375 353.190429688 93.6962890625 373.465820312 c 0
 112.619140625 393.740234375 135.057617188 409.5546875 161.009765625 420.909179688 c 0
 186.9609375 432.262695312 215.887695312 437.940429688 247.786132812 437.940429688 c 0
 277.5234375 437.940429688 306.719726562 433.884765625 335.374023438 425.775390625 c 1
 335.374023438 600.139648438 l 1
 276.171875 622.84765625 l 1
 276.171875 633.390625 l 1
 403.498046875 673.129882812 l 1
 411.608398438 673.129882812 l 1
 411.608398438 63.2578125 l 1
 466.756835938 51.0927734375 l 1
 466.756835938 42.171875 l 1
 346.728515625 -8.1103515625 l 1
 341.051757812 -8.1103515625 l 1
 341.051757812 61.6357421875 l 1
 337.807617188 63.2578125 l 1
 320.505859375 38.927734375 300.3671875 20.9501953125 277.388671875 9.326171875 c 0
 254.41015625 -2.2978515625 229.405273438 -8.1103515625 202.372070312 -8.1103515625 c 0
236.431640625 44.6044921875 m 0
 257.517578125 44.6044921875 276.983398438 48.9296875 294.825195312 57.580078125 c 0
 312.666992188 66.2314453125 326.184570312 77.85546875 335.375 92.453125 c 1
 335.375 324.399414062 l 2
 335.375 383.872070312 305.638671875 413.609375 246.165039062 413.609375 c 0
 227.2421875 413.609375 210.076171875 409.013671875 194.666992188 399.822265625 c 0
 179.2578125 390.630859375 166.01171875 377.655273438 154.927734375 360.89453125 c 0
 143.84375 344.1328125 135.192382812 323.858398438 128.974609375 300.069335938 c 0
 122.756835938 276.280273438 119.6484375 249.787109375 119.6484375 220.590820312 c 0
 119.6484375 165.984375 129.920898438 123.000976562 150.466796875 91.642578125 c 0
 171.01171875 60.283203125 199.666992188 44.6044921875 236.431640625 44.6044921875 c 0
EndSplineSet
Fore
SplineSet
341 -8 m 1
 341 41 l 1
 338 43 l 1
 321 19 266 -8 202 -8 c 3
 148 -8 108 20 82 53 c 0
 53 89 34 144 34 208 c 3
 34 316 86 388 161 421 c 0
 187 432 216 438 248 438 c 3
 278 438 307 434 335 426 c 1
 335 600 l 1
 275 622 l 1
 275 633 l 1
 350 648 373 658 404 673 c 1
 412 673 l 1
 412 63 l 1
 476 43 l 1
 476 32 l 1
 347 -8 l 1
 341 -8 l 1
120 221 m 3
 120 129 152 36 236 36 c 0
 280 36 318 64 335 92 c 1
 335 321 l 2
 335 366 300 393 246 393 c 3
 145 393 120 321 120 221 c 3
EndSplineSet
Validated: 1
EndChar

StartChar: f
Encoding: 102 102 15
Width: 286
VWidth: 811
Flags: HMW
LayerCount: 2
Back
SplineSet
30.0068359375 429.830078125 m 1
 91.642578125 429.829101562 l 1
 91.642578125 468.756835938 92.3173828125 498.899414062 93.669921875 520.255859375 c 0
 95.021484375 541.611328125 98.4013671875 559.318359375 103.807617188 573.375 c 0
 109.21484375 588.514648438 117.325195312 602.166015625 128.137695312 614.331054688 c 0
 138.951171875 626.49609375 151.385742188 636.903320312 165.443359375 645.5546875 c 0
 179.5 654.205078125 194.639648438 660.963867188 210.859375 665.829101562 c 0
 227.079101562 670.6953125 243.83984375 673.127929688 261.141601562 673.127929688 c 0
 275.739257812 673.127929688 289.390625 671.37109375 302.096679688 667.856445312 c 0
 314.802734375 664.342773438 325.88671875 659.612304688 335.348632812 653.665039062 c 0
 344.810546875 647.717773438 352.245117188 640.418945312 357.651367188 631.768554688 c 0
 363.05859375 623.1171875 365.76171875 613.92578125 365.76171875 604.194335938 c 0
 365.76171875 592.298828125 362.112304688 582.703125 354.813476562 575.403320312 c 0
 347.514648438 568.104492188 337.91796875 564.455078125 326.022460938 564.455078125 c 0
 312.505859375 564.455078125 303.043945312 568.780273438 297.63671875 577.431640625 c 0
 292.23046875 586.08203125 288.4453125 595.543945312 286.282226562 605.817382812 c 0
 283.579101562 620.415039062 279.388671875 631.09375 273.711914062 637.8515625 c 0
 268.03515625 644.609375 258.708007812 647.989257812 245.732421875 647.989257812 c 0
 233.296875 647.989257812 221.807617188 644.880859375 211.264648438 638.662109375 c 0
 200.721679688 632.444335938 192.206054688 622.306640625 185.717773438 608.25 c 0
 179.771484375 595.814453125 175.446289062 579.189453125 172.743164062 558.373046875 c 0
 170.040039062 537.557617188 168.688476562 509.578125 168.688476562 474.434570312 c 2
 168.688476562 429.830078125 l 1
 273.306640625 429.830078125 l 1
 263.575195312 403.877929688 l 1
 168.688476562 403.877929688 l 1
 168.688476562 28.384765625 l 1
 254.654296875 16.2197265625 l 1
 254.654296875 0 l 1
 30.818359375 0 l 1
 30.818359375 16.2197265625 l 1
 91.642578125 28.384765625 l 1
 91.642578125 403.877929688 l 1
 20.275390625 403.877929688 l 1
 30.0068359375 429.830078125 l 1
EndSplineSet
Fore
SplineSet
366 604 m 3
 366 580 350 564 326 564 c 3
 268 564 306 641 246 641 c 3
 170 641 169 556 169 474 c 2
 169 430 l 1
 273 430 l 1
 273 396 l 1
 169 396 l 1
 169 28 l 1
 255 16 l 1
 255 0 l 1
 31 0 l 1
 31 16 l 1
 92 28 l 1
 92 396 l 1
 20 396 l 1
 30 430 l 1
 92 430 l 1
 92 469 92 499 93 520 c 0
 96 584 123 620 165 646 c 0
 190 661 223 673 261 673 c 3
 311 673 366 649 366 604 c 3
EndSplineSet
Validated: 1
EndChar

StartChar: g
Encoding: 103 103 16
Width: 407
VWidth: 811
Flags: HMW
LayerCount: 2
Back
SplineSet
180.852539062 -210.860351562 m 4
 161.388671875 -210.860351562 140.034179688 -208.838867188 116.78515625 -204.784179688 c 4
 93.5361328125 -200.728515625 72.9912109375 -193.293945312 55.1484375 -182.481445312 c 4
 41.091796875 -173.830078125 29.7373046875 -163.15234375 21.0869140625 -150.446289062 c 4
 12.435546875 -137.740234375 8.1103515625 -122.466796875 8.1103515625 -104.625 c 4
 8.1103515625 -82.998046875 15.544921875 -63.533203125 30.4130859375 -46.232421875 c 4
 45.28125 -28.931640625 71.369140625 -12.44140625 108.674804688 3.2373046875 c 5
 71.91015625 19.4580078125 53.5263671875 41.625 53.5263671875 69.7392578125 c 4
 53.5263671875 76.2275390625 54.87890625 83.5263671875 57.58203125 91.63671875 c 4
 60.28515625 99.7470703125 65.556640625 108.126953125 73.396484375 116.77734375 c 4
 81.236328125 125.428710938 92.1845703125 134.079101562 106.2421875 142.73046875 c 4
 120.298828125 151.381835938 138.411132812 159.221679688 160.578125 166.25 c 5
 129.21875 174.901367188 103.131835938 190.715820312 82.3154296875 213.693359375 c 4
 61.5 236.671875 51.091796875 265.192382812 51.091796875 299.25390625 c 4
 51.091796875 319.258789062 55.1474609375 337.776367188 63.2568359375 354.807617188 c 4
 71.3671875 371.838867188 82.451171875 386.436523438 96.5078125 398.6015625 c 4
 110.565429688 410.766601562 127.190429688 420.36328125 146.384765625 427.392578125 c 4
 165.579101562 434.420898438 186.258789062 437.935546875 208.42578125 437.935546875 c 4
 226.809570312 437.935546875 243.975585938 435.637695312 259.92578125 431.041992188 c 4
 275.875 426.446289062 290.337890625 420.092773438 303.314453125 411.983398438 c 5
 306.557617188 421.71484375 310.61328125 431.717773438 315.478515625 441.990234375 c 4
 320.344726562 452.262695312 326.022460938 461.725585938 332.509765625 470.375976562 c 4
 338.998046875 479.02734375 346.432617188 486.055664062 354.8125 491.462890625 c 4
 363.192382812 496.870117188 372.7890625 499.573242188 383.602539062 499.573242188 c 4
 396.037109375 499.573242188 406.985351562 495.922851562 416.447265625 488.624023438 c 4
 425.909179688 481.325195312 430.640625 471.458007812 430.640625 459.022460938 c 4
 430.640625 448.209960938 426.990234375 439.153320312 419.69140625 431.854492188 c 4
 412.392578125 424.555664062 403.3359375 420.90625 392.5234375 420.90625 c 4
 386.576171875 420.90625 381.98046875 421.987304688 378.736328125 424.149414062 c 4
 375.4921875 426.3125 372.653320312 428.74609375 370.220703125 431.44921875 c 4
 367.788085938 434.15234375 365.219726562 436.584960938 362.516601562 438.748046875 c 4
 359.813476562 440.911132812 356.028320312 441.9921875 351.162109375 441.9921875 c 4
 344.673828125 441.9921875 338.591796875 437.801757812 332.915039062 429.420898438 c 4
 327.237304688 421.041015625 323.046875 411.444335938 320.34375 400.631835938 c 5
 336.0234375 387.655273438 348.323242188 372.247070312 357.245117188 354.404296875 c 4
 366.166015625 336.5625 370.625976562 318.1796875 370.625976562 299.256835938 c 4
 370.625976562 281.415039062 366.70703125 264.248046875 358.8671875 247.7578125 c 4
 351.026367188 231.267578125 339.942382812 216.534179688 325.615234375 203.55859375 c 4
 311.287109375 190.583007812 294.255859375 179.76953125 274.521484375 171.118164062 c 4
 254.788085938 162.467773438 233.026367188 157.33203125 209.237304688 155.709960938 c 4
 198.963867188 154.62890625 188.556640625 152.736328125 178.013671875 150.033203125 c 4
 167.470703125 147.330078125 158.008789062 143.680664062 149.62890625 139.084960938 c 4
 141.249023438 134.489257812 134.490234375 129.352539062 129.354492188 123.67578125 c 4
 124.21875 117.999023438 121.650390625 111.646484375 121.650390625 104.6171875 c 4
 121.650390625 93.263671875 128.137695312 84.072265625 141.114257812 77.04296875 c 4
 154.08984375 70.0146484375 169.634765625 64.0673828125 187.74609375 59.201171875 c 4
 205.858398438 54.3349609375 224.916992188 50.2802734375 244.921875 47.0361328125 c 4
 264.926757812 43.7919921875 281.958007812 40.548828125 296.014648438 37.3046875 c 4
 318.181640625 32.4384765625 336.024414062 25.9501953125 349.541015625 17.8408203125 c 4
 363.057617188 9.73046875 373.465820312 0.9453125 380.764648438 -8.5166015625 c 4
 388.063476562 -17.9794921875 392.9296875 -27.7109375 395.362304688 -37.712890625 c 4
 397.795898438 -47.71484375 399.01171875 -57.3115234375 399.01171875 -66.5029296875 c 4
 399.01171875 -87.0478515625 394.95703125 -104.889648438 386.846679688 -120.028320312 c 4
 378.737304688 -135.16796875 367.923828125 -148.143554688 354.407226562 -158.95703125 c 4
 343.052734375 -168.147460938 330.346679688 -175.987304688 316.290039062 -182.475585938 c 4
 302.233398438 -188.963867188 287.499023438 -194.37109375 272.090820312 -198.6953125 c 4
 256.681640625 -203.020507812 241.272460938 -206.129882812 225.86328125 -208.021484375 c 4
 210.454101562 -209.913085938 195.451171875 -210.860351562 180.852539062 -210.860351562 c 4
214.104492188 -23.525390625 m 4
 200.047851562 -20.822265625 186.125 -17.849609375 172.337890625 -14.60546875 c 4
 158.551757812 -11.361328125 146.250976562 -8.1171875 135.4375 -4.873046875 c 5
 116.514648438 -13.5244140625 101.510742188 -25.958984375 90.427734375 -42.1787109375 c 4
 79.34375 -58.3994140625 73.8017578125 -75.970703125 73.8017578125 -94.89453125 c 4
 73.8017578125 -109.4921875 77.0458984375 -122.603515625 83.5341796875 -134.227539062 c 4
 90.021484375 -145.8515625 99.212890625 -155.448242188 111.107421875 -163.017578125 c 4
 132.734375 -177.615234375 161.120117188 -184.9140625 196.262695312 -184.9140625 c 4
 212.482421875 -184.9140625 228.837890625 -183.291992188 245.328125 -180.047851562 c 4
 261.818359375 -176.8046875 276.551757812 -171.938476562 289.52734375 -165.450195312 c 4
 303.584960938 -158.421875 314.938476562 -149.23046875 323.58984375 -137.875976562 c 4
 332.240234375 -126.522460938 336.565429688 -113.005859375 336.565429688 -97.326171875 c 4
 336.565429688 -87.5947265625 334.673828125 -79.2138671875 330.888671875 -72.185546875 c 4
 327.103515625 -65.15625 320.48046875 -58.8037109375 311.018554688 -53.126953125 c 4
 301.556640625 -47.4501953125 288.986328125 -42.3134765625 273.306640625 -37.7177734375 c 4
 257.627929688 -33.1220703125 237.893554688 -28.3916015625 214.104492188 -23.525390625 c 4
209.239257812 181.657226562 m 4
 224.377929688 181.657226562 237.083007812 185.4453125 247.35546875 193.013671875 c 4
 257.62890625 200.583007812 265.73828125 210.1796875 271.685546875 221.803710938 c 4
 277.6328125 233.427734375 281.823242188 246.268554688 284.255859375 260.325195312 c 4
 286.689453125 274.3828125 287.90625 287.899414062 287.90625 300.875 c 4
 287.90625 311.688476562 286.958984375 323.717773438 285.067382812 336.963867188 c 4
 283.174804688 350.209960938 279.525390625 362.645507812 274.119140625 374.26953125 c 4
 268.711914062 385.893554688 261.142578125 395.625 251.411132812 403.465820312 c 4
 241.678710938 411.305664062 228.97265625 415.224609375 213.293945312 415.224609375 c 4
 197.07421875 415.224609375 183.828125 411.034179688 173.5546875 402.654296875 c 4
 163.282226562 394.274414062 155.307617188 383.731445312 149.629882812 371.025390625 c 4
 143.953125 358.319335938 140.034179688 344.9375 137.87109375 330.880859375 c 4
 135.708007812 316.82421875 134.626953125 304.118164062 134.626953125 292.763671875 c 4
 134.626953125 281.951171875 135.573242188 270.055664062 137.46484375 257.080078125 c 4
 139.357421875 244.103515625 143.142578125 232.07421875 148.819335938 220.990234375 c 4
 154.49609375 209.90625 162.065429688 200.580078125 171.52734375 193.010742188 c 4
 180.989257812 185.44140625 193.559570312 181.657226562 209.239257812 181.657226562 c 4
EndSplineSet
Fore
SplineSet
209 190 m 3
 269 190 288 242 288 301 c 3
 288 357 270 406 213 406 c 3
 152 406 135 352 135 293 c 3
 135 238 153 190 209 190 c 3
135 15 m 1
 103 2 74 -21 74 -60 c 3
 74 -118 138 -122 199 -122 c 3
 264 -122 337 -107 337 -62 c 3
 337 -27 305 -23 273 -14 c 0
 235 -4 175 4 135 15 c 1
371 299 m 3
 371 257 349 226 325 204 c 0
 297 179 258 156 209 156 c 3
 186 156 124 132 124 102 c 3
 124 35 399 58 399 -35 c 3
 399 -130 281 -164 181 -164 c 0
 102 -164 8 -144 8 -69 c 0
 8 -27 51 6 91 35 c 1
 55 50 54 61 54 86 c 3
 54 125 119 181 122 182 c 1
 75 206 51 250 51 299 c 0
 51 367 95 408 146 427 c 0
 165 434 186 438 208 438 c 0
 232 438 254 434 273 427 c 1
 289 423 301 423 311 423 c 3
 330.075807964 423 354.059570312 432.390625 386 454 c 1
 407 413 l 1
 371.11448913 405.489136711 362.172011495 389.112922507 362.172011495 368.493562871 c 3
 362.172011495 348.006621638 371 323.330859295 371 299 c 3
EndSplineSet
Validated: 524289
EndChar

StartChar: j
Encoding: 106 106 17
Width: 228
VWidth: 811
Flags: HMW
LayerCount: 2
Back
SplineSet
81.7216796875 365.760742188 m 5
 21.705078125 387.657226562 l 5
 21.705078125 399.010742188 l 5
 151.46484375 437.939453125 l 5
 158.763671875 437.939453125 l 5
 158.763671875 125.704101562 l 6
 158.763671875 85.6953125 158.494140625 53.2548828125 157.953125 28.3837890625 c 4
 157.412109375 3.513671875 156.1953125 -17.1669921875 154.303710938 -33.6572265625 c 4
 152.411132812 -50.1474609375 149.708007812 -63.6640625 146.194335938 -74.20703125 c 4
 142.6796875 -84.75 137.94921875 -95.4287109375 132.001953125 -106.2421875 c 4
 113.079101562 -140.303710938 90.236328125 -166.255859375 63.47265625 -184.09765625 c 4
 36.7099609375 -201.939453125 7.1083984375 -210.860351562 -25.33203125 -210.860351562 c 4
 -52.9052734375 -210.860351562 -74.6669921875 -204.9140625 -90.6171875 -193.018554688 c 4
 -106.567382812 -181.124023438 -114.541992188 -164.904296875 -114.541992188 -144.358398438 c 4
 -114.541992188 -129.219726562 -110.622070312 -117.325195312 -102.782226562 -108.673828125 c 4
 -94.9423828125 -100.0234375 -84.263671875 -95.6982421875 -70.7470703125 -95.6982421875 c 4
 -59.392578125 -95.6982421875 -50.2021484375 -98.806640625 -43.1728515625 -105.024414062 c 4
 -36.1435546875 -111.2421875 -30.466796875 -120.569335938 -26.1416015625 -133.00390625 c 4
 -20.1943359375 -148.682617188 -14.517578125 -159.225585938 -9.1103515625 -164.6328125 c 4
 -3.7041015625 -170.040039062 4.1357421875 -172.743164062 14.4091796875 -172.743164062 c 4
 59.2841796875 -172.743164062 81.7216796875 -128.137695312 81.7216796875 -38.927734375 c 6
 81.7216796875 365.760742188 l 5
67.931640625 580.674804688 m 4
 67.931640625 595.814453125 72.662109375 608.249023438 82.1240234375 617.981445312 c 4
 91.5859375 627.712890625 104.157226562 632.579101562 119.8359375 632.579101562 c 4
 135.514648438 632.579101562 148.220703125 627.712890625 157.953125 617.981445312 c 4
 167.684570312 608.249023438 172.55078125 595.814453125 172.55078125 580.674804688 c 4
 172.55078125 564.99609375 167.684570312 552.290039062 157.953125 542.55859375 c 4
 148.220703125 532.826171875 135.514648438 527.959960938 119.8359375 527.959960938 c 4
 104.157226562 527.959960938 91.5859375 532.826171875 82.1240234375 542.55859375 c 4
 72.662109375 552.290039062 67.931640625 564.99609375 67.931640625 580.674804688 c 4
EndSplineSet
Fore
SplineSet
159 438 m 1
 159 174 l 2
 159 -60 142 -162 -25 -162 c 0
 -74 -162 -115 -141 -115 -96 c 0
 -115 -67 -99 -47 -71 -47 c 0
 -17 -47 -45 -114 14 -114 c 3
 69 -114 83 -7 83 112 c 2
 82 366 l 2
 22 388 l 1
 22 399 l 1
 97 414 119 423 150 438 c 1
 159 438 l 1
120 528 m 3
 88 528 68 550 68 581 c 3
 68 612 89 633 120 633 c 3
 151 633 173 612 173 581 c 3
 173 550 151 528 120 528 c 3
EndSplineSet
Validated: 1
EndChar

StartChar: a
Encoding: 97 97 18
Width: 423
VWidth: 811
Flags: HMW
LayerCount: 2
Back
SplineSet
132.815429688 -8.1103515625 m 0
 103.619140625 -8.1103515625 80.0986328125 1.0771484375 62.2568359375 19.4599609375 c 0
 44.4140625 37.8427734375 35.4931640625 61.6318359375 35.4931640625 90.828125 c 0
 35.4931640625 108.669921875 39.4130859375 124.484375 47.2529296875 138.271484375 c 0
 55.0927734375 152.05859375 67.798828125 164.62890625 85.37109375 175.983398438 c 0
 102.942382812 187.336914062 125.920898438 197.744140625 154.305664062 207.206054688 c 0
 182.690429688 216.668945312 217.158203125 225.724609375 257.708007812 234.375976562 c 1
 257.708007812 313.853515625 l 2
 257.708007812 347.916015625 252.841796875 371.975585938 243.110351562 386.033203125 c 0
 233.377929688 400.08984375 216.6171875 407.119140625 192.828125 407.119140625 c 0
 169.579101562 407.119140625 151.196289062 401.577148438 137.6796875 390.493164062 c 0
 124.162109375 379.409179688 117.404296875 364.40625 117.404296875 345.482421875 c 0
 117.404296875 341.158203125 117.674804688 336.426757812 118.215820312 331.291015625 c 0
 118.755859375 326.155273438 119.026367188 321.424804688 119.026367188 317.099609375 c 0
 119.026367188 303.041992188 115.106445312 291.688476562 107.266601562 283.037109375 c 0
 99.4267578125 274.38671875 89.2890625 270.061523438 76.8544921875 270.061523438 c 0
 66.041015625 270.061523438 57.1201171875 273.575195312 50.091796875 280.604492188 c 0
 43.0625 287.633789062 39.548828125 297.095703125 39.548828125 308.990234375 c 0
 39.548828125 326.83203125 47.5234375 345.21484375 63.47265625 364.138671875 c 0
 79.4228515625 383.061523438 100.64453125 399.28125 127.137695312 412.797851562 c 0
 159.577148438 429.559570312 193.909179688 437.939453125 230.133789062 437.939453125 c 0
 253.3828125 437.939453125 273.1171875 434.290039062 289.336914062 426.990234375 c 0
 305.557617188 419.69140625 317.181640625 409.013671875 324.209960938 394.956054688 c 0
 326.373046875 390.08984375 328.130859375 385.088867188 329.482421875 379.953125 c 0
 330.833984375 374.81640625 331.915039062 368.329101562 332.7265625 360.48828125 c 0
 333.537109375 352.6484375 334.078125 342.916992188 334.348632812 331.29296875 c 0
 334.618164062 319.668945312 334.75390625 305.4765625 334.75390625 288.71484375 c 2
 334.75390625 102.99609375 l 2
 334.75390625 75.962890625 336.78125 57.8505859375 340.836914062 48.66015625 c 0
 344.891601562 39.46875 352.866210938 34.873046875 364.760742188 34.873046875 c 0
 372.330078125 34.873046875 379.087890625 36.630859375 385.03515625 40.14453125 c 0
 390.982421875 43.658203125 397.470703125 49.7412109375 404.499023438 58.3916015625 c 1
 418.286132812 46.2265625 l 1
 405.8515625 26.7626953125 393.010742188 12.8408203125 379.764648438 4.4609375 c 0
 366.518554688 -3.919921875 351.245117188 -8.1103515625 333.943359375 -8.1103515625 c 0
 291.23046875 -8.1103515625 267.170898438 16.2197265625 261.763671875 64.8798828125 c 1
 259.331054688 66.501953125 l 1
 243.65234375 43.2529296875 224.59375 25.005859375 202.155273438 11.759765625 c 0
 179.717773438 -1.486328125 156.604492188 -8.1103515625 132.815429688 -8.1103515625 c 0
168.497070312 39.7353515625 m 0
 185.798828125 39.7353515625 202.290039062 44.4638671875 217.96875 53.92578125 c 0
 233.6484375 63.3876953125 246.89453125 76.76953125 257.70703125 94.0703125 c 1
 257.70703125 210.854492188 l 1
 229.052734375 204.907226562 205.127929688 198.959960938 185.93359375 193.013671875 c 0
 166.740234375 187.06640625 151.331054688 180.037109375 139.70703125 171.927734375 c 0
 128.083007812 163.817382812 119.837890625 154.625976562 114.971679688 144.353515625 c 0
 110.10546875 134.080078125 107.672851562 121.915039062 107.672851562 107.858398438 c 0
 107.672851562 85.69140625 112.944335938 68.7958984375 123.487304688 57.171875 c 0
 134.030273438 45.5478515625 149.033203125 39.7353515625 168.497070312 39.7353515625 c 0
EndSplineSet
Fore
SplineSet
259 45 m 1
 233 7 190 -8 133 -8 c 3
 75 -8 35 33 35 91 c 3
 35 134 56 157 85 176 c 0
 130 205 191 219 258 234 c 1
 258 317 l 2
 258 372 246 393 199 393 c 3
 123 393 119 358 119 317 c 3
 119 290 103 270 77 270 c 0
 54 270 40 286 40 309 c 0
 40 327 47 345 63 364 c 0
 96 403 162 438 230 438 c 3
 310 438 335 401 335 320 c 2
 335 103 l 2
 335 64 335 35 365 35 c 3
 385 35 394 44 405 58 c 1
 418 46 l 1
 398 14 378 -8 334 -8 c 3
 291 -8 265 21 262 43 c 1
 259 45 l 1
108 108 m 3
 108 66 127 40 168 40 c 3
 209 40 240 83 258 111 c 1
 258 190 l 1
 201 179 108 164 108 108 c 3
EndSplineSet
Validated: 1
EndChar

StartChar: A
Encoding: 65 65 19
Width: 630
VWidth: 811
Flags: HMW
LayerCount: 2
Back
SplineSet
393.334960938 229.512695312 m 5
 197.07421875 229.51171875 l 5
 153.280273438 107.05078125 l 6
 147.333007812 90.2890625 144.358398438 77.583984375 144.358398438 68.9326171875 c 4
 144.358398438 54.3349609375 151.387695312 43.3857421875 165.444335938 36.0869140625 c 4
 179.501953125 28.7880859375 200.317382812 22.9755859375 227.891601562 18.650390625 c 5
 227.891601562 -0.001953125 l 5
 0.0009765625 -0.001953125 l 5
 0.0009765625 18.650390625 l 5
 21.6279296875 21.89453125 38.9287109375 25.6796875 51.9052734375 30.0048828125 c 4
 64.880859375 34.330078125 75.423828125 40.0068359375 83.5341796875 47.03515625 c 4
 91.6435546875 54.064453125 98.1318359375 62.580078125 102.998046875 72.58203125 c 4
 107.864257812 82.583984375 112.729492188 94.61328125 117.595703125 108.670898438 c 6
 274.9296875 549.043945312 l 5
 253.84375 596.892578125 l 5
 333.322265625 640.686523438 l 5
 547.42578125 68.12109375 l 6
 550.669921875 58.9296875 554.18359375 51.3603515625 557.96875 45.4140625 c 4
 561.75390625 39.466796875 566.620117188 34.6005859375 572.56640625 30.8154296875 c 4
 578.513671875 27.0302734375 586.083007812 24.3271484375 595.274414062 22.7060546875 c 4
 604.46484375 21.083984375 616.088867188 19.7314453125 630.146484375 18.650390625 c 5
 630.146484375 -0.001953125 l 5
 372.248046875 -0.001953125 l 5
 372.248046875 18.650390625 l 5
 390.630859375 19.19140625 405.364257812 20.1376953125 416.448242188 21.490234375 c 4
 427.532226562 22.841796875 436.047851562 24.599609375 441.995117188 26.7626953125 c 4
 447.942382812 28.9248046875 451.7265625 31.4931640625 453.348632812 34.4677734375 c 4
 454.970703125 37.44140625 455.782226562 41.0908203125 455.782226562 45.416015625 c 4
 455.782226562 49.201171875 455.241210938 53.6611328125 454.16015625 58.7978515625 c 4
 453.079101562 63.93359375 450.645507812 71.3681640625 446.861328125 81.099609375 c 6
 393.334960938 229.512695312 l 5
292.771484375 497.952148438 m 5
 208.427734375 261.951171875 l 5
 381.170898438 261.951171875 l 5
 296.015625 497.952148438 l 5
 292.771484375 497.952148438 l 5
EndSplineSet
Fore
SplineSet
393 230 m 1
 217 230 l 1
 173 107 l 2
 167 90 164 78 164 69 c 3
 164 40 196 24 228 19 c 1
 228 0 l 1
 0 0 l 1
 0 19 l 1
 50 26 85 35 103 72 c 0
 108 82 113 95 118 109 c 2
 306 636 l 1
 333 641 l 1
 547 68 l 2
 561 30 577 22 630 19 c 1
 630 0 l 1
 372 0 l 1
 372 19 l 1
 401 20 423 21 442 27 c 0
 452 30 456 34 456 45 c 0
 456 60 453 66 447 81 c 2
 393 230 l 1
303 470 m 1
 235 282 l 1
 374 282 l 1
 306 470 l 1
 303 470 l 1
EndSplineSet
Validated: 1
EndChar

StartChar: B
Encoding: 66 66 20
Width: 544
VWidth: 811
Flags: HMW
LayerCount: 2
Back
SplineSet
270.49609375 624.469726562 m 6
 307.801757812 624.469726562 338.755859375 621.765625 363.35546875 616.358398438 c 4
 387.956054688 610.951171875 408.635742188 602.571289062 425.397460938 591.217773438 c 4
 444.3203125 577.700195312 459.188476562 560.669921875 470.000976562 540.124023438 c 4
 480.814453125 519.579101562 486.221679688 497.141601562 486.221679688 472.811523438 c 4
 486.221679688 437.126953125 474.731445312 407.390625 451.75390625 383.6015625 c 4
 428.775390625 359.8125 395.66015625 343.322265625 352.407226562 334.130859375 c 5
 352.407226562 330.887695312 l 5
 376.737304688 328.184570312 398.76953125 322.237304688 418.50390625 313.045898438 c 4
 438.237304688 303.854492188 455.268554688 291.959960938 469.596679688 277.362304688 c 4
 483.924804688 262.763671875 494.873046875 246.002929688 502.442382812 227.080078125 c 4
 510.010742188 208.157226562 513.795898438 187.612304688 513.795898438 165.444335938 c 4
 513.795898438 140.57421875 509.065429688 117.325195312 499.603515625 95.6982421875 c 4
 490.141601562 74.0712890625 476.759765625 56.2294921875 459.458984375 42.171875 c 4
 440.536132812 27.033203125 417.692382812 16.2197265625 390.9296875 9.732421875 c 4
 364.166015625 3.244140625 328.618164062 0 284.283203125 0 c 6
 30.4404296875 0 l 5
 30.4404296875 18.6533203125 l 5
 99.375 34.0615234375 l 5
 99.375 590.408203125 l 5
 30.4404296875 605.817382812 l 5
 30.4404296875 624.469726562 l 5
 270.49609375 624.469726562 l 6
184.530273438 347.916992188 m 5
 234.811523438 347.919921875 l 6
 250.490234375 347.919921875 263.465820312 348.055664062 273.739257812 348.325195312 c 4
 284.01171875 348.595703125 293.744140625 349.270507812 302.935546875 350.3515625 c 4
 332.671875 353.595703125 355.515625 365.896484375 371.465820312 387.252929688 c 4
 387.415039062 408.608398438 395.389648438 437.940429688 395.389648438 475.24609375 c 4
 395.389648438 494.168945312 393.092773438 510.25390625 388.49609375 523.5 c 4
 383.900390625 536.74609375 376.196289062 548.775390625 365.3828125 559.588867188 c 4
 353.48828125 572.0234375 339.430664062 580.5390625 323.2109375 585.134765625 c 4
 306.991210938 589.73046875 284.012695312 592.028320312 254.276367188 592.028320312 c 6
 184.530273438 592.028320312 l 5
 184.530273438 347.916992188 l 5
184.529296875 315.479492188 m 5
 184.529296875 79.4775390625 l 6
 184.529296875 60.5546875 189.530273438 47.71484375 199.532226562 40.9560546875 c 4
 209.53515625 34.1982421875 228.323242188 30.818359375 255.897460938 30.818359375 c 4
 312.125976562 30.818359375 353.487304688 42.1728515625 379.98046875 64.880859375 c 4
 406.47265625 87.5888671875 419.71875 123.54296875 419.71875 172.744140625 c 4
 419.71875 221.944335938 406.337890625 258.034179688 379.575195312 281.012695312 c 4
 352.811523438 303.990234375 310.775390625 315.479492188 253.463867188 315.479492188 c 6
 184.529296875 315.479492188 l 5
EndSplineSet
Fore
SplineSet
486 473 m 7
 486 391 426 349 352 334 c 5
 352 331 l 5
 425 323 478 285 502 227 c 4
 509 208 514 187 514 165 c 7
 514 78 462 27 391 10 c 4
 364 4 329 0 284 0 c 6
 30 0 l 5
 30 19 l 5
 99 34 l 5
 99 590 l 5
 30 606 l 5
 30 624 l 5
 270 624 l 6
 371 624 436 605 470 540 c 4
 481 520 486 497 486 473 c 7
185 361 m 5
 235 361 l 6
 340 361 395 366 395 475 c 7
 395 554 335 577 254 577 c 6
 185 577 l 5
 185 361 l 5
420 173 m 7
 420 278 361 305 253 305 c 6
 185 305 l 5
 185 105 l 6
 185 62 208 56 256 56 c 7
 363 56 420 69 420 173 c 7
EndSplineSet
Validated: 1
EndChar

StartChar: C
Encoding: 67 67 21
Width: 594
VWidth: 811
Flags: HMW
LayerCount: 2
Back
SplineSet
480.490234375 472.813476562 m 7
 480.490234375 390.90234375 420.475585938 349.541015625 346.674804688 334.131835938 c 5
 346.674804688 330.887695312 l 5
 419.665039062 322.778320312 473.19140625 284.661132812 496.709960938 227.080078125 c 4
 504.008789062 208.426757812 508.064453125 187.340820312 508.064453125 165.444335938 c 7
 508.064453125 78.6669921875 456.970703125 26.7626953125 385.602539062 9.732421875 c 4
 358.83984375 3.244140625 323.15625 0 278.55078125 0 c 6
 24.7080078125 0 l 5
 24.7080078125 18.6533203125 l 5
 93.642578125 34.0615234375 l 5
 93.642578125 590.408203125 l 5
 24.7080078125 605.817382812 l 5
 24.7080078125 624.469726562 l 5
 264.763671875 624.469726562 l 6
 366.138671875 624.469726562 430.208007812 605.005859375 464.26953125 540.125976562 c 4
 474.813476562 519.850585938 480.490234375 497.142578125 480.490234375 472.813476562 c 7
178.797851562 360.89453125 m 5
 229.080078125 360.89453125 l 6
 334.509765625 360.89453125 389.658203125 366.572265625 389.658203125 475.24609375 c 7
 389.658203125 554.745117188 329.823242188 576.62109375 248.543945312 576.62109375 c 6
 178.797851562 576.62109375 l 5
 178.797851562 360.89453125 l 5
413.98828125 172.743164062 m 7
 413.98828125 277.362304688 355.595703125 304.935546875 247.733398438 304.935546875 c 6
 178.797851562 304.935546875 l 5
 178.797851562 104.619140625 l 6
 178.797851562 61.6357421875 202.317382812 55.958984375 250.166015625 55.958984375 c 7
 357.217773438 55.958984375 413.98828125 68.9345703125 413.98828125 172.743164062 c 7
EndSplineSet
Fore
SplineSet
30 308 m 7
 30 495 141 633 327 633 c 7
 397 633 457 611 502 583 c 5
 505 583 l 5
 545 624 l 5
 559 624 l 5
 559 438 l 5
 535 438 l 5
 505 528 455 585 341 585 c 7
 190 585 133 475 133 314 c 7
 133 153 191 44 341 44 c 7
 460 44 518 109 537 212 c 5
 559 212 l 5
 559 0 l 5
 540 0 l 5
 502 54 l 5
 451 17 403 -8 324 -8 c 7
 140 -8 30 123 30 308 c 7
EndSplineSet
Validated: 1
EndChar

StartChar: D
Encoding: 68 68 22
Width: 631
VWidth: 811
Flags: HMW
LayerCount: 2
Back
SplineSet
486.221679688 472.813476562 m 7
 486.221679688 390.90234375 426.208007812 349.541015625 352.407226562 334.131835938 c 5
 352.407226562 330.887695312 l 5
 425.397460938 322.778320312 478.922851562 284.661132812 502.442382812 227.080078125 c 4
 509.741210938 208.426757812 513.795898438 187.340820312 513.795898438 165.444335938 c 7
 513.795898438 78.6669921875 462.703125 26.7626953125 391.334960938 9.732421875 c 4
 364.572265625 3.244140625 328.887695312 0 284.283203125 0 c 6
 30.4404296875 0 l 5
 30.4404296875 18.6533203125 l 5
 99.375 34.0615234375 l 5
 99.375 590.408203125 l 5
 30.4404296875 605.817382812 l 5
 30.4404296875 624.469726562 l 5
 270.49609375 624.469726562 l 6
 371.87109375 624.469726562 435.940429688 605.005859375 470.001953125 540.125976562 c 4
 480.544921875 519.850585938 486.221679688 497.142578125 486.221679688 472.813476562 c 7
184.530273438 360.89453125 m 5
 234.811523438 360.89453125 l 6
 340.2421875 360.89453125 395.389648438 366.572265625 395.389648438 475.24609375 c 7
 395.389648438 554.745117188 335.5546875 576.62109375 254.276367188 576.62109375 c 6
 184.530273438 576.62109375 l 5
 184.530273438 360.89453125 l 5
419.719726562 172.743164062 m 7
 419.719726562 277.362304688 361.328125 304.935546875 253.46484375 304.935546875 c 6
 184.530273438 304.935546875 l 5
 184.530273438 104.619140625 l 6
 184.530273438 61.6357421875 208.048828125 55.958984375 255.8984375 55.958984375 c 7
 362.950195312 55.958984375 419.719726562 68.9345703125 419.719726562 172.743164062 c 7
EndSplineSet
Fore
SplineSet
30 0 m 1
 30 19 l 1
 99 34 l 1
 99 590 l 1
 30 606 l 1
 30 624 l 1
 232 624 l 2
 462 624 601 535 601 311 c 3
 601 121 495 0 302 0 c 2
 30 0 l 1
185 105 m 2
 185 60 217 56 269 56 c 0
 438 56 500 153 500 320 c 3
 500 495 427 577 249 577 c 2
 185 577 l 1
 185 105 l 2
EndSplineSet
Validated: 1
EndChar

StartChar: E
Encoding: 69 69 23
Width: 538
VWidth: 811
Flags: HMW
LayerCount: 2
Back
SplineSet
486.221679688 472.813476562 m 7
 486.221679688 390.90234375 426.208007812 349.541015625 352.407226562 334.131835938 c 5
 352.407226562 330.887695312 l 5
 425.397460938 322.778320312 478.922851562 284.661132812 502.442382812 227.080078125 c 4
 509.741210938 208.426757812 513.795898438 187.340820312 513.795898438 165.444335938 c 7
 513.795898438 78.6669921875 462.703125 26.7626953125 391.334960938 9.732421875 c 4
 364.572265625 3.244140625 328.887695312 0 284.283203125 0 c 6
 30.4404296875 0 l 5
 30.4404296875 18.6533203125 l 5
 99.375 34.0615234375 l 5
 99.375 590.408203125 l 5
 30.4404296875 605.817382812 l 5
 30.4404296875 624.469726562 l 5
 270.49609375 624.469726562 l 6
 371.87109375 624.469726562 435.940429688 605.005859375 470.001953125 540.125976562 c 4
 480.544921875 519.850585938 486.221679688 497.142578125 486.221679688 472.813476562 c 7
184.530273438 360.89453125 m 5
 234.811523438 360.89453125 l 6
 340.2421875 360.89453125 395.389648438 366.572265625 395.389648438 475.24609375 c 7
 395.389648438 554.723632812 335.375976562 576.62109375 254.276367188 576.62109375 c 6
 184.530273438 576.62109375 l 5
 184.530273438 360.89453125 l 5
419.719726562 172.743164062 m 7
 419.719726562 277.362304688 361.328125 304.935546875 253.46484375 304.935546875 c 6
 184.530273438 304.935546875 l 5
 184.530273438 104.619140625 l 6
 184.530273438 61.6357421875 208.048828125 55.958984375 255.8984375 55.958984375 c 7
 362.950195312 55.958984375 419.719726562 68.9345703125 419.719726562 172.743164062 c 7
EndSplineSet
Fore
SplineSet
476 446 m 5
 462 496 442 534 417 577 c 5
 185 577 l 5
 185 361 l 5
 330 361 l 5
 344 391 354 407 360 443 c 5
 379 443 l 5
 379 216 l 5
 360 216 l 5
 355 249 345 273 330 305 c 5
 185 305 l 5
 185 57 l 5
 413 57 l 5
 444 107 461 132 481 190 c 5
 508 190 l 5
 478 0 l 5
 30 0 l 5
 30 19 l 5
 99 34 l 5
 99 590 l 5
 30 606 l 5
 30 624 l 5
 481 624 l 5
 495 446 l 5
 476 446 l 5
EndSplineSet
Validated: 1
EndChar

StartChar: H
Encoding: 72 72 24
Width: 682
VWidth: 811
Flags: HMW
LayerCount: 2
Back
SplineSet
489.465820312 472.813476562 m 3
 489.465820312 390.90234375 429.452148438 349.541015625 355.651367188 334.131835938 c 1
 355.651367188 330.887695312 l 1
 428.640625 322.778320312 482.166992188 284.661132812 505.685546875 227.080078125 c 0
 512.985351562 208.426757812 517.040039062 187.340820312 517.040039062 165.444335938 c 3
 517.040039062 78.6669921875 465.947265625 26.7626953125 394.579101562 9.732421875 c 0
 367.81640625 3.244140625 332.131835938 0 287.52734375 0 c 2
 33.68359375 0 l 1
 33.68359375 18.6533203125 l 1
 102.619140625 34.0615234375 l 1
 102.619140625 590.408203125 l 1
 33.68359375 605.817382812 l 1
 33.68359375 624.469726562 l 1
 273.740234375 624.469726562 l 2
 375.115234375 624.469726562 439.18359375 605.005859375 473.24609375 540.125976562 c 0
 483.7890625 519.850585938 489.465820312 497.142578125 489.465820312 472.813476562 c 3
187.774414062 360.89453125 m 1
 238.055664062 360.89453125 l 2
 343.486328125 360.89453125 398.633789062 366.572265625 398.633789062 475.24609375 c 3
 398.633789062 554.745117188 338.798828125 576.62109375 257.51953125 576.62109375 c 2
 187.774414062 576.62109375 l 1
 187.774414062 360.89453125 l 1
422.963867188 172.743164062 m 3
 422.963867188 277.362304688 364.572265625 304.935546875 256.708984375 304.935546875 c 2
 187.774414062 304.935546875 l 1
 187.774414062 104.619140625 l 2
 187.774414062 61.6357421875 211.29296875 55.958984375 259.141601562 55.958984375 c 3
 366.194335938 55.958984375 422.963867188 68.9345703125 422.963867188 172.743164062 c 3
EndSplineSet
Fore
SplineSet
495 305 m 5
 189 305 l 5
 189 34 l 5
 261 19 l 5
 261 0 l 5
 30 0 l 5
 30 19 l 5
 103 34 l 5
 103 590 l 5
 30 606 l 5
 30 624 l 5
 261 624 l 5
 261 606 l 5
 189 590 l 5
 189 361 l 5
 495 361 l 5
 495 590 l 5
 422 606 l 5
 422 624 l 5
 652 624 l 5
 652 604 l 5
 580 590 l 5
 580 34 l 5
 652 17 l 5
 652 0 l 5
 422 0 l 5
 422 19 l 5
 495 34 l 5
 495 305 l 5
EndSplineSet
Validated: 1
EndChar

StartChar: I
Encoding: 73 73 25
Width: 291
VWidth: 811
Flags: HMW
LayerCount: 2
Fore
SplineSet
103 590 m 1
 30 606 l 1
 30 624 l 1
 261 624 l 1
 261 606 l 1
 189 590 l 1
 189 34 l 1
 261 19 l 1
 261 0 l 1
 30 0 l 1
 30 19 l 1
 103 34 l 1
 103 590 l 1
EndSplineSet
Validated: 1
EndChar

StartChar: J
Encoding: 74 74 26
Width: 405
VWidth: 811
Flags: HMW
LayerCount: 2
Back
SplineSet
302.880859375 125.705078125 m 2
 302.880859375 85.6962890625 302.610351562 53.255859375 302.069335938 28.384765625 c 0
 301.528320312 3.513671875 300.176757812 -17.166015625 298.013671875 -33.65625 c 0
 295.850585938 -50.146484375 293.01171875 -63.6630859375 289.498046875 -74.2060546875 c 0
 285.983398438 -84.7490234375 281.252929688 -95.427734375 275.306640625 -106.241210938 c 0
 256.3828125 -140.302734375 231.91796875 -166.254882812 201.911132812 -184.096679688 c 0
 171.903320312 -201.939453125 140.139648438 -210.860351562 106.618164062 -210.860351562 c 0
 76.3408203125 -210.860351562 52.5517578125 -204.641601562 35.2509765625 -192.20703125 c 0
 17.9501953125 -179.771484375 9.298828125 -162.470703125 9.298828125 -140.303710938 c 0
 9.298828125 -124.083984375 13.6240234375 -111.243164062 22.275390625 -101.78125 c 0
 30.92578125 -92.3193359375 42.5498046875 -87.5888671875 57.1484375 -87.5888671875 c 0
 68.501953125 -87.5888671875 77.693359375 -90.697265625 84.7216796875 -96.9150390625 c 0
 91.7509765625 -103.1328125 97.427734375 -112.459960938 101.752929688 -124.89453125 c 0
 107.700195312 -140.57421875 114.728515625 -151.791992188 122.838867188 -158.55078125 c 0
 130.94921875 -165.30859375 140.411132812 -168.688476562 151.223632812 -168.688476562 c 0
 170.147460938 -168.688476562 185.961914062 -158.009765625 198.66796875 -136.653320312 c 0
 211.373046875 -115.297851562 217.725585938 -82.7216796875 217.725585938 -38.927734375 c 2
 217.725585938 590.408203125 l 1
 144.736328125 605.817382812 l 1
 144.736328125 624.469726562 l 1
 375.059570312 624.469726562 l 1
 375.059570312 605.817382812 l 1
 302.880859375 590.408203125 l 1
 302.880859375 125.705078125 l 2
EndSplineSet
Fore
SplineSet
218 590 m 1
 145 606 l 1
 145 624 l 1
 375 624 l 1
 375 606 l 1
 303 590 l 1
 303 345 l 2
 302 109 259 0 111 0 c 3
 42 0 10 29 10 74 c 3
 10 103 30 123 58 123 c 0
 112 123 91 60 150 60 c 3
 205 60 219 166 219 285 c 2
 218 590 l 1
EndSplineSet
Validated: 1
EndChar

StartChar: O
Encoding: 79 79 27
Width: 639
VWidth: 811
Flags: HMW
LayerCount: 2
Back
SplineSet
464.135742188 472.813476562 m 7
 464.135742188 390.90234375 404.122070312 349.541015625 330.321289062 334.131835938 c 5
 330.321289062 330.887695312 l 5
 403.310546875 322.778320312 456.836914062 284.661132812 480.356445312 227.080078125 c 4
 487.655273438 208.426757812 491.709960938 187.340820312 491.709960938 165.444335938 c 7
 491.709960938 78.6669921875 440.6171875 26.7626953125 369.249023438 9.732421875 c 4
 342.486328125 3.244140625 306.801757812 0 262.197265625 0 c 6
 8.353515625 0 l 5
 8.353515625 18.6533203125 l 5
 77.2890625 34.0615234375 l 5
 77.2890625 590.408203125 l 5
 8.353515625 605.817382812 l 5
 8.353515625 624.469726562 l 5
 248.41015625 624.469726562 l 6
 349.78515625 624.469726562 413.853515625 605.005859375 447.916015625 540.125976562 c 4
 458.458984375 519.850585938 464.135742188 497.142578125 464.135742188 472.813476562 c 7
162.444335938 360.89453125 m 5
 212.725585938 360.89453125 l 6
 318.15625 360.89453125 373.303710938 366.572265625 373.303710938 475.24609375 c 7
 373.303710938 554.745117188 313.46875 576.62109375 232.190429688 576.62109375 c 6
 162.444335938 576.62109375 l 5
 162.444335938 360.89453125 l 5
397.633789062 172.743164062 m 7
 397.633789062 277.362304688 339.2421875 304.935546875 231.37890625 304.935546875 c 6
 162.444335938 304.935546875 l 5
 162.444335938 104.619140625 l 6
 162.444335938 61.6357421875 185.962890625 55.958984375 233.811523438 55.958984375 c 7
 340.864257812 55.958984375 397.633789062 68.9345703125 397.633789062 172.743164062 c 7
EndSplineSet
Fore
SplineSet
320 633 m 3
 500 633 614 493 614 312 c 3
 614 131 500 -8 320 -8 c 3
 140 -8 25 131 25 312 c 3
 25 493 140 633 320 633 c 3
128 313 m 3
 128 165 176 43 320 43 c 3
 464 43 512 167 512 315 c 3
 512 463 464 577 320 577 c 3
 175 577 128 461 128 313 c 3
EndSplineSet
Validated: 1
EndChar

StartChar: r
Encoding: 114 114 28
Width: 324
VWidth: 811
Flags: HMW
LayerCount: 2
Back
SplineSet
234.188476562 16.2197265625 m 1
 234.189453125 -0.001953125 l 1
 14.408203125 -0.001953125 l 1
 14.408203125 16.21875 l 1
 76.0439453125 28.3837890625 l 1
 76.0439453125 365.759765625 l 1
 16.0302734375 388.467773438 l 1
 16.0302734375 399.010742188 l 1
 141.735351562 438.749023438 l 1
 149.844726562 438.749023438 l 1
 149.844726562 349.5390625 l 1
 168.768554688 378.194335938 187.69140625 400.2265625 206.614257812 415.635742188 c 0
 225.537109375 431.044921875 243.649414062 438.749023438 260.950195312 438.749023438 c 0
 275.0078125 438.749023438 287.037109375 433.748046875 297.0390625 423.74609375 c 0
 307.041015625 413.744140625 312.04296875 401.713867188 312.04296875 387.657226562 c 0
 312.04296875 374.681640625 307.58203125 363.732421875 298.661132812 354.811523438 c 0
 289.740234375 345.890625 278.521484375 341.430664062 265.004882812 341.430664062 c 0
 252.029296875 341.430664062 241.755859375 346.56640625 234.186523438 356.838867188 c 0
 229.321289062 362.786132812 225.130859375 366.840820312 221.616210938 369.00390625 c 0
 218.102539062 371.166992188 213.912109375 372.248046875 209.045898438 372.248046875 c 0
 197.151367188 372.248046875 186.337890625 365.490234375 176.60546875 351.973632812 c 0
 167.415039062 339.538085938 161.467773438 331.158203125 158.764648438 326.833007812 c 0
 156.061523438 322.5078125 154.169921875 317.912109375 153.088867188 313.045898438 c 2
 153.088867188 28.384765625 l 1
 234.188476562 16.2197265625 l 1
EndSplineSet
Fore
SplineSet
314 388 m 3
 314 362 294 341 267 341 c 3
 254 341 244 346 237 357 c 0
 230 366 224 372 211 372 c 0
 187 372 159 331 156 313 c 1
 156 28 l 1
 237 16 l 1
 237 0 l 1
 17 0 l 1
 17 16 l 1
 78 28 l 1
 78 366 l 1
 15 388 l 1
 15 399 l 1
 90 414 113 424 144 439 c 1
 152 439 l 1
 152 391 l 1
 152 391 214 439 263 439 c 3
 291 439 314 416 314 388 c 3
EndSplineSet
Validated: 1
EndChar

StartChar: k
Encoding: 107 107 29
Width: 498
VWidth: 811
Flags: HMW
LayerCount: 2
Back
SplineSet
248.9765625 429.830078125 m 5
 430.641601562 429.83203125 l 5
 430.641601562 413.611328125 l 5
 414.421875 410.3671875 401.040039062 407.529296875 390.497070312 405.095703125 c 4
 379.954101562 402.663085938 371.168945312 399.82421875 364.139648438 396.581054688 c 4
 357.111328125 393.336914062 350.892578125 389.416992188 345.486328125 384.821289062 c 4
 340.079101562 380.225585938 334.40234375 374.413085938 328.455078125 367.383789062 c 6
 236.811523438 260.33203125 l 5
 429.830078125 28.3857421875 l 5
 497.954101562 16.220703125 l 5
 497.954101562 0.0009765625 l 5
 356.029296875 0.0009765625 l 5
 188.15234375 204.373046875 l 5
 156.5234375 167.06640625 l 5
 156.5234375 28.3857421875 l 5
 217.34765625 16.220703125 l 5
 217.34765625 0.0009765625 l 5
 20.275390625 0.0009765625 l 5
 20.275390625 16.220703125 l 5
 81.9111328125 28.3857421875 l 5
 81.9111328125 600.952148438 l 5
 22.7080078125 622.848632812 l 5
 22.7080078125 633.391601562 l 5
 148.413085938 673.130859375 l 5
 156.5234375 673.130859375 l 5
 156.5234375 210.860351562 l 5
 291.959960938 364.951171875 l 6
 303.314453125 377.926757812 308.991210938 387.659179688 308.991210938 394.146484375 c 4
 308.991210938 399.012695312 304.935546875 402.797851562 296.826171875 405.500976562 c 4
 288.715820312 408.204101562 272.765625 410.907226562 248.9765625 413.610351562 c 5
 248.9765625 429.830078125 l 5
EndSplineSet
Fore
SplineSet
157 673 m 1
 157 225 l 1
 292 379 l 2
 301 390 301 391 301 396 c 0
 301 410 274 412 249 414 c 1
 249 430 l 1
 431 430 l 1
 431 414 l 1
 386 405 352 381 328 353 c 2
 237 246 l 1
 430 28 l 1
 498 16 l 1
 498 0 l 1
 356 0 l 1
 188 190 l 1
 157 152 l 1
 157 28 l 1
 217 16 l 1
 217 0 l 1
 20 0 l 1
 20 16 l 1
 82 28 l 1
 82 601 l 1
 20 623 l 1
 20 634 l 1
 95 649 117 658 148 673 c 1
 157 673 l 1
EndSplineSet
Validated: 1
EndChar

StartChar: w
Encoding: 119 119 30
Width: 687
VWidth: 811
Flags: HMW
LayerCount: 2
Back
SplineSet
437.373046875 -8.1103515625 m 1
 339.239257812 295.206054688 l 1
 232.186523438 -8.1083984375 l 1
 196.502929688 -8.1083984375 l 1
 63.4990234375 378.73828125 l 2
 59.173828125 391.71484375 53.361328125 400.365234375 46.0625 404.690429688 c 0
 38.763671875 409.015625 25.111328125 411.989257812 5.1064453125 413.611328125 c 1
 5.1064453125 429.83203125 l 1
 206.234375 429.83203125 l 1
 206.234375 413.611328125 l 1
 193.799804688 412.530273438 183.797851562 411.583984375 176.228515625 410.7734375 c 0
 168.659179688 409.961914062 162.712890625 409.015625 158.387695312 407.934570312 c 0
 154.0625 406.853515625 151.223632812 405.3671875 149.872070312 403.474609375 c 0
 148.51953125 401.583007812 147.844726562 399.014648438 147.844726562 395.770507812 c 0
 147.844726562 393.067382812 148.655273438 389.41796875 150.27734375 384.822265625 c 0
 151.899414062 380.225585938 153.521484375 375.224609375 155.143554688 369.817382812 c 2
 236.243164062 100.565429688 l 1
 239.487304688 100.565429688 l 1
 323.831054688 343.0546875 l 1
 312.477539062 378.73828125 l 2
 308.15234375 391.173828125 302.33984375 399.689453125 295.041015625 404.28515625 c 0
 287.7421875 408.880859375 276.79296875 411.989257812 262.1953125 413.611328125 c 1
 262.1953125 429.83203125 l 1
 447.103515625 429.83203125 l 1
 447.103515625 413.611328125 l 1
 434.66796875 412.530273438 424.666015625 411.583984375 417.09765625 410.7734375 c 0
 409.528320312 409.961914062 403.581054688 409.015625 399.255859375 407.934570312 c 0
 394.930664062 406.853515625 392.092773438 405.3671875 390.740234375 403.474609375 c 0
 389.388671875 401.583007812 388.712890625 399.014648438 388.712890625 395.770507812 c 0
 388.712890625 393.067382812 389.524414062 389.41796875 391.146484375 384.822265625 c 0
 392.767578125 380.225585938 394.389648438 375.224609375 396.01171875 369.817382812 c 2
 477.112304688 100.565429688 l 1
 480.356445312 100.565429688 l 1
 567.944335938 351.975585938 l 2
 572.809570312 364.951171875 575.243164062 375.494140625 575.243164062 383.604492188 c 0
 575.243164062 392.255859375 571.188476562 398.608398438 563.078125 402.663085938 c 0
 554.967773438 406.717773438 539.829101562 410.3671875 517.662109375 413.611328125 c 1
 517.662109375 429.83203125 l 1
 682.294921875 429.83203125 l 1
 682.294921875 413.611328125 l 1
 667.15625 410.908203125 654.991210938 408.0703125 645.799804688 405.095703125 c 0
 636.609375 402.122070312 629.174804688 398.336914062 623.497070312 393.741210938 c 0
 617.8203125 389.145507812 613.224609375 383.333007812 609.7109375 376.303710938 c 0
 606.196289062 369.275390625 602.817382812 360.89453125 599.573242188 351.163085938 c 2
 473.056640625 -8.1103515625 l 1
 437.373046875 -8.1103515625 l 1
EndSplineSet
Fore
SplineSet
567 388 m 0
 567 409 546 410 518 414 c 1
 518 430 l 1
 682 430 l 1
 682 414 l 1
 647 408 623 402 610 376 c 0
 607 369 603 361 600 351 c 2
 473 -8 l 1
 437 -8 l 1
 339 295 l 1
 232 -8 l 1
 197 -8 l 1
 64 379 l 2
 54 407 42 411 5 414 c 1
 5 430 l 1
 206 430 l 1
 206 414 l 1
 187 412 173 411 158 408 c 0
 151 406 148 404 148 396 c 0
 148 388 153 378 155 370 c 2
 231 117 l 1
 235 117 l 1
 319 359 l 1
 312 379 l 2
 304 404 292 411 262 414 c 1
 262 430 l 1
 447 430 l 1
 447 414 l 1
 428 412 414 411 399 408 c 0
 392 406 389 404 389 396 c 0
 389 388 394 378 396 370 c 2
 472 118 l 1
 475 118 l 1
 563 369 l 2
 565 375 567 382 567 388 c 0
EndSplineSet
Validated: 1
EndChar

StartChar: F
Encoding: 70 70 31
Width: 520
VWidth: 811
Flags: HMW
LayerCount: 2
Back
SplineSet
475.678710938 446.049804688 m 5
 461.891601562 496.33203125 442.427734375 533.637695312 417.287109375 576.62109375 c 5
 184.530273438 576.62109375 l 5
 184.530273438 360.89453125 l 5
 329.69921875 360.89453125 l 5
 343.486328125 390.90234375 354.029296875 407.122070312 359.706054688 442.805664062 c 5
 379.169921875 442.805664062 l 5
 379.169921875 215.725585938 l 5
 359.706054688 215.725585938 l 5
 354.83984375 248.9765625 345.108398438 273.306640625 329.69921875 304.935546875 c 5
 184.530273438 304.935546875 l 5
 184.530273438 56.76953125 l 5
 413.232421875 56.76953125 l 5
 444.049804688 107.051757812 461.081054688 132.193359375 481.356445312 189.774414062 c 5
 508.119140625 189.774414062 l 5
 478.112304688 0 l 5
 30.4404296875 0 l 5
 30.4404296875 18.6533203125 l 5
 99.375 34.0615234375 l 5
 99.375 590.408203125 l 5
 30.4404296875 605.817382812 l 5
 30.4404296875 624.469726562 l 5
 481.356445312 624.469726562 l 5
 495.142578125 446.049804688 l 5
 475.678710938 446.049804688 l 5
EndSplineSet
Fore
SplineSet
476 446 m 1
 462 496 442 534 417 577 c 1
 185 577 l 1
 185 361 l 1
 330 361 l 1
 344 391 354 407 360 443 c 1
 379 443 l 1
 379 216 l 1
 360 216 l 1
 355 249 345 273 330 305 c 1
 185 305 l 1
 185 34 l 1
 277 19 l 1
 277 0 l 1
 30 0 l 1
 30 19 l 1
 99 34 l 1
 99 590 l 1
 30 606 l 1
 30 624 l 1
 481 624 l 1
 495 446 l 1
 476 446 l 1
EndSplineSet
Validated: 1
EndChar

StartChar: G
Encoding: 71 71 32
Width: 648
VWidth: 811
Flags: HMW
LayerCount: 2
Back
SplineSet
31.1962890625 308.1796875 m 3
 31.1962890625 495.521484375 142.302734375 632.580078125 328.022460938 632.580078125 c 3
 397.767578125 632.580078125 457.782226562 611.494140625 502.38671875 583.109375 c 1
 505.630859375 583.109375 l 1
 545.370117188 624.469726562 l 1
 559.967773438 624.469726562 l 1
 559.967773438 437.940429688 l 1
 535.637695312 437.940429688 l 1
 505.630859375 527.9609375 456.16015625 584.731445312 341.80859375 584.731445312 c 3
 190.962890625 584.731445312 133.381835938 474.434570312 133.381835938 313.857421875 c 3
 133.381835938 153.279296875 191.774414062 43.7939453125 341.80859375 43.7939453125 c 3
 461.026367188 43.7939453125 518.607421875 109.485351562 538.071289062 212.482421875 c 1
 559.967773438 212.482421875 l 1
 559.967773438 0 l 1
 540.50390625 0 l 1
 503.198242188 53.5263671875 l 1
 452.10546875 16.2197265625 404.255859375 -8.1103515625 324.778320312 -8.1103515625 c 3
 140.680664062 -8.1103515625 31.1962890625 123.272460938 31.1962890625 308.1796875 c 3
EndSplineSet
Fore
SplineSet
348 586 m 0
 191 586 134 474 134 305 c 0
 134 121 205 44 341 44 c 0
 410 44 462 67 462 137 c 2
 461 279 l 1
 388 294 l 1
 388 313 l 1
 618 313 l 1
 618 294 l 1
 546 279 l 1
 546 66 l 1
 509 31 450 9 388 -2 c 0
 367 -6 346 -8 325 -8 c 0
 232 -8 160 29 113 79 c 0
 64 131 30 208 30 305 c 0
 30 492 149 633 335 633 c 0
 400 633 455 614 490 583 c 1
 493 583 l 1
 537 624 l 1
 555 624 l 1
 555 438 l 1
 536 438 l 1
 500 521 463 586 348 586 c 0
EndSplineSet
Validated: 1
EndChar

StartChar: L
Encoding: 76 76 33
Width: 528
VWidth: 811
Flags: HMW
LayerCount: 2
Back
SplineSet
486.221679688 472.813476562 m 7
 486.221679688 390.90234375 426.208007812 349.541015625 352.407226562 334.131835938 c 5
 352.407226562 330.887695312 l 5
 425.397460938 322.778320312 478.922851562 284.661132812 502.442382812 227.080078125 c 4
 509.741210938 208.426757812 513.795898438 187.340820312 513.795898438 165.444335938 c 7
 513.795898438 78.6669921875 462.703125 26.7626953125 391.334960938 9.732421875 c 4
 364.572265625 3.244140625 328.887695312 0 284.283203125 0 c 6
 30.4404296875 0 l 5
 30.4404296875 18.6533203125 l 5
 99.375 34.0615234375 l 5
 99.375 590.408203125 l 5
 30.4404296875 605.817382812 l 5
 30.4404296875 624.469726562 l 5
 270.49609375 624.469726562 l 6
 371.87109375 624.469726562 435.940429688 605.005859375 470.001953125 540.125976562 c 4
 480.544921875 519.850585938 486.221679688 497.142578125 486.221679688 472.813476562 c 7
184.530273438 360.89453125 m 5
 234.811523438 360.89453125 l 6
 340.2421875 360.89453125 395.389648438 366.572265625 395.389648438 475.24609375 c 7
 395.389648438 554.723632812 335.375976562 576.62109375 254.276367188 576.62109375 c 6
 184.530273438 576.62109375 l 5
 184.530273438 360.89453125 l 5
419.719726562 172.743164062 m 7
 419.719726562 277.362304688 361.328125 304.935546875 253.46484375 304.935546875 c 6
 184.530273438 304.935546875 l 5
 184.530273438 104.619140625 l 6
 184.530273438 61.6357421875 208.048828125 55.958984375 255.8984375 55.958984375 c 7
 362.950195312 55.958984375 419.719726562 68.9345703125 419.719726562 172.743164062 c 7
EndSplineSet
Fore
SplineSet
185 590 m 1
 185 57 l 1
 419 57 l 1
 450 108 467 136 487 194 c 1
 508 194 l 1
 478 0 l 1
 30 0 l 1
 30 19 l 1
 99 34 l 1
 99 590 l 1
 30 606 l 1
 30 624 l 1
 262 624 l 1
 262 606 l 1
 185 590 l 1
EndSplineSet
Validated: 1
EndChar

StartChar: p
Encoding: 112 112 34
Width: 494
VWidth: 811
Flags: HMW
LayerCount: 2
Back
SplineSet
158.956054688 -175.17578125 m 5
 239.24609375 -187.338867188 l 5
 239.24609375 -202.748046875 l 5
 21.0869140625 -202.748046875 l 5
 21.0869140625 -187.338867188 l 5
 81.912109375 -175.173828125 l 5
 81.912109375 365.763671875 l 5
 22.708984375 387.66015625 l 5
 22.708984375 399.014648438 l 5
 147.602539062 437.942382812 l 5
 156.5234375 437.942382812 l 5
 156.5234375 366.57421875 l 5
 159.767578125 366.57421875 l 5
 175.987304688 391.4453125 195.993164062 409.557617188 219.782226562 420.911132812 c 4
 243.571289062 432.265625 267.630859375 437.942382812 291.9609375 437.942382812 c 4
 317.372070312 437.942382812 340.62109375 432.53515625 361.70703125 421.72265625 c 4
 382.79296875 410.909179688 400.770507812 395.90625 415.638671875 376.711914062 c 4
 430.506835938 357.517578125 442.130859375 334.674804688 450.510742188 308.181640625 c 4
 458.890625 281.688476562 463.081054688 252.762695312 463.081054688 221.403320312 c 4
 463.081054688 187.341796875 457.673828125 156.25390625 446.861328125 128.138671875 c 4
 436.047851562 100.0234375 420.638671875 75.8291015625 400.633789062 55.5546875 c 4
 380.62890625 35.279296875 356.83984375 19.6005859375 329.265625 8.5166015625 c 4
 301.692382812 -2.5673828125 271.14453125 -8.109375 237.623046875 -8.109375 c 4
 224.647460938 -8.109375 211.670898438 -7.1630859375 198.6953125 -5.2705078125 c 4
 185.71875 -3.37890625 172.47265625 -0.2705078125 158.956054688 4.0546875 c 5
 158.956054688 -175.17578125 l 5
240.868164062 16.22265625 m 4
 261.413085938 16.22265625 280.204101562 20.9521484375 297.234375 30.4140625 c 4
 314.265625 39.8759765625 328.86328125 52.9873046875 341.028320312 69.748046875 c 4
 353.193359375 86.509765625 362.520507812 106.6484375 369.0078125 130.16796875 c 4
 375.49609375 153.686523438 378.740234375 179.774414062 378.740234375 208.4296875 c 4
 378.740234375 263.577148438 367.385742188 306.830078125 344.677734375 338.189453125 c 4
 321.969726562 369.547851562 290.881835938 385.227539062 251.413085938 385.227539062 c 4
 234.65234375 385.227539062 217.485351562 380.766601562 199.9140625 371.845703125 c 4
 182.341796875 362.924804688 170.041992188 351.706054688 163.012695312 338.189453125 c 5
 163.012695312 95.7001953125 l 6
 163.012695312 71.9111328125 170.447265625 52.7177734375 185.315429688 38.119140625 c 4
 200.18359375 23.521484375 218.701171875 16.22265625 240.868164062 16.22265625 c 4
EndSplineSet
Fore
SplineSet
157 438 m 1
 157 394 l 1
 161 394 l 1
 161 394 200 438 293 438 c 3
 350 438 391 411 417 377 c 0
 445 340 464 286 464 221 c 3
 464 112 409 41 330 9 c 0
 302 -2 271 -8 238 -8 c 3
 208 -8 184 -4 160 4 c 1
 160 -175 l 1
 240 -187 l 1
 240 -203 l 1
 22 -203 l 1
 22 -187 l 1
 83 -175 l 1
 83 366 l 1
 20 388 l 1
 20 399 l 1
 95 414 117 423 148 438 c 1
 157 438 l 1
157 115 m 2
 157 69 197 36 242 36 c 3
 288 36 321 64 342 93 c 0
 366 126 380 150 380 208 c 3
 380 304 341 393 252 393 c 3
 216 393 170 365 157 341 c 1
 157 115 l 2
EndSplineSet
Validated: 1
EndChar

StartChar: q
Encoding: 113 113 35
Width: 481
VWidth: 811
Flags: HMW
LayerCount: 2
Back
SplineSet
337.998046875 -175.17578125 m 1
 337.999023438 47.037109375 l 1
 303.936523438 10.2724609375 262.845703125 -8.1103515625 214.7265625 -8.1103515625 c 0
 188.233398438 -8.1103515625 164.0390625 -3.109375 142.142578125 6.892578125 c 0
 120.245117188 16.89453125 101.322265625 30.9521484375 85.3720703125 49.0634765625 c 0
 69.421875 67.17578125 57.1220703125 88.802734375 48.470703125 113.944335938 c 0
 39.8203125 139.084960938 35.4951171875 166.793945312 35.4951171875 197.071289062 c 0
 35.4951171875 234.376953125 40.630859375 267.8984375 50.904296875 297.635742188 c 0
 61.1767578125 327.372070312 75.6396484375 352.6484375 94.29296875 373.46484375 c 0
 112.9453125 394.280273438 135.518554688 410.23046875 162.010742188 421.314453125 c 0
 188.50390625 432.3984375 217.700195312 437.940429688 249.598632812 437.940429688 c 0
 291.23046875 437.940429688 328.536132812 425.504882812 361.516601562 400.633789062 c 1
 365.572265625 400.633789062 l 1
 402.067382812 428.208007812 l 1
 415.04296875 428.208007812 l 1
 415.04296875 -175.17578125 l 1
 475.868164062 -187.340820312 l 1
 475.868164062 -202.75 l 1
 257.708984375 -202.75 l 1
 257.708984375 -187.340820312 l 1
 337.998046875 -175.17578125 l 1
249.599609375 411.987304688 m 0
 211.752929688 411.987304688 181.068359375 396.036132812 157.549804688 364.137695312 c 0
 134.030273438 332.23828125 122.271484375 284.119140625 122.271484375 219.780273438 c 0
 122.271484375 162.469726562 133.490234375 117.458984375 155.927734375 84.7490234375 c 0
 178.365234375 52.0390625 209.319335938 35.68359375 248.788085938 35.68359375 c 0
 267.170898438 35.68359375 283.931640625 39.4677734375 299.0703125 47.037109375 c 0
 314.209960938 54.6064453125 327.185546875 64.87890625 337.999023438 77.85546875 c 1
 337.999023438 309.80078125 l 2
 337.999023438 340.619140625 330.024414062 365.354492188 314.07421875 384.0078125 c 0
 298.124023438 402.661132812 276.6328125 411.987304688 249.599609375 411.987304688 c 0
EndSplineSet
Fore
SplineSet
338 -175 m 1
 338 19 l 1
 338 19 308 -8 215 -8 c 3
 126 -8 72 47 48 114 c 0
 39 139 35 167 35 197 c 3
 35 310 83 389 162 422 c 0
 189 433 218 438 250 438 c 3
 291 438 329 426 362 401 c 1
 366 401 l 1
 402 428 l 1
 415 428 l 1
 415 -175 l 1
 476 -187 l 1
 476 -203 l 1
 258 -203 l 1
 258 -187 l 1
 338 -175 l 1
338 307 m 2
 338 365 307 393 250 393 c 3
 162 393 122 320 122 220 c 3
 122 122 159 36 249 36 c 3
 290 36 319 54 338 78 c 1
 338 307 l 2
EndSplineSet
Validated: 1
EndChar

StartChar: m
Encoding: 109 109 36
Width: 739
VWidth: 811
Flags: HMW
LayerCount: 2
Back
SplineSet
228.080078125 16.2197265625 m 1
 228.077148438 0.0009765625 l 1
 28.5712890625 0.0009765625 l 1
 28.5712890625 16.220703125 l 1
 90.20703125 28.3857421875 l 1
 90.20703125 364.951171875 l 1
 30.1923828125 387.659179688 l 1
 30.1923828125 398.202148438 l 1
 155.897460938 437.940429688 l 1
 164.0078125 437.940429688 l 1
 164.0078125 369.005859375 l 1
 187.256835938 391.172851562 211.9921875 408.204101562 238.213867188 420.098632812 c 0
 264.436523438 431.994140625 290.5234375 437.940429688 316.475585938 437.940429688 c 0
 326.749023438 437.940429688 337.021484375 436.454101562 347.294921875 433.48046875 c 0
 357.567382812 430.506835938 366.89453125 426.045898438 375.274414062 420.098632812 c 0
 383.654296875 414.151367188 390.817382812 406.852539062 396.764648438 398.202148438 c 0
 402.711914062 389.55078125 406.766601562 379.548828125 408.9296875 368.194335938 c 1
 432.178710938 390.90234375 457.049804688 408.204101562 483.54296875 420.098632812 c 0
 510.03515625 431.994140625 536.2578125 437.940429688 562.209960938 437.940429688 c 0
 581.673828125 437.940429688 598.974609375 433.615234375 614.11328125 424.96484375 c 0
 629.252929688 416.313476562 640.606445312 404.418945312 648.17578125 389.280273438 c 0
 650.338867188 384.955078125 652.095703125 380.224609375 653.448242188 375.087890625 c 0
 654.799804688 369.952148438 655.880859375 363.05859375 656.692382812 354.408203125 c 0
 657.502929688 345.756835938 658.043945312 335.078125 658.313476562 322.372070312 c 0
 658.583984375 309.666992188 658.719726562 293.58203125 658.719726562 274.118164062 c 2
 658.719726562 27.57421875 l 1
 719.543945312 16.2197265625 l 1
 719.543945312 0 l 1
 520.849609375 0 l 1
 520.849609375 16.2197265625 l 1
 581.674804688 27.57421875 l 1
 581.674804688 266.0078125 l 2
 581.674804688 289.256835938 580.727539062 307.774414062 578.8359375 321.561523438 c 0
 576.943359375 335.348632812 574.646484375 346.837890625 571.943359375 356.029296875 c 0
 563.833007812 380.900390625 545.450195312 393.334960938 516.794921875 393.334960938 c 0
 496.790039062 393.334960938 477.731445312 388.874023438 459.620117188 379.953125 c 0
 441.5078125 371.032226562 425.422851562 358.192382812 411.366210938 341.430664062 c 1
 411.907226562 333.321289062 412.3125 323.859375 412.58203125 313.045898438 c 0
 412.852539062 302.233398438 412.98828125 289.256835938 412.98828125 274.118164062 c 2
 412.98828125 27.57421875 l 1
 473.813476562 16.2197265625 l 1
 473.813476562 0 l 1
 275.118164062 0 l 1
 275.118164062 16.2197265625 l 1
 335.943359375 27.57421875 l 1
 335.943359375 266.0078125 l 2
 335.943359375 289.256835938 334.99609375 307.774414062 333.104492188 321.561523438 c 0
 331.212890625 335.348632812 328.915039062 346.837890625 326.211914062 356.029296875 c 0
 317.560546875 380.900390625 299.177734375 393.334960938 271.063476562 393.334960938 c 0
 251.598632812 393.334960938 232.946289062 389.009765625 215.103515625 380.359375 c 0
 197.26171875 371.708007812 181.3125 359.2734375 167.254882812 343.052734375 c 1
 167.254882812 28.384765625 l 1
 228.080078125 16.2197265625 l 1
EndSplineSet
Fore
SplineSet
25 388 m 1
 25 399 l 1
 100 414 126 426 157 441 c 1
 164 441 l 1
 164 393 l 1
 201 429 252 438 316 438 c 3
 342 438 379 437 403 393 c 1
 440 429 497 438 562 438 c 3
 654 438 659 367 659 274 c 2
 659 28 l 1
 720 16 l 1
 720 0 l 1
 521 0 l 1
 521 16 l 1
 582 28 l 1
 582 266 l 2
 582 332 579 393 517 393 c 3
 470 393 435 369 411 341 c 1
 413 320 413 300 413 274 c 2
 413 28 l 1
 474 16 l 1
 474 0 l 1
 275 0 l 1
 275 16 l 1
 336 28 l 1
 336 266 l 2
 336 332 333 393 271 393 c 3
 225 393 188 369 164 341 c 1
 164 28 l 1
 228 16 l 1
 228 0 l 1
 29 0 l 1
 29 16 l 1
 90 28 l 1
 90 365 l 1
 25 388 l 1
EndSplineSet
Validated: 1
EndChar

StartChar: n
Encoding: 110 110 37
Width: 496
VWidth: 811
Flags: HMW
LayerCount: 2
Back
SplineSet
156.711914062 673.129882812 m 5
 166.444335938 673.129882812 l 5
 166.444335938 390.90234375 l 5
 206.994140625 426.5859375 261.331054688 437.940429688 328.643554688 437.940429688 c 4
 378.115234375 437.940429688 417.853515625 414.420898438 428.397460938 375.493164062 c 4
 433.262695312 357.651367188 433.262695312 337.375976562 433.262695312 315.478515625 c 6
 433.262695312 315.478515625 433.262695312 123.272460938 433.262695312 27.57421875 c 5
 494.087890625 16.2197265625 l 5
 494.087890625 0 l 5
 295.392578125 0 l 5
 295.392578125 16.2197265625 l 5
 356.217773438 27.57421875 l 5
 356.217773438 266.0078125 l 6
 356.217773438 338.186523438 352.163085938 393.334960938 283.227539062 393.334960938 c 4
 237.811523438 393.334960938 198.883789062 375.493164062 166.444335938 340.620117188 c 5
 166.444335938 28.384765625 l 5
 227.268554688 16.2197265625 l 5
 227.268554688 0 l 5
 27.7626953125 0 l 5
 27.7626953125 16.2197265625 l 5
 89.3994140625 28.384765625 l 5
 89.3994140625 600.951171875 l 5
 28.57421875 622.84765625 l 5
 28.57421875 634.202148438 l 5
 103.997070312 648.799804688 125.893554688 657.720703125 156.711914062 673.129882812 c 5
EndSplineSet
Fore
SplineSet
25 388 m 1
 25 399 l 1
 100 414 126 426 157 441 c 1
 166 441 l 1
 166 393 l 1
 203 429 252 438 316 438 c 3
 419 438 420 356 420 283 c 2
 420 28 l 1
 481 16 l 1
 481 0 l 1
 282 0 l 1
 282 16 l 1
 343 28 l 1
 343 266 l 2
 343 338 339 393 270 393 c 3
 224 393 190 369 166 341 c 1
 166 28 l 1
 227 16 l 1
 227 0 l 1
 28 0 l 1
 28 16 l 1
 89 28 l 1
 89 365 l 1
 25 388 l 1
EndSplineSet
Validated: 1
EndChar

StartChar: K
Encoding: 75 75 38
Width: 635
VWidth: 811
Flags: HMW
LayerCount: 2
Back
SplineSet
495.142578125 304.935546875 m 1
 188.584960938 304.935546875 l 1
 188.584960938 34.0615234375 l 1
 260.763671875 18.6533203125 l 1
 260.763671875 0 l 1
 30.4404296875 0 l 1
 30.4404296875 18.6533203125 l 1
 103.4296875 34.0615234375 l 1
 103.4296875 590.408203125 l 1
 30.4404296875 605.817382812 l 1
 30.4404296875 624.469726562 l 1
 260.763671875 624.469726562 l 1
 260.763671875 605.817382812 l 1
 188.584960938 590.408203125 l 1
 188.584960938 360.89453125 l 1
 495.142578125 360.89453125 l 1
 495.142578125 590.408203125 l 1
 422.153320312 605.817382812 l 1
 422.153320312 624.469726562 l 1
 652.4765625 624.469726562 l 1
 652.4765625 604.1953125 l 1
 580.297851562 590.408203125 l 1
 580.297851562 34.0615234375 l 1
 652.4765625 17.03125 l 1
 652.4765625 0 l 1
 422.153320312 0 l 1
 422.153320312 18.6533203125 l 1
 495.142578125 34.0615234375 l 1
 495.142578125 304.935546875 l 1
EndSplineSet
Fore
SplineSet
363 606 m 1
 363 624 l 1
 577 624 l 1
 577 606 l 1
 522 596 488 590 459 556 c 2
 298 372 l 1
 558 34 l 1
 635 19 l 5
 635 0 l 5
 472 0 l 1
 241 307 l 1
 189 247 l 1
 189 34 l 1
 261 19 l 1
 261 0 l 1
 30 0 l 1
 30 19 l 1
 103 34 l 1
 103 590 l 1
 30 606 l 1
 30 624 l 1
 261 624 l 1
 261 606 l 1
 189 590 l 1
 189 333 l 1
 397 566 l 2
 405 574 415 585 415 593 c 3
 415 601 406 606 378 606 c 3
 370 606 363 606 363 606 c 1
EndSplineSet
Validated: 1
EndChar

StartChar: M
Encoding: 77 77 39
Width: 808
VWidth: 811
Flags: HMW
LayerCount: 2
Back
SplineSet
103.4296875 590.408203125 m 5
 30.4404296875 605.817382812 l 5
 30.4404296875 624.469726562 l 5
 200.75 624.469726562 l 5
 402.689453125 143.546875 l 5
 406.744140625 143.546875 l 5
 608.682617188 624.469726562 l 5
 778.181640625 624.469726562 l 5
 778.181640625 605.817382812 l 5
 706.002929688 590.408203125 l 5
 706.002929688 34.0615234375 l 5
 778.181640625 18.6533203125 l 5
 778.181640625 0 l 5
 547.858398438 0 l 5
 547.858398438 18.6533203125 l 5
 620.84765625 34.0615234375 l 5
 620.84765625 532.015625 l 5
 617.603515625 532.015625 l 5
 387.280273438 -8.1103515625 l 5
 365.3828125 -8.1103515625 l 5
 139.114257812 535.259765625 l 5
 135.870117188 535.259765625 l 5
 135.870117188 34.0615234375 l 5
 208.048828125 18.6533203125 l 5
 208.048828125 0 l 5
 30.4404296875 0 l 5
 30.4404296875 18.6533203125 l 5
 103.4296875 34.0615234375 l 5
 103.4296875 590.408203125 l 5
EndSplineSet
Fore
SplineSet
402 182 m 1
 588 624 l 1
 778 624 l 1
 778 606 l 1
 706 590 l 1
 706 34 l 1
 778 19 l 1
 778 0 l 1
 548 0 l 1
 548 19 l 1
 621 34 l 1
 621 532 l 1
 618 532 l 1
 387 -8 l 1
 365 -8 l 1
 139 535 l 1
 136 535 l 1
 136 34 l 1
 208 19 l 1
 208 0 l 1
 30 0 l 1
 30 19 l 1
 83 30 l 1
 83 594 l 1
 30 606 l 1
 30 624 l 1
 201 624 l 1
 386 182 l 1
 402 182 l 1
EndSplineSet
Validated: 1
EndChar

StartChar: N
Encoding: 78 78 40
Width: 664
VWidth: 811
Flags: HMW
LayerCount: 2
Back
SplineSet
560.833984375 -16.2197265625 m 1
 535.693359375 -16.2197265625 l 1
 135.870117188 540.936523438 l 1
 135.870117188 34.0615234375 l 1
 208.048828125 18.6533203125 l 1
 208.048828125 0 l 1
 30.4404296875 0 l 1
 30.4404296875 18.6533203125 l 1
 103.4296875 34.0615234375 l 1
 103.4296875 590.408203125 l 1
 30.4404296875 605.817382812 l 1
 30.4404296875 624.469726562 l 1
 194.26171875 624.469726562 l 1
 528.393554688 165.444335938 l 1
 528.393554688 590.408203125 l 1
 456.21484375 605.817382812 l 1
 456.21484375 624.469726562 l 1
 633.82421875 624.469726562 l 1
 633.82421875 605.817382812 l 1
 560.833984375 590.408203125 l 1
 560.833984375 -16.2197265625 l 1
EndSplineSet
Fore
SplineSet
561 -16 m 1
 536 -16 l 1
 136 541 l 1
 136 34 l 1
 208 19 l 1
 208 0 l 1
 30 0 l 1
 30 19 l 1
 83 30 l 1
 83 594 l 1
 30 606 l 1
 30 624 l 1
 194 624 l 1
 508 194 l 1
 508 594 l 1
 456 606 l 1
 456 624 l 1
 634 624 l 1
 634 606 l 1
 561 590 l 1
 561 -16 l 1
EndSplineSet
Validated: 1
EndChar

StartChar: T
Encoding: 84 84 41
Width: 617
VWidth: 811
Flags: HMW
LayerCount: 2
Back
SplineSet
177.987304688 18.6533203125 m 1
 267.197265625 34.0615234375 l 1
 267.197265625 592.030273438 l 1
 104.185546875 592.030273438 l 1
 72.82421875 549.885742188 47.6171875 497.7734375 29.57421875 446.049804688 c 1
 10.1103515625 446.049804688 l 1
 40.1171875 624.469726562 l 1
 576.999023438 624.469726562 l 1
 607.005859375 446.049804688 l 1
 587.541992188 446.049804688 l 1
 569.525390625 497.700195312 544.249023438 549.944335938 512.9296875 592.030273438 c 1
 352.3515625 592.030273438 l 1
 352.3515625 34.0615234375 l 1
 440.750976562 18.6533203125 l 1
 440.750976562 0 l 1
 177.987304688 0 l 1
 177.987304688 18.6533203125 l 1
EndSplineSet
Fore
SplineSet
178 19 m 1
 267 34 l 1
 267 569 l 1
 96 569 l 1
 64 527 48 498 30 446 c 1
 10 446 l 1
 40 624 l 1
 577 624 l 1
 607 446 l 1
 588 446 l 1
 570 498 553 527 521 569 c 1
 352 569 l 1
 352 34 l 1
 441 19 l 1
 441 0 l 1
 178 0 l 1
 178 19 l 1
EndSplineSet
Validated: 1
EndChar

StartChar: U
Encoding: 85 85 42
Width: 634
VWidth: 811
Flags: HMW
LayerCount: 2
Back
SplineSet
188.530273438 184.096679688 m 6
 188.530273438 132.193359375 202.1796875 93.265625 229.484375 67.3134765625 c 4
 256.788085938 41.361328125 293.41796875 28.3857421875 339.375 28.3857421875 c 4
 368.571289062 28.3857421875 394.118164062 32.576171875 416.014648438 40.9560546875 c 4
 437.912109375 49.3359375 455.078125 61.9072265625 467.513671875 78.66796875 c 4
 478.326171875 93.265625 486.166015625 113.541015625 491.032226562 139.493164062 c 4
 495.8984375 165.444335938 498.331054688 200.047851562 498.331054688 243.30078125 c 6
 498.331054688 590.409179688 l 5
 426.15234375 605.817382812 l 5
 426.15234375 624.470703125 l 5
 603.760742188 624.470703125 l 5
 603.760742188 605.817382812 l 5
 530.771484375 590.409179688 l 5
 530.771484375 209.239257812 l 6
 530.771484375 175.176757812 528.337890625 146.521484375 523.47265625 123.272460938 c 4
 518.606445312 100.0234375 510.766601562 80.5595703125 499.953125 64.880859375 c 4
 484.274414062 41.6318359375 461.025390625 23.654296875 430.20703125 10.9482421875 c 4
 399.389648438 -1.7578125 363.435546875 -8.1103515625 322.34375 -8.1103515625 c 4
 280.171875 -8.1103515625 242.866210938 -1.6220703125 210.42578125 11.353515625 c 4
 177.986328125 24.330078125 152.844726562 42.712890625 135.002929688 66.501953125 c 4
 124.190429688 80.55859375 116.215820312 97.3203125 111.079101562 116.784179688 c 4
 105.943359375 136.248046875 103.375 162.741210938 103.375 196.26171875 c 6
 103.375 590.408203125 l 5
 30.384765625 605.817382812 l 5
 30.384765625 624.469726562 l 5
 260.708984375 624.469726562 l 5
 260.708984375 605.817382812 l 5
 188.530273438 590.408203125 l 5
 188.530273438 184.096679688 l 6
EndSplineSet
Fore
SplineSet
189 184 m 2
 189 85 242 28 339 28 c 3
 473 28 489 104 489 243 c 2
 488 593 l 1
 426 606 l 1
 426 624 l 1
 604 624 l 1
 604 606 l 1
 541 593 l 1
 541 209 l 2
 541 62 467 -8 322 -8 c 3
 216 -8 133 33 111 117 c 0
 106 136 103 163 103 196 c 2
 103 590 l 1
 30 606 l 1
 30 624 l 1
 261 624 l 1
 261 606 l 1
 189 590 l 1
 189 184 l 2
EndSplineSet
Validated: 1
EndChar

StartChar: V
Encoding: 86 86 43
Width: 632
VWidth: 811
Flags: HMW
LayerCount: 2
Back
SplineSet
304.500976562 -8.1103515625 m 1
 92.830078125 556.346679688 l 2
 89.5859375 565.538085938 86.072265625 573.106445312 82.287109375 579.053710938 c 0
 78.5029296875 585.000976562 73.63671875 589.8671875 67.689453125 593.65234375 c 0
 61.7421875 597.436523438 54.1728515625 600.139648438 44.982421875 601.76171875 c 0
 35.791015625 603.383789062 24.1669921875 604.736328125 10.1103515625 605.817382812 c 1
 10.1103515625 624.469726562 l 1
 273.684570312 624.469726562 l 1
 273.684570312 605.817382812 l 1
 255.301757812 604.736328125 240.568359375 603.655273438 229.484375 602.57421875 c 0
 218.400390625 601.493164062 209.75 600.140625 203.532226562 598.518554688 c 0
 197.314453125 596.896484375 193.258789062 594.599609375 191.3671875 591.625 c 0
 189.474609375 588.651367188 188.528320312 585.001953125 188.528320312 580.676757812 c 0
 188.528320312 576.3515625 189.609375 570.944335938 191.772460938 564.45703125 c 0
 193.935546875 557.96875 196.368164062 550.939453125 199.071289062 543.37109375 c 2
 336.130859375 148.4140625 l 1
 340.185546875 148.4140625 l 1
 468.323242188 517.418945312 l 2
 471.026367188 524.98828125 473.053710938 531.881835938 474.40625 538.099609375 c 0
 475.7578125 544.317382812 476.43359375 550.129882812 476.43359375 555.536132812 c 0
 476.43359375 569.59375 470.350585938 580.40625 458.185546875 587.975585938 c 0
 446.020507812 595.544921875 424.529296875 601.4921875 393.7109375 605.817382812 c 1
 393.7109375 624.469726562 l 1
 621.602539062 624.469726562 l 1
 621.602539062 605.817382812 l 1
 599.975585938 602.573242188 582.674804688 598.788085938 569.698242188 594.462890625 c 0
 556.72265625 590.137695312 546.1796875 584.4609375 538.069335938 577.431640625 c 0
 529.958984375 570.403320312 523.471679688 562.0234375 518.60546875 552.291015625 c 0
 513.739257812 542.55859375 508.873046875 530.393554688 504.0078125 515.795898438 c 2
 318.288085938 -8.1103515625 l 1
 304.500976562 -8.1103515625 l 1
EndSplineSet
Fore
SplineSet
305 -8 m 1
 93 556 l 2
 84 581 73 597 45 602 c 0
 36 604 24 605 10 606 c 1
 10 624 l 1
 274 624 l 1
 274 606 l 1
 246 604 223 605 203 599 c 0
 192 597 189 592 189 581 c 0
 189 569 195 554 199 543 c 2
 322 191 l 1
 326 191 l 1
 454 560 l 2
 456 566 458 572 458 578 c 3
 458 593 446 606 394 606 c 1
 394 624 l 1
 622 624 l 1
 622 606 l 1
 572 599 538 588 519 552 c 0
 514 542 509 531 504 516 c 2
 318 -8 l 1
 305 -8 l 1
EndSplineSet
Validated: 1
EndChar

StartChar: W
Encoding: 87 87 44
Width: 931
VWidth: 811
Flags: HMW
LayerCount: 2
Back
SplineSet
304.502929688 -8.1103515625 m 1
 92.8291015625 556.346679688 l 2
 89.5849609375 565.538085938 86.0703125 573.106445312 82.2861328125 579.053710938 c 0
 78.5009765625 585.000976562 73.634765625 589.8671875 67.6875 593.65234375 c 0
 61.7412109375 597.436523438 54.171875 600.139648438 44.98046875 601.76171875 c 0
 35.7900390625 603.383789062 24.1650390625 604.736328125 10.1083984375 605.817382812 c 1
 10.1083984375 624.469726562 l 1
 273.68359375 624.469726562 l 1
 273.68359375 605.817382812 l 1
 254.760742188 604.1953125 239.62109375 602.708007812 228.267578125 601.356445312 c 0
 216.913085938 600.004882812 208.262695312 598.517578125 202.315429688 596.896484375 c 0
 196.368164062 595.274414062 192.583007812 593.24609375 190.9609375 590.813476562 c 0
 189.33984375 588.380859375 188.528320312 585.271484375 188.528320312 581.487304688 c 0
 188.528320312 577.162109375 189.204101562 572.56640625 190.555664062 567.700195312 c 0
 191.908203125 562.833984375 194.74609375 554.723632812 199.071289062 543.370117188 c 2
 336.130859375 148.413085938 l 1
 340.185546875 148.413085938 l 1
 439.126953125 467.135742188 l 1
 405.875976562 556.345703125 l 2
 402.6328125 565.537109375 399.118164062 573.106445312 395.333007812 579.052734375 c 0
 391.548828125 585 386.682617188 589.866210938 380.735351562 593.651367188 c 0
 374.788085938 597.436523438 367.219726562 600.139648438 358.028320312 601.760742188 c 0
 348.836914062 603.3828125 337.212890625 604.735351562 323.15625 605.81640625 c 1
 323.15625 624.46875 l 1
 586.731445312 624.46875 l 1
 586.731445312 605.81640625 l 1
 567.266601562 604.735351562 551.993164062 603.3828125 540.909179688 601.760742188 c 0
 529.825195312 600.139648438 521.4453125 598.381835938 515.768554688 596.489257812 c 0
 510.091796875 594.59765625 506.577148438 592.165039062 505.225585938 589.190429688 c 0
 503.874023438 586.216796875 503.198242188 582.836914062 503.198242188 579.052734375 c 0
 503.198242188 571.483398438 506.171875 559.588867188 512.119140625 543.368164062 c 2
 649.177734375 148.411132812 l 1
 653.233398438 148.411132812 l 1
 767.583984375 517.416015625 l 2
 772.450195312 532.555664062 774.8828125 545.53125 774.8828125 556.344726562 c 0
 774.8828125 570.401367188 769.0703125 581.080078125 757.446289062 588.37890625 c 0
 745.822265625 595.677734375 724.331054688 601.490234375 692.971679688 605.815429688 c 1
 692.971679688 624.46875 l 1
 920.86328125 624.46875 l 1
 920.86328125 605.815429688 l 1
 899.236328125 602.571289062 881.799804688 598.786132812 868.553710938 594.4609375 c 0
 855.307617188 590.13671875 844.62890625 584.594726562 836.518554688 577.836914062 c 0
 828.409179688 571.079101562 822.056640625 562.698242188 817.4609375 552.696289062 c 0
 812.864257812 542.694335938 808.133789062 530.393554688 803.267578125 515.795898438 c 2
 636.202148438 -8.1103515625 l 1
 617.548828125 -8.1103515625 l 1
 458.592773438 416.04296875 l 1
 323.15625 -8.1103515625 l 1
 304.502929688 -8.1103515625 l 1
EndSplineSet
Fore
SplineSet
305 -8 m 1
 93 556 l 2
 84 581 73 597 45 602 c 0
 36 604 24 605 10 606 c 1
 10 624 l 1
 274 624 l 1
 274 606 l 1
 245 604 222 603 202 597 c 0
 192 595 189 591 189 581 c 0
 189 566 193 560 199 543 c 2
 322 188 l 1
 326 188 l 1
 430 491 l 1
 406 556 l 2
 397 581 386 597 358 602 c 0
 349 604 337 605 323 606 c 1
 323 624 l 1
 587 624 l 1
 587 606 l 1
 556 604 503 606 503 579 c 3
 503 572 506 559 512 543 c 2
 634 193 l 1
 638 193 l 1
 752 562 l 2
 754 567 755 571 755 574 c 3
 755 598 723 602 693 606 c 1
 693 624 l 1
 921 624 l 1
 921 606 l 1
 872 599 834 590 817 553 c 0
 812 543 808 531 803 516 c 2
 636 -8 l 1
 618 -8 l 1
 463 402 l 1
 323 -8 l 1
 305 -8 l 1
EndSplineSet
Validated: 1
EndChar

StartChar: Y
Encoding: 89 89 45
Width: 615
VWidth: 811
Flags: HMW
LayerCount: 2
Back
SplineSet
186.908203125 18.6533203125 m 1
 259.8984375 34.0615234375 l 1
 259.8984375 265.196289062 l 1
 95.265625 556.344726562 l 2
 90.3994140625 564.99609375 85.939453125 572.16015625 81.884765625 577.836914062 c 0
 77.8291015625 583.513671875 72.828125 588.244140625 66.880859375 592.029296875 c 0
 60.93359375 595.814453125 53.4990234375 598.788085938 44.578125 600.951171875 c 0
 35.6572265625 603.114257812 24.16796875 604.736328125 10.1103515625 605.817382812 c 1
 10.1103515625 624.469726562 l 1
 276.119140625 624.469726562 l 1
 276.119140625 605.817382812 l 1
 258.276367188 604.736328125 243.814453125 603.383789062 232.73046875 601.76171875 c 0
 221.646484375 600.139648438 212.995117188 598.112304688 206.77734375 595.6796875 c 0
 200.559570312 593.24609375 196.369140625 590.272460938 194.206054688 586.758789062 c 0
 192.04296875 583.244140625 190.961914062 579.594726562 190.961914062 575.809570312 c 0
 190.961914062 567.159179688 194.4765625 556.345703125 201.504882812 543.370117188 c 2
 335.3203125 304.125 l 1
 338.564453125 304.125 l 1
 451.29296875 517.41796875 l 2
 457.78125 530.393554688 461.025390625 542.018554688 461.025390625 552.291015625 c 0
 461.025390625 583.650390625 432.91015625 601.4921875 376.681640625 605.817382812 c 1
 376.681640625 624.469726562 l 1
 605.3828125 624.469726562 l 1
 605.3828125 605.817382812 l 1
 583.755859375 602.573242188 566.860351562 598.517578125 554.6953125 593.65234375 c 0
 542.530273438 588.786132812 532.663085938 582.838867188 525.09375 575.809570312 c 0
 517.525390625 568.78125 511.172851562 560.401367188 506.036132812 550.668945312 c 0
 500.900390625 540.936523438 494.818359375 529.3125 487.7890625 515.795898438 c 2
 345.052734375 250.598632812 l 1
 345.052734375 34.0615234375 l 1
 417.232421875 18.6533203125 l 1
 417.232421875 0 l 1
 186.908203125 0 l 1
 186.908203125 18.6533203125 l 1
EndSplineSet
Fore
SplineSet
187 19 m 5
 260 34 l 5
 260 265 l 5
 95 556 l 6
 82 579 73 595 45 601 c 4
 36 603 24 605 10 606 c 5
 10 624 l 5
 276 624 l 5
 276 606 l 5
 248 604 225 602 206 595 c 4
 196 591 191 587 191 576 c 4
 191 567 195 556 202 543 c 6
 325 323 l 5
 328 323 l 5
 441 536 l 5
 447 547 450 557 450 566 c 4
 450 588 430 602 377 606 c 5
 377 624 l 5
 605 624 l 5
 605 606 l 5
 531 595 516 570 488 516 c 6
 345 251 l 5
 345 34 l 5
 417 19 l 5
 417 0 l 5
 187 0 l 5
 187 19 l 5
EndSplineSet
Validated: 1
EndChar

StartChar: P
Encoding: 80 80 46
Width: 519
VWidth: 811
Flags: HMW
LayerCount: 2
Back
SplineSet
30.4404296875 624.469726562 m 1
 282.66015625 624.470703125 l 2
 314.559570312 624.470703125 343.754882812 620.416015625 370.248046875 612.305664062 c 0
 396.741210938 604.1953125 419.584960938 592.30078125 438.778320312 576.622070312 c 0
 457.97265625 560.942382812 472.840820312 541.478515625 483.383789062 518.229492188 c 0
 493.926757812 494.98046875 499.198242188 468.48828125 499.198242188 438.750976562 c 0
 499.198242188 411.176757812 493.926757812 386.711914062 483.383789062 365.35546875 c 0
 472.840820312 343.999023438 457.701171875 326.022460938 437.967773438 311.423828125 c 0
 418.233398438 296.826171875 394.173828125 285.877929688 365.788085938 278.578125 c 0
 337.403320312 271.279296875 305.638671875 267.629882812 270.49609375 267.629882812 c 2
 184.530273438 267.629882812 l 1
 184.530273438 34.0615234375 l 1
 276.984375 18.6533203125 l 1
 276.984375 0 l 1
 30.4404296875 0 l 1
 30.4404296875 18.6533203125 l 1
 99.375 34.0615234375 l 1
 99.375 590.408203125 l 1
 30.4404296875 605.817382812 l 1
 30.4404296875 624.469726562 l 1
184.529296875 299.259765625 m 1
 245.35546875 299.262695312 l 2
 279.416992188 299.262695312 306.315429688 303.047851562 326.049804688 310.6171875 c 0
 345.783203125 318.185546875 361.59765625 328.999023438 373.493164062 343.056640625 c 0
 385.927734375 357.11328125 394.443359375 373.198242188 399.0390625 391.309570312 c 0
 403.635742188 409.421875 405.932617188 427.939453125 405.932617188 446.862304688 c 0
 405.932617188 482.005859375 399.4453125 511.06640625 386.46875 534.043945312 c 0
 373.493164062 557.022460938 355.110351562 573.106445312 331.321289062 582.297851562 c 0
 322.129882812 586.083007812 311.9921875 588.651367188 300.908203125 590.002929688 c 0
 289.82421875 591.35546875 275.90234375 592.03125 259.141601562 592.03125 c 2
 184.529296875 592.03125 l 1
 184.529296875 299.259765625 l 1
EndSplineSet
Fore
SplineSet
30 624 m 1
 283 624 l 2
 382 624 453 586 484 518 c 0
 495 494 499 469 499 439 c 3
 499 347 440 298 365 279 c 0
 337 272 305 268 270 268 c 2
 185 268 l 1
 185 34 l 1
 277 19 l 1
 277 0 l 1
 30 0 l 1
 30 19 l 1
 99 34 l 1
 99 590 l 1
 30 606 l 1
 30 624 l 1
185 322 m 1
 245 322 l 2
 351 322 406 365 406 447 c 3
 406 546 359 577 259 577 c 2
 185 577 l 1
 185 322 l 1
EndSplineSet
Validated: 1
EndChar

StartChar: R
Encoding: 82 82 47
Width: 577
VWidth: 811
Flags: HMW
LayerCount: 2
Back
SplineSet
30.4404296875 624.469726562 m 1
 282.661132812 624.469726562 l 2
 381.602539062 624.469726562 452.970703125 586.352539062 483.7890625 518.228515625 c 0
 494.33203125 494.709960938 499.198242188 468.7578125 499.198242188 438.750976562 c 3
 499.198242188 346.296875 440.805664062 298.448242188 365.3828125 278.984375 c 0
 336.998046875 271.684570312 305.369140625 267.629882812 270.49609375 267.629882812 c 2
 184.530273438 267.629882812 l 1
 184.530273438 34.0615234375 l 1
 276.984375 18.6533203125 l 1
 276.984375 0 l 1
 30.4404296875 0 l 1
 30.4404296875 18.6533203125 l 1
 99.375 34.0615234375 l 1
 99.375 590.408203125 l 1
 30.4404296875 605.817382812 l 1
 30.4404296875 624.469726562 l 1
184.530273438 321.966796875 m 1
 245.35546875 321.966796875 l 2
 351.595703125 321.966796875 405.932617188 364.950195312 405.932617188 446.861328125 c 3
 405.932617188 545.802734375 358.89453125 576.62109375 259.141601562 576.62109375 c 2
 184.530273438 576.62109375 l 1
 184.530273438 321.966796875 l 1
EndSplineSet
Fore
SplineSet
491 447 m 7
 491 357 442 298 365 279 c 5
 469 34 l 5
 562 19 l 5
 562 0 l 5
 386 0 l 5
 273 268 l 5
 185 268 l 5
 185 34 l 5
 277 19 l 5
 277 0 l 5
 30 0 l 5
 30 19 l 5
 99 34 l 5
 99 590 l 5
 30 606 l 5
 30 624 l 5
 275 624 l 6
 372 624 443 589 475 523 c 4
 486 501 491 475 491 447 c 7
237 322 m 6
 338 322 398 358 398 455 c 7
 398 551 348 577 251 577 c 6
 185 577 l 5
 185 322 l 5
 237 322 l 6
EndSplineSet
Validated: 1
EndChar

StartChar: S
Encoding: 83 83 48
Width: 446
VWidth: 811
Flags: HMW
LayerCount: 2
Back
SplineSet
474.868164062 472.813476562 m 7
 474.868164062 390.90234375 414.853515625 349.541015625 341.052734375 334.131835938 c 5
 341.052734375 330.887695312 l 5
 414.04296875 322.778320312 467.569335938 284.661132812 491.087890625 227.080078125 c 4
 498.38671875 208.426757812 502.442382812 187.340820312 502.442382812 165.444335938 c 7
 502.442382812 78.6669921875 451.348632812 26.7626953125 379.981445312 9.732421875 c 4
 353.217773438 3.244140625 317.534179688 0 272.928710938 0 c 6
 19.0859375 0 l 5
 19.0859375 18.6533203125 l 5
 88.021484375 34.0615234375 l 5
 88.021484375 590.408203125 l 5
 19.0859375 605.817382812 l 5
 19.0859375 624.469726562 l 5
 259.141601562 624.469726562 l 6
 360.516601562 624.469726562 424.5859375 605.005859375 458.6484375 540.125976562 c 4
 469.19140625 519.850585938 474.868164062 497.142578125 474.868164062 472.813476562 c 7
173.17578125 360.89453125 m 5
 223.458007812 360.89453125 l 6
 328.887695312 360.89453125 384.036132812 366.572265625 384.036132812 475.24609375 c 7
 384.036132812 554.723632812 324.022460938 576.62109375 242.921875 576.62109375 c 6
 173.17578125 576.62109375 l 5
 173.17578125 360.89453125 l 5
408.366210938 172.743164062 m 7
 408.366210938 277.362304688 349.973632812 304.935546875 242.111328125 304.935546875 c 6
 173.17578125 304.935546875 l 5
 173.17578125 104.619140625 l 6
 173.17578125 61.6357421875 196.6953125 55.958984375 244.543945312 55.958984375 c 7
 351.595703125 55.958984375 408.366210938 68.9345703125 408.366210938 172.743164062 c 7
EndSplineSet
Fore
SplineSet
221 49 m 4
 290 49 342 83 342 150 c 7
 342 190 321 200 296 221 c 4
 268 245 228 264 192 283 c 4
 137 312 84 342 56 399 c 4
 47 417 43 437 43 461 c 7
 43 543 93 596 153 620 c 4
 175 629 198 633 224 633 c 7
 280 633 315 612 347 582 c 5
 373 624 l 5
 389 624 l 5
 396 446 l 5
 375 446 l 5
 362 498 344 522 320 546 c 4
 296 570 265 582 228 582 c 7
 168 582 129 549 129 490 c 7
 129 447 150 435 174 414 c 4
 202 390 239 373 273 354 c 4
 327 325 377 295 404 239 c 4
 412 221 416 200 416 176 c 7
 416 119 392 74 361 45 c 4
 329 16 281 -7 223 -7 c 4
 168 -7 133 9 94 33 c 5
 61 0 l 5
 45 0 l 5
 30 208 l 5
 51 212 l 5
 67 146 88 121 115 92 c 4
 142 63 176 49 221 49 c 4
EndSplineSet
Validated: 1
EndChar

StartChar: asciitilde
Encoding: 126 126 49
Width: 478
VWidth: 811
Flags: HMW
LayerCount: 2
Fore
SplineSet
144 224 m 3
 108 224 97 208 89 181 c 1
 65 181 l 1
 65 226 85 261 114 280 c 0
 126 287 142 291 161 291 c 3
 228 291 267 249 334 249 c 3
 370 249 381 264 389 291 c 1
 414 291 l 1
 414 245 394 211 364 192 c 0
 352 185 337 181 318 181 c 3
 286 181 258 194 232 203 c 0
 207 212 176 224 144 224 c 3
EndSplineSet
Validated: 1
EndChar

StartChar: bar
Encoding: 124 124 50
Width: 218
VWidth: 811
Flags: HMW
LayerCount: 2
Fore
SplineSet
81 -138 m 5
 81 664 l 5
 138 664 l 5
 138 -138 l 5
 81 -138 l 5
EndSplineSet
Validated: 1
EndChar

StartChar: braceleft
Encoding: 123 123 51
Width: 266
VWidth: 811
Flags: HMW
LayerCount: 2
Fore
SplineSet
151 -53 m 3
 151 -99 161 -127 204 -127 c 3
 215 -127 227 -125 238 -122 c 1
 242 -146 l 1
 223 -153 209 -157 185 -157 c 3
 113 -157 81 -129 81 -57 c 3
 81 17 102 82 102 157 c 3
 102 225 88 260 24 260 c 1
 24 278 l 1
 84 278 102 312 102 375 c 3
 102 427 90 479 84 526 c 0
 82 541 81 557 81 569 c 3
 81 637 122 672 191 672 c 3
 212 672 227 667 242 661 c 1
 238 640 l 1
 223 642 218 644 204 644 c 3
 165 644 151 608 151 567 c 3
 151 539 157 506 161 478 c 0
 165 447 171 409 171 376 c 7
 171 320 152 284 113 269 c 1
 113 266 l 1
 154 250 171 222 171 164 c 3
 171 107 160 47 154 -7 c 0
 152 -26 151 -41 151 -53 c 3
EndSplineSet
Validated: 1
EndChar

StartChar: braceright
Encoding: 125 125 52
Width: 266
VWidth: 811
Flags: HMW
LayerCount: 2
Fore
SplineSet
186 -57 m 7
 186 -129 154 -157 82 -157 c 7
 58 -157 43 -153 24 -146 c 5
 29 -122 l 5
 40 -125 50 -127 62 -127 c 7
 105 -127 116 -99 116 -53 c 7
 116 -22 109 18 105 50 c 4
 101 85 96 128 96 164 c 7
 96 222 113 250 154 266 c 5
 154 269 l 5
 115 284 96 320 96 376 c 7
 96 427 107 480 113 526 c 4
 115 541 116 556 116 567 c 7
 116 608 101 644 62 644 c 7
 48 644 44 642 29 640 c 5
 24 661 l 5
 39 667 55 672 76 672 c 7
 145 672 186 637 186 569 c 7
 186 503 165 442 165 375 c 7
 165 312 182 278 242 278 c 5
 242 260 l 5
 178 260 165 225 165 157 c 7
 165 99 176 44 182 -9 c 4
 184 -26 186 -42 186 -57 c 7
EndSplineSet
Validated: 1
EndChar

StartChar: Z
Encoding: 90 90 53
Width: 548
VWidth: 811
Flags: HMW
LayerCount: 2
Back
SplineSet
505.442382812 624.469726562 m 5
 505.442382812 602.572265625 l 5
 132.381835938 32.439453125 l 5
 403.255859375 32.439453125 l 5
 412.98828125 47.037109375 l 6
 431.911132812 76.2333984375 447.861328125 104.482421875 460.836914062 131.787109375 c 4
 473.813476562 159.090820312 484.0859375 181.93359375 491.655273438 200.317382812 c 5
 512.741210938 197.883789062 l 5
 470.569335938 0 l 5
 25.330078125 0 l 5
 25.330078125 22.7080078125 l 5
 396.767578125 592.030273438 l 5
 138.870117188 592.030273438 l 5
 129.137695312 574.188476562 l 6
 113.458984375 544.9921875 100.888671875 519.581054688 91.4267578125 497.954101562 c 4
 81.96484375 476.327148438 75.0712890625 459.295898438 70.74609375 446.861328125 c 5
 49.66015625 447.671875 l 5
 83.7216796875 624.469726562 l 5
 505.442382812 624.469726562 l 5
EndSplineSet
Fore
SplineSet
505 624 m 1
 505 603 l 1
 148 56 l 1
 419 56 l 1
 428 71 l 2
 449 106 472 151 492 200 c 1
 513 198 l 1
 471 0 l 1
 25 0 l 1
 25 23 l 1
 381 569 l 1
 126 569 l 1
 113 543 l 2
 94 506 84 484 71 447 c 1
 50 448 l 1
 84 624 l 1
 505 624 l 1
EndSplineSet
Validated: 1
EndChar

StartChar: X
Encoding: 88 88 54
Width: 668
VWidth: 811
Flags: HMW
LayerCount: 2
Back
SplineSet
10.1103515625 16.2197265625 m 5
 25.7890625 18.3828125 39.7138671875 20.814453125 51.87890625 23.517578125 c 4
 64.0439453125 26.220703125 74.9921875 29.734375 84.724609375 34.0595703125 c 4
 94.4560546875 38.384765625 103.107421875 43.7919921875 110.676757812 50.279296875 c 4
 118.245117188 56.767578125 125.544921875 64.607421875 132.573242188 73.798828125 c 6
 304.505859375 305.744140625 l 5
 130.951171875 570.94140625 l 6
 127.70703125 576.348632812 123.922851562 580.80859375 119.59765625 584.323242188 c 4
 115.272460938 587.836914062 109.73046875 590.9453125 102.97265625 593.6484375 c 4
 96.21484375 596.3515625 87.69921875 598.649414062 77.42578125 600.541992188 c 4
 67.1533203125 602.43359375 53.9072265625 604.19140625 37.6875 605.813476562 c 5
 37.6875 624.465820312 l 5
 282.609375 624.465820312 l 5
 282.609375 605.813476562 l 5
 258.8203125 604.732421875 243.546875 602.83984375 236.788085938 600.13671875 c 4
 230.030273438 597.43359375 226.651367188 593.919921875 226.651367188 589.594726562 c 4
 226.651367188 585.809570312 227.326171875 581.889648438 228.678710938 577.834960938 c 4
 230.030273438 573.780273438 232.869140625 568.508789062 237.194335938 562.020507812 c 6
 362.899414062 369.813476562 l 5
 493.469726562 547.422851562 l 6
 502.12109375 559.317382812 506.446289062 569.049804688 506.446289062 576.618164062 c 4
 506.446289062 584.1875 501.715820312 590.270507812 492.25390625 594.866210938 c 4
 482.791992188 599.461914062 467.517578125 603.111328125 446.431640625 605.814453125 c 5
 446.431640625 624.467773438 l 5
 647.559570312 624.467773438 l 5
 647.559570312 605.814453125 l 5
 632.961914062 603.111328125 620.391601562 600.408203125 609.848632812 597.705078125 c 4
 599.305664062 595.001953125 589.84375 591.623046875 581.463867188 587.568359375 c 4
 573.083007812 583.512695312 565.37890625 578.51171875 558.349609375 572.564453125 c 4
 551.321289062 566.6171875 544.022460938 559.047851562 536.453125 549.857421875 c 6
 381.551757812 341.430664062 l 5
 570.514648438 52.7138671875 l 6
 574.299804688 46.767578125 578.760742188 41.765625 583.896484375 37.7109375 c 4
 589.032226562 33.6552734375 594.979492188 30.2763671875 601.737304688 27.5732421875 c 4
 608.49609375 24.8701171875 616.470703125 22.8427734375 625.661132812 21.490234375 c 4
 634.852539062 20.138671875 645.665039062 18.921875 658.100585938 17.8408203125 c 5
 658.100585938 -0.0009765625 l 5
 414.80078125 -0.0009765625 l 5
 414.80078125 17.8408203125 l 5
 440.211914062 20.00390625 457.107421875 22.1669921875 465.487304688 24.330078125 c 4
 473.8671875 26.4931640625 478.057617188 29.7373046875 478.057617188 34.0615234375 c 4
 478.057617188 36.7646484375 477.111328125 40.14453125 475.219726562 44.19921875 c 4
 473.327148438 48.2548828125 469.948242188 54.0673828125 465.08203125 61.6357421875 c 6
 324.778320312 274.928710938 l 5
 175.5546875 74.6123046875 l 6
 166.36328125 62.1767578125 161.767578125 51.6337890625 161.767578125 42.9833984375 c 4
 161.767578125 35.9541015625 167.174804688 30.412109375 177.987304688 26.357421875 c 4
 188.80078125 22.302734375 206.1015625 18.9228515625 229.890625 16.2197265625 c 5
 229.890625 0 l 5
 10.1103515625 0 l 5
 10.1103515625 16.2197265625 l 5
EndSplineSet
Fore
SplineSet
446 606 m 1
 446 624 l 1
 648 624 l 1
 648 606 l 1
 611 599 582 592 558 573 c 0
 551 567 543 559 536 550 c 2
 382 341 l 1
 571 53 l 2
 588 26 617 21 658 18 c 1
 658 0 l 1
 415 0 l 1
 415 18 l 1
 440 20 457 22 465 24 c 0
 473 26 478 30 478 34 c 0
 478 45 471 52 465 62 c 2
 325 275 l 1
 176 75 l 2
 167 63 162 52 162 43 c 3
 162 36 167 30 178 26 c 0
 189 22 206 18 230 16 c 1
 230 0 l 1
 10 0 l 1
 10 16 l 1
 59 22 68 22 120 92 c 2
 292 324 l 1
 131 571 l 1
 115 598 79 602 38 606 c 1
 38 624 l 1
 283 624 l 1
 283 606 l 1
 259 605 243 602 237 600 c 0
 231 598 227 594 227 590 c 0
 227 578 231 572 237 562 c 2
 351 388 l 1
 481 566 l 2
 487 575 491 582 491 587 c 3
 491 599 474 603 446 606 c 1
EndSplineSet
Validated: 1
EndChar

StartChar: equal
Encoding: 61 61 55
Width: 459
VWidth: 811
Flags: HMW
LayerCount: 2
Fore
SplineSet
63 325 m 5
 63 361 l 5
 396 361 l 5
 396 325 l 5
 63 325 l 5
63 195 m 5
 63 230 l 5
 396 230 l 5
 396 195 l 5
 63 195 l 5
EndSplineSet
Validated: 1
EndChar

StartChar: less
Encoding: 60 60 56
Width: 420
VWidth: 811
Flags: HMW
LayerCount: 2
Fore
SplineSet
32 251 m 1
 32 293 l 1
 364 451 l 1
 364 401 l 1
 91 277 l 1
 91 273 l 1
 364 147 l 1
 364 94 l 1
 32 251 l 1
EndSplineSet
Validated: 1
EndChar

StartChar: greater
Encoding: 62 62 57
Width: 420
VWidth: 811
Flags: HMW
LayerCount: 2
Fore
SplineSet
57 98 m 5
 57 147 l 5
 330 273 l 5
 330 277 l 5
 57 401 l 5
 57 455 l 5
 388 297 l 5
 388 255 l 5
 57 98 l 5
EndSplineSet
Validated: 1
EndChar

StartChar: at
Encoding: 64 64 58
Width: 708
VWidth: 811
Flags: HMW
LayerCount: 2
Fore
SplineSet
358 -84 m 0
 420 -84 464 -74 501 -52 c 1
 510 -75 l 1
 456 -102 398 -116 337 -116 c 0
 202 -116 113 -58 69 36 c 0
 53 72 45 115 45 165 c 0
 45 370 184 519 388 519 c 0
 515 519 601 455 637 364 c 0
 649 333 656 301 656 266 c 0
 656 197 632 139 601 98 c 0
 573 61 529 25 469 25 c 0
 422 25 385 49 385 92 c 0
 385 102 384 106 389 111 c 1
 386 112 l 1
 366 84 344 64 323 53 c 0
 302 42 281 36 261 36 c 0
 205 36 178 76 178 132 c 0
 178 196 210 256 242 294 c 0
 273 330 321 373 381 373 c 0
 413 373 432 360 444 341 c 1
 448 341 l 1
 457 373 l 1
 521 373 l 1
 456 138 l 2
 452 127 448 111 448 97 c 0
 448 73 460 66 482 66 c 0
 524 66 556 94 575 122 c 0
 599 156 616 206 616 264 c 0
 616 377 553 444 467 470 c 0
 439 479 410 483 380 483 c 0
 283 483 213 439 167 385 c 0
 122 332 90 256 90 164 c 0
 90 96 108 39 142 -2 c 0
 186 -55 257 -84 358 -84 c 0
249 134 m 0
 249 102 255 80 283 80 c 0
 300 80 317 87 335 102 c 0
 367 129 392 173 409 221 c 0
 417 244 421 266 421 290 c 0
 421 318 413 338 385 338 c 0
 370 338 353 332 337 320 c 0
 303 295 276 254 261 208 c 0
 253 184 249 159 249 134 c 0
EndSplineSet
Validated: 1
EndChar

StartChar: colon
Encoding: 58 58 59
Width: 230
VWidth: 811
Flags: HMW
LayerCount: 2
Fore
SplineSet
114 270 m 3
 82 270 59 293 59 325 c 3
 59 357 81 382 114 382 c 3
 147 382 171 358 171 325 c 3
 171 293 146 270 114 270 c 3
114 -8 m 3
 82 -8 59 15 59 47 c 3
 59 79 81 104 114 104 c 3
 147 104 171 80 171 47 c 3
 171 15 146 -8 114 -8 c 3
EndSplineSet
Validated: 1
EndChar

StartChar: semicolon
Encoding: 59 59 60
Width: 231
VWidth: 811
Flags: HMW
LayerCount: 2
Fore
SplineSet
115 270 m 3
 83 270 60 293 60 325 c 3
 60 357 82 382 115 382 c 3
 148 382 172 358 172 325 c 3
 172 293 147 270 115 270 c 3
114 104 m 3
 153 104 173 66 173 24 c 3
 173 -44 132 -90 87 -122 c 1
 71 -99 l 1
 86 -88 98 -75 107 -62 c 0
 116 -49 121 -38 121 -29 c 3
 121 -11 102 -3 90 4 c 0
 75 13 59 24 59 49 c 3
 59 80 83 104 114 104 c 3
EndSplineSet
Validated: 1
EndChar

StartChar: Q
Encoding: 81 81 61
Width: 665
VWidth: 811
Flags: HMW
LayerCount: 2
Back
SplineSet
318.998046875 632.580078125 m 0
 361.169921875 632.580078125 400.098632812 624.47265625 435.783203125 608.251953125 c 0
 471.466796875 592.032226562 502.5546875 569.594726562 529.047851562 540.939453125 c 0
 555.541015625 512.284179688 576.221679688 478.357421875 591.088867188 439.159179688 c 0
 605.95703125 399.961914062 613.391601562 357.654296875 613.391601562 312.23828125 c 0
 613.391601562 271.688476562 607.309570312 233.571289062 595.14453125 197.88671875 c 0
 582.979492188 162.203125 565.8125 130.57421875 543.645507812 103 c 0
 521.478515625 75.42578125 494.8515625 53.1240234375 463.762695312 36.0927734375 c 0
 432.674804688 19.0615234375 398.20703125 8.923828125 360.360351562 5.6796875 c 1
 360.360351562 2.4365234375 l 1
 373.877929688 -0.8076171875 387.39453125 -5.5380859375 400.911132812 -11.755859375 c 0
 414.428710938 -17.974609375 428.21484375 -24.3271484375 442.272460938 -30.814453125 c 0
 456.329101562 -37.302734375 470.927734375 -42.8447265625 486.06640625 -47.4404296875 c 0
 501.205078125 -52.0361328125 517.155273438 -54.333984375 533.916015625 -54.333984375 c 0
 552.298828125 -54.333984375 567.438476562 -50.8193359375 579.333007812 -43.791015625 c 0
 591.227539062 -36.76171875 602.58203125 -25.94921875 613.39453125 -11.3505859375 c 1
 635.291992188 -19.4609375 l 1
 618.53125 -57.84765625 597.309570312 -86.3681640625 571.627929688 -105.021484375 c 0
 545.9453125 -123.674804688 519.046875 -133.000976562 490.932617188 -133.000976562 c 0
 474.171875 -133.000976562 459.16796875 -129.892578125 445.921875 -123.674804688 c 0
 432.67578125 -117.456054688 420.375 -109.887695312 409.021484375 -100.966796875 c 0
 397.666992188 -92.044921875 386.71875 -82.177734375 376.17578125 -71.365234375 c 0
 365.6328125 -60.5517578125 354.819335938 -50.6845703125 343.736328125 -41.763671875 c 0
 332.65234375 -32.8427734375 320.756835938 -25.2734375 308.05078125 -19.0556640625 c 0
 295.344726562 -12.8369140625 281.15234375 -9.728515625 265.473632812 -9.728515625 c 0
 248.172851562 -9.728515625 235.466796875 -13.2431640625 227.356445312 -20.271484375 c 0
 219.247070312 -27.30078125 215.19140625 -35.9521484375 215.19140625 -46.224609375 c 0
 215.19140625 -51.0908203125 215.8671875 -55.009765625 217.21875 -57.984375 c 0
 218.571289062 -60.9580078125 220.193359375 -63.931640625 222.084960938 -66.90625 c 0
 223.977539062 -69.8798828125 225.599609375 -73.1240234375 226.951171875 -76.6376953125 c 0
 228.302734375 -80.15234375 228.978515625 -84.3427734375 228.978515625 -89.2080078125 c 0
 228.978515625 -101.103515625 225.05859375 -110.834960938 217.21875 -118.404296875 c 0
 209.37890625 -125.973632812 199.51171875 -129.758789062 187.6171875 -129.758789062 c 0
 175.181640625 -129.758789062 165.314453125 -125.703125 158.015625 -117.59375 c 0
 150.715820312 -109.483398438 147.06640625 -98.669921875 147.06640625 -85.1533203125 c 0
 147.06640625 -65.689453125 155.041015625 -47.5771484375 170.991210938 -30.81640625 c 0
 186.94140625 -14.0556640625 208.703125 -0.2685546875 236.276367188 10.544921875 c 1
 236.276367188 13.7890625 l 1
 204.377929688 20.8173828125 175.452148438 33.3876953125 149.5 51.5 c 0
 123.547851562 69.6123046875 101.380859375 91.779296875 82.998046875 118.000976562 c 0
 64.615234375 144.223632812 50.287109375 173.959960938 40.013671875 207.2109375 c 0
 29.7412109375 240.461914062 24.60546875 275.470703125 24.60546875 312.235351562 c 0
 24.60546875 357.651367188 32.0390625 399.958984375 46.9072265625 439.157226562 c 0
 61.775390625 478.35546875 82.4560546875 512.282226562 108.94921875 540.936523438 c 0
 135.442382812 569.591796875 166.530273438 592.030273438 202.213867188 608.25 c 0
 237.8984375 624.469726562 276.826171875 632.580078125 318.998046875 632.580078125 c 0
126.791992188 313.048828125 m 0
 126.791992188 268.713867188 131.115234375 228.975585938 139.766601562 193.83203125 c 0
 148.416992188 158.689453125 161.123046875 128.817382812 177.883789062 104.217773438 c 0
 194.64453125 79.6171875 214.784179688 60.8291015625 238.303710938 47.8525390625 c 0
 261.822265625 34.876953125 288.720703125 28.388671875 318.998046875 28.388671875 c 0
 348.735351562 28.388671875 375.498046875 34.876953125 399.287109375 47.8525390625 c 0
 423.076171875 60.8291015625 443.350585938 79.6171875 460.112304688 104.217773438 c 0
 476.873046875 128.817382812 489.579101562 158.689453125 498.229492188 193.83203125 c 0
 506.880859375 228.975585938 511.206054688 268.984375 511.206054688 313.859375 c 0
 511.206054688 403.069335938 494.4453125 472.41015625 460.923828125 521.880859375 c 0
 427.40234375 571.3515625 380.364257812 596.086914062 319.809570312 596.086914062 c 0
 289.533203125 596.086914062 262.5 589.734375 238.7109375 577.029296875 c 0
 214.921875 564.323242188 194.646484375 545.805664062 177.885742188 521.475585938 c 0
 161.125 497.145507812 148.418945312 467.408203125 139.767578125 432.265625 c 0
 131.1171875 397.122070312 126.791992188 357.383789062 126.791992188 313.048828125 c 0
EndSplineSet
Fore
SplineSet
127 313 m 7
 127 165 175 43 319 43 c 7
 463 43 511 167 511 315 c 7
 511 463 463 577 319 577 c 7
 174 577 127 461 127 313 c 7
319 633 m 7
 499 633 613 493 613 312 c 7
 613 212 579 125 517 67 c 5
 523 52 556 19 635 -20 c 5
 608 -68 l 5
 452 -45 448 -8 319 -8 c 7
 139 -8 25 131 25 312 c 7
 25 493 139 633 319 633 c 7
EndSplineSet
Validated: 1
EndChar

StartChar: plus
Encoding: 43 43 62
Width: 405
VWidth: 811
Flags: HMW
LayerCount: 2
Fore
SplineSet
182 255 m 5
 36 255 l 5
 36 295 l 5
 182 295 l 5
 182 441 l 5
 224 441 l 5
 224 295 l 5
 369 295 l 5
 369 255 l 5
 224 255 l 5
 224 109 l 5
 182 109 l 5
 182 255 l 5
EndSplineSet
Validated: 1
EndChar

StartChar: comma
Encoding: 44 44 63
Width: 209
VWidth: 811
Flags: HMW
LayerCount: 2
Fore
SplineSet
103 104 m 3
 139 104 161 71 161 35 c 3
 161 -41 124 -86 75 -122 c 1
 59 -99 l 1
 74 -88 87 -75 96 -62 c 0
 105 -49 109 -38 109 -29 c 3
 109 -9 93 -1 79 6 c 0
 63 15 49 24 49 49 c 3
 49 80 72 104 103 104 c 3
EndSplineSet
Validated: 1
EndChar

StartChar: quotesingle
Encoding: 39 39 64
Width: 176
VWidth: 811
Flags: HMW
LayerCount: 2
Fore
SplineSet
88 673 m 3
 116 673 131 655 131 628 c 3
 131 599 123 569 117 540 c 0
 110 501 102 456 101 410 c 1
 76 410 l 1
 74 477 60 534 49 588 c 0
 46 603 45 614 45 624 c 3
 45 653 60 673 88 673 c 3
EndSplineSet
Validated: 1
EndChar

StartChar: quotedbl
Encoding: 34 34 65
Width: 300
VWidth: 811
Flags: HMW
LayerCount: 2
Fore
SplineSet
88 673 m 3
 116 673 131 655 131 628 c 3
 131 599 123 569 117 540 c 0
 110 501 102 456 101 410 c 1
 76 410 l 1
 74 477 60 534 49 588 c 0
 46 603 45 614 45 624 c 3
 45 653 60 673 88 673 c 3
212 673 m 3
 240 673 255 655 255 628 c 3
 255 599 246 568 240 539 c 0
 233 500 225 456 224 410 c 1
 200 410 l 1
 198 477 184 534 173 588 c 0
 170 603 169 614 169 624 c 3
 169 653 184 673 212 673 c 3
EndSplineSet
Validated: 1
EndChar

StartChar: numbersign
Encoding: 35 35 66
Width: 546
VWidth: 811
Flags: HMW
LayerCount: 2
Fore
SplineSet
420 564 m 1
 398 426 l 1
 514 426 l 1
 504 380 l 1
 391 380 l 1
 371 258 l 1
 485 258 l 1
 474 212 l 1
 364 212 l 1
 343 75 l 1
 297 75 l 1
 318 212 l 1
 197 212 l 1
 176 75 l 1
 129 75 l 1
 150 212 l 1
 32 212 l 1
 44 258 l 1
 157 258 l 1
 177 380 l 1
 63 380 l 1
 73 426 l 1
 184 426 l 1
 206 564 l 1
 253 564 l 1
 231 426 l 1
 352 426 l 1
 374 564 l 1
 420 564 l 1
204 258 m 1
 325 258 l 1
 345 380 l 1
 224 380 l 1
 204 258 l 1
EndSplineSet
Validated: 1
EndChar

StartChar: dollar
Encoding: 36 36 67
Width: 433
VWidth: 811
Flags: HMW
LayerCount: 2
Back
SplineSet
240.053710938 49.470703125 m 0
 308.98828125 49.470703125 360.892578125 83.533203125 360.892578125 150.03515625 c 3
 360.892578125 189.774414062 339.806640625 199.505859375 314.666015625 220.591796875 c 0
 286.280273438 244.921875 246.541992188 264.385742188 210.857421875 283.0390625 c 0
 155.709960938 312.235351562 102.994140625 342.2421875 75.4208984375 399.01171875 c 0
 66.5 416.853515625 62.4443359375 437.940429688 62.4443359375 461.458984375 c 3
 62.4443359375 543.370117188 111.916015625 596.084960938 171.9296875 619.603515625 c 0
 193.826171875 628.525390625 217.345703125 632.580078125 243.297851562 632.580078125 c 3
 299.256835938 632.580078125 334.129882812 612.3046875 365.758789062 582.297851562 c 1
 391.7109375 624.469726562 l 1
 407.930664062 624.469726562 l 1
 415.229492188 446.049804688 l 1
 394.143554688 446.049804688 l 1
 381.16796875 497.954101562 362.514648438 521.47265625 338.99609375 545.802734375 c 0
 315.4765625 570.1328125 284.658203125 582.297851562 247.352539062 582.297851562 c 3
 187.338867188 582.297851562 147.599609375 549.046875 147.599609375 489.84375 c 3
 147.599609375 446.861328125 168.685546875 435.506835938 193.015625 414.420898438 c 0
 220.58984375 390.090820312 257.895507812 372.249023438 291.958007812 353.595703125 c 0
 346.294921875 324.400390625 395.765625 295.204101562 422.528320312 239.245117188 c 0
 430.638671875 221.403320312 435.504882812 200.317382812 435.504882812 175.987304688 c 3
 435.504882812 119.216796875 410.36328125 74.6123046875 379.545898438 45.416015625 c 0
 347.916992188 16.2197265625 300.87890625 -7.298828125 242.486328125 -7.298828125 c 0
 187.338867188 -7.298828125 151.654296875 9.732421875 112.7265625 33.2509765625 c 1
 80.287109375 0 l 1
 64.06640625 0 l 1
 49.46875 207.616210938 l 1
 69.7431640625 212.482421875 l 1
 85.9638671875 146.791015625 107.049804688 121.650390625 133.8125 92.4541015625 c 0
 160.575195312 63.2578125 195.448242188 49.470703125 240.053710938 49.470703125 c 0
EndSplineSet
Fore
SplineSet
41 98 m 0
 41 126 56 146 84 146 c 0
 137 146 128 77 152 49 c 0
 164 35 182 28 207 26 c 1
 207 269 l 1
 149 300 92 332 62 392 c 0
 53 411 48 433 48 459 c 0
 48 536 88 585 141 611 c 0
 161 621 183 628 207 631 c 1
 207 720 l 1
 241 720 l 1
 241 633 l 1
 300 630 349 606 373 567 c 0
 379 555 384 541 384 527 c 0
 384 499 367 479 339 479 c 0
 305 479 297 506 290 534 c 0
 281 566 271 588 241 597 c 1
 241 366 l 1
 296 335 351 304 379 246 c 0
 388 227 393 204 393 178 c 0
 393 99 352 47 301 19 c 0
 282 8 263 1 241 -3 c 1
 241 -83 l 1
 207 -83 l 1
 207 -7 l 1
 138 -7 81 16 54 57 c 0
 45 70 41 83 41 98 c 0
241 28 m 1
 286 39 318 74 318 129 c 0
 318 157 310 179 295 198 c 0
 280 217 263 232 241 247 c 1
 241 28 l 1
207 598 m 1
 162 592 133 556 133 504 c 0
 133 477 140 455 154 436 c 0
 168 417 186 402 207 388 c 1
 207 598 l 1
EndSplineSet
Validated: 1
EndChar

StartChar: percent
Encoding: 37 37 68
Width: 653
VWidth: 811
Flags: HMW
LayerCount: 2
Fore
SplineSet
156 603 m 3
 119 603 112 566 108 529 c 0
 106 510 105 486 105 458 c 3
 105 411 106 374 117 344 c 0
 124 326 134 316 156 316 c 3
 194 316 200 351 204 388 c 0
 206 407 207 430 207 458 c 3
 207 505 206 543 195 574 c 0
 189 593 179 603 156 603 c 3
497 337 m 3
 538 337 569 312 588 285 c 0
 610 255 625 212 625 162 c 3
 625 88 594 33 547 6 c 0
 532 -3 515 -8 497 -8 c 3
 456 -8 425 15 406 41 c 0
 384 70 370 113 370 162 c 3
 370 237 400 295 447 323 c 0
 462 332 479 337 497 337 c 3
497 308 m 3
 460 308 453 271 449 234 c 0
 447 215 447 191 447 163 c 3
 447 116 447 79 458 49 c 0
 465 31 475 21 497 21 c 3
 535 21 541 55 545 92 c 0
 547 111 548 135 548 163 c 3
 548 210 547 248 536 279 c 0
 530 298 520 308 497 308 c 3
461 578 m 1
 429 560 399 555 360 555 c 3
 325 555 293 556 252 571 c 1
 252 571 267 547 273 526 c 0
 279 505 284 481 284 457 c 3
 284 383 253 328 206 301 c 0
 191 292 174 287 156 287 c 3
 115 287 84 311 65 337 c 0
 43 366 28 408 28 457 c 3
 28 532 59 590 106 618 c 0
 121 627 138 632 156 632 c 3
 174 632 191 627 206 618 c 1
 258 592 307 579 353 579 c 3
 402 579 448 594 490 624 c 1
 547 624 l 1
 165 0 l 1
 109 0 l 1
 461 578 l 1
EndSplineSet
Validated: 1
EndChar

StartChar: period
Encoding: 46 46 69
Width: 209
VWidth: 811
Flags: HMW
LayerCount: 2
Fore
SplineSet
104 -8 m 3
 72 -8 49 15 49 47 c 3
 49 79 71 104 104 104 c 3
 137 104 161 80 161 47 c 3
 161 15 136 -8 104 -8 c 3
EndSplineSet
Validated: 1
EndChar

StartChar: exclam
Encoding: 33 33 71
Width: 243
VWidth: 811
Flags: HMW
LayerCount: 2
Fore
SplineSet
122 633 m 7
 154 633 170 610 170 579 c 7
 170 568 168 549 165 521 c 4
 153 418 145 301 138 187 c 5
 105 187 l 5
 98 301 89 417 77 520 c 4
 74 548 72 566 72 577 c 7
 72 608 90 633 122 633 c 7
121 -8 m 7
 91 -8 69 15 69 44 c 7
 69 75 89 97 121 97 c 7
 153 97 174 76 174 44 c 7
 174 14 153 -8 121 -8 c 7
EndSplineSet
Validated: 1
EndChar

StartChar: zero
Encoding: 48 48 72
Width: 512
VWidth: 811
Flags: HMW
LayerCount: 2
Fore
SplineSet
255 633 m 7
 326 633 374 587 406 539 c 4
 443 482 468 401 468 309 c 7
 468 176 421 67 339 16 c 4
 313 0 285 -8 255 -8 c 7
 184 -8 136 36 105 83 c 4
 69 138 45 218 45 309 c 7
 45 444 91 554 172 607 c 4
 198 624 225 633 255 633 c 7
255 591 m 7
 206 591 184 564 169 525 c 4
 146 467 144 399 144 310 c 7
 144 222 146 155 169 97 c 4
 184 59 206 33 255 33 c 7
 304 33 328 59 343 97 c 4
 366 154 369 222 369 310 c 7
 369 398 366 466 343 524 c 4
 328 563 304 591 255 591 c 7
EndSplineSet
Validated: 1
EndChar

StartChar: one
Encoding: 49 49 73
Width: 341
VWidth: 811
Flags: HMW
LayerCount: 2
Fore
SplineSet
36 527 m 1
 103 549 157 585 208 633 c 1
 225 626 l 1
 225 34 l 1
 329 18 l 1
 329 0 l 1
 32 0 l 1
 32 18 l 1
 139 34 l 1
 139 510 l 1
 36 510 l 1
 36 527 l 1
EndSplineSet
Validated: 1
EndChar

StartChar: two
Encoding: 50 50 74
Width: 469
VWidth: 811
Flags: HMWO
LayerCount: 2
Fore
SplineSet
437 73 m 1
 406 0 l 5
 28 0 l 1
 20 19 l 1
 74 71 120 117 157 158 c 0
 194 199 224 236 247 269 c 0
 270 302 286 334 297 362 c 0
 308 390 313 416 313 442 c 0
 313 500 290 542 251 561 c 0
 238 567 223 571 208 571 c 0
 145 571 95 522 71 477 c 1
 54 486 l 1
 78 548 122 599 184 622 c 0
 203 629 224 633 244 633 c 0
 295 633 334 610 360 582 c 0
 387 554 406 513 406 459 c 0
 406 432 401 406 390 378 c 0
 379 350 363 321 340 290 c 0
 317 259 287 226 251 190 c 0
 215 154 173 115 122 73 c 1
 437 73 l 1
EndSplineSet
EndChar

StartChar: three
Encoding: 51 51 75
Width: 448
VWidth: 811
Flags: HMW
LayerCount: 2
Fore
SplineSet
189 305 m 0
 174 305 159 303 143 301 c 1
 138 323 l 1
 182 342 215 367 239 395 c 0
 263 423 275 455 275 488 c 0
 275 536 247 576 202 576 c 0
 139 576 95 528 75 479 c 1
 56 484 l 1
 69 551 114 600 172 622 c 0
 191 629 212 633 234 633 c 0
 294 633 336 605 355 564 c 0
 361 549 365 534 365 517 c 0
 365 489 356 463 338 438 c 0
 320 413 295 392 263 373 c 1
 263 370 l 1
 348 363 404 299 404 207 c 0
 404 141 375 89 341 54 c 0
 307 19 257 -8 191 -8 c 0
 125 -8 73 18 49 59 c 0
 41 73 36 87 36 102 c 0
 36 132 53 152 82 152 c 0
 118 152 128 118 137 90 c 0
 148 58 165 28 208 28 c 0
 266 28 302 71 319 114 c 0
 325 130 328 146 328 165 c 0
 328 230 289 274 243 294 c 0
 226 301 208 305 189 305 c 0
EndSplineSet
Validated: 1
EndChar

StartChar: four
Encoding: 52 52 76
Width: 472
VWidth: 811
Flags: HMW
LayerCount: 2
Fore
SplineSet
274 173 m 5
 15 173 l 5
 8 187 l 5
 335 633 l 5
 356 624 l 5
 356 234 l 5
 431 234 l 5
 431 173 l 5
 356 173 l 5
 356 34 l 5
 428 19 l 5
 428 0 l 5
 177 0 l 5
 177 19 l 5
 274 34 l 5
 274 173 l 5
274 471 m 5
 271 471 l 5
 103 238 l 5
 104 234 l 5
 274 234 l 5
 274 471 l 5
EndSplineSet
Validated: 1
EndChar

StartChar: five
Encoding: 53 53 77
Width: 445
VWidth: 811
Flags: HMW
LayerCount: 2
Fore
SplineSet
28 94 m 4
 28 123 43 141 71 141 c 4
 119 141 120 87 139 58 c 4
 150 41 168 28 197 28 c 4
 238 28 267 49 287 73 c 4
 309 99 324 138 324 183 c 4
 324 256 289 305 237 327 c 4
 219 334 200 338 178 338 c 4
 145 338 115 328 90 307 c 5
 78 308 l 5
 120 614 l 5
 378 614 l 5
 356 541 l 5
 148 541 l 5
 127 401 l 5
 151 409 169 414 198 414 c 4
 294 414 358 365 386 297 c 4
 396 273 401 246 401 217 c 4
 401 147 372 93 336 57 c 4
 300 21 245 -8 176 -8 c 4
 113 -8 64 15 40 54 c 4
 33 66 28 79 28 94 c 4
EndSplineSet
Validated: 1
EndChar

StartChar: six
Encoding: 54 54 78
Width: 476
VWidth: 811
Flags: HMW
LayerCount: 2
Back
SplineSet
150.844726562 334.131835938 m 5
 174.427734375 358.78515625 223.801757812 376.303710938 272.495117188 376.303710938 c 4
 357.93359375 376.303710938 411.541015625 329.725585938 435.505859375 266.819335938 c 4
 444.157226562 244.111328125 448.482421875 218.969726562 448.482421875 191.396484375 c 4
 448.482421875 95.5234375 396.629882812 33.6630859375 326.427734375 6.48828125 c 4
 301.286132812 -3.244140625 273.577148438 -8.1103515625 243.299804688 -8.1103515625 c 4
 142.499023438 -8.1103515625 83.65625 46.80078125 58.3916015625 124.083007812 c 4
 49.201171875 152.198242188 44.60546875 184.096679688 44.60546875 219.78125 c 4
 44.60546875 321.6171875 80.802734375 404.563476562 127.732421875 467.135742188 c 4
 181.520507812 538.853515625 258.422851562 595.940429688 350.3515625 630.146484375 c 5
 356.838867188 609.87109375 l 5
 305.404296875 582.439453125 257.241210938 535.165039062 222.212890625 488.626953125 c 4
 190.9609375 447.104492188 158.712890625 391.829101562 150.844726562 334.131835938 c 5
139.4921875 195.451171875 m 4
 139.4921875 108.985351562 169.748046875 34.0615234375 248.166015625 34.0615234375 c 4
 320.946289062 34.0615234375 351.973632812 98.8037109375 351.973632812 177.609375 c 4
 351.973632812 260.506835938 317.879882812 330.077148438 240.866210938 330.077148438 c 4
 200.173828125 330.077148438 166.953125 310.907226562 149.223632812 286.282226562 c 5
 143.989257812 262.203125 139.4921875 224.916992188 139.4921875 195.451171875 c 4
EndSplineSet
Fore
SplineSet
151 334 m 1
 175 358 223 376 272 376 c 0
 357 376 412 330 436 267 c 0
 445 244 448 219 448 191 c 0
 448 95 397 34 326 6 c 0
 301 -4 273 -8 243 -8 c 0
 142 -8 83 47 58 124 c 0
 49 152 45 184 45 220 c 0
 45 322 81 405 128 467 c 0
 182 538 258 596 350 630 c 1
 357 610 l 1
 306 582 257 534 222 488 c 0
 190 447 159 392 151 334 c 1
139 195 m 0
 139 108 169 34 248 34 c 0
 321 34 352 99 352 178 c 0
 352 261 318 330 241 330 c 0
 200 330 165 296 147 272 c 1
 142 247 139 224 139 195 c 0
EndSplineSet
Validated: 1
EndChar

StartChar: seven
Encoding: 55 55 79
Width: 402
VWidth: 811
Flags: HMW
LayerCount: 2
Fore
SplineSet
89 541 m 1
 66 522 55 507 37 479 c 1
 20 488 l 1
 76 616 l 1
 388 616 l 1
 394 604 l 1
 330 457 279 326 227 167 c 0
 215 131 201 88 186 39 c 0
 176 7 159 -8 134 -8 c 0
 109 -8 95 8 95 33 c 0
 95 44 98 56 104 71 c 0
 110 86 117 105 127 125 c 1
 306 541 l 1
 89 541 l 1
EndSplineSet
Validated: 1
EndChar

StartChar: eight
Encoding: 56 56 80
Width: 480
VWidth: 811
Flags: HMW
LayerCount: 2
Fore
SplineSet
302 357 m 1
 348 329 382 301 403 272 c 0
 424 243 436 210 436 174 c 0
 436 62 346 -8 234 -8 c 0
 129 -8 45 54 45 158 c 0
 45 244 101 290 168 325 c 1
 112 362 64 401 64 478 c 0
 64 576 142 633 241 633 c 0
 331 633 407 584 407 496 c 0
 407 438 373 392 302 357 c 1
236 596 m 0
 179 596 140 561 140 505 c 0
 140 433 202 401 264 373 c 1
 312 408 336 449 336 496 c 0
 336 556 296 596 236 596 c 0
246 28 m 0
 316 28 362 70 362 139 c 0
 362 231 284 269 204 305 c 1
 158 277 126 229 126 159 c 0
 126 81 169 28 246 28 c 0
EndSplineSet
Validated: 1
EndChar

StartChar: nine
Encoding: 57 57 81
Width: 480
VWidth: 811
Flags: HMW
LayerCount: 2
Fore
SplineSet
330 288 m 1
 306 264 257 246 208 246 c 3
 99 246 32 322 32 431 c 3
 32 553 116 630 238 630 c 3
 371 630 436 536 436 402 c 3
 436 300 400 217 353 155 c 0
 299 84 223 25 131 -8 c 1
 124 12 l 1
 175 40 224 88 259 134 c 0
 291 175 322 230 330 288 c 1
341 427 m 3
 341 514 312 586 233 586 c 3
 160 586 129 523 129 444 c 3
 129 361 163 300 240 300 c 3
 281 300 314 320 332 344 c 1
 337 368 341 398 341 427 c 3
EndSplineSet
Validated: 1
EndChar

StartChar: question
Encoding: 63 63 82
Width: 351
VWidth: 811
Flags: HMW
LayerCount: 2
Back
SplineSet
159.766601562 632.580078125 m 3
 192.20703125 632.580078125 208.426757812 609.872070312 208.426757812 579.053710938 c 3
 208.426757812 568.510742188 206.8046875 549.046875 203.560546875 521.47265625 c 0
 191.396484375 418.475585938 183.286132812 300.0703125 175.987304688 186.530273438 c 1
 142.736328125 186.530273438 l 1
 135.436523438 300.0703125 127.327148438 416.853515625 115.162109375 519.850585938 c 0
 111.91796875 547.424804688 110.295898438 566.078125 110.295898438 576.62109375 c 3
 110.295898438 607.439453125 128.137695312 632.580078125 159.766601562 632.580078125 c 3
158.956054688 -8.1103515625 m 3
 128.94921875 -8.1103515625 107.051757812 14.59765625 107.051757812 43.7939453125 c 3
 107.051757812 74.6123046875 127.327148438 97.3203125 158.956054688 97.3203125 c 3
 191.396484375 97.3203125 212.482421875 76.234375 212.482421875 43.7939453125 c 3
 212.482421875 13.787109375 190.584960938 -8.1103515625 158.956054688 -8.1103515625 c 3
EndSplineSet
Fore
SplineSet
159 -8 m 3
 127 -8 107 14 107 45 c 3
 107 76 129 97 160 97 c 3
 191 97 212 76 212 45 c 3
 212 14 190 -8 159 -8 c 3
101 493 m 0
 101 469 110 476 110 453 c 0
 110 434 86 424 71 424 c 0
 58 424 36 431 36 459 c 0
 36 529 104 586 179 586 c 0
 262 586 315 523 315 449 c 3
 315 385 265 350 227 322 c 0
 188 294 177 277 177 222 c 2
 177 187 l 25
 143 187 l 25
 143 224 l 2
 143 259 147 306 200 354 c 0
 232 384 244 408 244 446 c 3
 244 499 221 535 175 535 c 0
 129 535 101 517 101 493 c 0
EndSplineSet
Validated: 1
EndChar

StartChar: uni0000
Encoding: 0 0 83
Width: 695
VWidth: 811
Flags: HMW
LayerCount: 2
Back
SplineSet
501.198242188 304.935546875 m 5
 194.639648438 304.935546875 l 5
 194.639648438 34.0615234375 l 5
 266.819335938 18.6533203125 l 5
 266.819335938 0 l 5
 36.4951171875 0 l 5
 36.4951171875 18.6533203125 l 5
 109.485351562 34.0615234375 l 5
 109.485351562 590.408203125 l 5
 36.4951171875 605.817382812 l 5
 36.4951171875 624.469726562 l 5
 266.819335938 624.469726562 l 5
 266.819335938 605.817382812 l 5
 194.639648438 590.408203125 l 5
 194.639648438 360.89453125 l 5
 501.198242188 360.89453125 l 5
 501.198242188 590.408203125 l 5
 428.208007812 605.817382812 l 5
 428.208007812 624.469726562 l 5
 658.532226562 624.469726562 l 5
 658.532226562 604.1953125 l 5
 586.352539062 590.408203125 l 5
 586.352539062 34.0615234375 l 5
 658.532226562 17.03125 l 5
 658.532226562 0 l 5
 428.208007812 0 l 5
 428.208007812 18.6533203125 l 5
 501.198242188 34.0615234375 l 5
 501.198242188 304.935546875 l 5
EndSplineSet
Fore
SplineSet
36 624 m 1
 659 624 l 1
 659 0 l 1
 36 0 l 1
 36 624 l 1
109 551 m 1
 109 73 l 1
 586 73 l 1
 586 551 l 1
 109 551 l 1
347 496 m 0
 316 496 302 478 292 453 c 0
 277 416 276 372 276 315 c 0
 276 280 277 251 281 224 c 1
 404 451 l 2
 403 453 l 0
 393 478 378 496 347 496 c 0
347 521 m 0
 392 521 424 492 444 461 c 0
 468 425 483 374 483 315 c 0
 483 230 454 159 401 127 c 0
 385 116 366 112 347 112 c 0
 302 112 270 139 251 169 c 0
 227 205 212 257 212 315 c 0
 212 401 242 472 294 506 c 0
 310 517 328 521 347 521 c 0
289 186 m 2
 290 184 291 180 292 178 c 0
 302 154 316 138 347 138 c 0
 378 138 393 155 403 179 c 0
 418 215 420 259 420 315 c 0
 420 353 419 386 414 414 c 1
 289 186 l 2
EndSplineSet
Validated: 1
EndChar

StartChar: plusminus
Encoding: 177 177 84
Width: 467
VWidth: 811
Flags: HMW
LayerCount: 2
Fore
SplineSet
213 342 m 1
 67 342 l 1
 67 382 l 1
 213 382 l 1
 213 528 l 1
 255 528 l 1
 255 382 l 1
 400 382 l 1
 400 342 l 1
 255 342 l 1
 255 195 l 1
 213 195 l 1
 213 342 l 1
67 86 m 1
 67 126 l 1
 400 126 l 1
 400 86 l 1
 67 86 l 1
EndSplineSet
Validated: 1
EndChar

StartChar: uni00B2
Encoding: 178 178 85
Width: 328
VWidth: 811
Flags: HMW
LayerCount: 2
Fore
SplineSet
36 650 m 1
 56 704 100 751 168 751 c 0
 222 751 260 720 276 681 c 0
 282 667 285 652 285 636 c 0
 285 593 268 563 245 535 c 0
 207 487 159 450 105 407 c 1
 239 407 l 1
 254 422 267 441 278 461 c 1
 298 457 l 1
 255 337 l 1
 28 337 l 1
 23 368 l 1
 78 420 125 467 164 521 c 0
 179 541 189 559 195 576 c 0
 201 593 205 610 205 625 c 0
 205 667 182 700 141 700 c 0
 100 700 69 667 54 638 c 1
 36 650 l 1
EndSplineSet
Validated: 1
EndChar

StartChar: uni00B3
Encoding: 179 179 86
Width: 315
VWidth: 811
Flags: HMW
LayerCount: 2
Fore
SplineSet
126 533 m 4
 117 533 104 532 97 530 c 5
 90 554 l 5
 118 565 141 579 157 598 c 4
 173 617 182 635 182 655 c 4
 182 683 164 702 136 702 c 4
 100 702 73 677 60 651 c 5
 43 659 l 5
 54 711 100 751 162 751 c 4
 215 751 256 720 256 668 c 4
 256 623 221 594 184 584 c 5
 184 581 l 5
 241 576 281 535 281 473 c 4
 281 407 239 361 191 342 c 4
 173 335 154 332 134 332 c 4
 89 332 53 348 36 376 c 4
 30 385 28 395 28 406 c 4
 28 428 40 444 62 444 c 4
 87 444 94 423 101 405 c 4
 109 385 118 366 146 366 c 4
 186 366 208 399 208 441 c 4
 208 495 178 533 126 533 c 4
EndSplineSet
Validated: 1
EndChar

StartChar: degree
Encoding: 176 176 87
Width: 275
VWidth: 811
Flags: HMW
LayerCount: 2
Fore
SplineSet
138 476 m 3
 80 476 40 517 40 574 c 3
 40 631 81 673 138 673 c 3
 195 673 236 631 236 574 c 3
 236 516 195 476 138 476 c 3
138 641 m 3
 100 641 73 612 73 574 c 3
 73 537 101 509 138 509 c 3
 176 509 203 536 203 574 c 3
 203 613 177 641 138 641 c 3
EndSplineSet
Validated: 1
EndChar

StartChar: acute
Encoding: 180 180 88
Width: 137
VWidth: 811
Flags: HMW
LayerCount: 2
Fore
SplineSet
98 697 m 0
 117 697 130 681 130 662 c 0
 130 640 119 627 105 612 c 2
 25 512 l 1
 8 521 l 1
 54 659 l 2
 61 680 71 697 98 697 c 0
EndSplineSet
Validated: 1
EndChar

StartChar: periodcentered
Encoding: 183 183 89
Width: 228
VWidth: 811
Flags: HMW
LayerCount: 2
Fore
SplineSet
114 178 m 7
 82 178 58 201 58 233 c 7
 58 265 81 290 114 290 c 7
 147 290 170 266 170 233 c 7
 170 201 146 178 114 178 c 7
EndSplineSet
Validated: 1
EndChar

StartChar: multiply
Encoding: 215 215 90
Width: 398
VWidth: 811
Flags: HMW
LayerCount: 2
Fore
SplineSet
169 276 m 1
 56 389 l 1
 86 419 l 1
 200 306 l 1
 313 419 l 1
 345 388 l 1
 231 274 l 1
 344 161 l 1
 314 131 l 1
 201 244 l 1
 87 130 l 1
 55 161 l 1
 169 276 l 1
EndSplineSet
Validated: 1
EndChar

StartChar: dieresis
Encoding: 168 168 91
Width: 257
VWidth: 811
Flags: HMW
LayerCount: 2
Fore
SplineSet
53 543 m 3
 27 543 8 563 8 588 c 3
 8 614 26 633 53 633 c 3
 81 633 97 615 97 588 c 3
 97 562 80 543 53 543 c 3
204 543 m 3
 178 543 160 563 160 588 c 3
 160 614 177 633 204 633 c 3
 232 633 249 615 249 588 c 3
 249 562 231 543 204 543 c 3
EndSplineSet
Validated: 1
EndChar

StartChar: macron
Encoding: 175 175 92
Width: 248
VWidth: 811
Flags: HMW
LayerCount: 2
Fore
SplineSet
8 575 m 1
 8 633 l 1
 241 633 l 1
 241 575 l 1
 8 575 l 1
EndSplineSet
Validated: 1
EndChar

StartChar: bracketleft
Encoding: 91 91 93
Width: 262
VWidth: 811
Flags: HMW
LayerCount: 2
Fore
SplineSet
82 -152 m 5
 82 665 l 5
 243 665 l 5
 243 639 l 5
 148 639 l 5
 148 -127 l 5
 243 -127 l 5
 243 -152 l 5
 82 -152 l 5
EndSplineSet
Validated: 1
EndChar

StartChar: backslash
Encoding: 92 92 94
Width: 291
VWidth: 811
Flags: HMW
LayerCount: 2
Fore
SplineSet
200 -137 m 5
 36 664 l 5
 93 664 l 5
 255 -137 l 5
 200 -137 l 5
EndSplineSet
Validated: 1
EndChar

StartChar: bracketright
Encoding: 93 93 95
Width: 262
VWidth: 811
Flags: HMW
LayerCount: 2
Fore
SplineSet
19 -152 m 5
 19 -127 l 5
 115 -127 l 5
 115 639 l 5
 19 639 l 5
 19 665 l 5
 181 665 l 5
 181 -152 l 5
 19 -152 l 5
EndSplineSet
Validated: 1
EndChar

StartChar: asciicircum
Encoding: 94 94 96
Width: 401
VWidth: 811
Flags: HMW
LayerCount: 2
Fore
SplineSet
36 269 m 1
 187 577 l 1
 216 577 l 1
 365 269 l 1
 331 269 l 1
 202 526 l 1
 199 526 l 1
 71 269 l 1
 36 269 l 1
EndSplineSet
Validated: 1
EndChar

StartChar: underscore
Encoding: 95 95 97
Width: 567
VWidth: 811
Flags: HMW
LayerCount: 2
Fore
SplineSet
61 -60 m 5
 61 -24 l 5
 507 -24 l 5
 507 -60 l 5
 61 -60 l 5
EndSplineSet
Validated: 1
EndChar

StartChar: grave
Encoding: 96 96 98
Width: 137
VWidth: 811
Flags: HMW
LayerCount: 2
Fore
SplineSet
8 662 m 3
 8 681 21 697 40 697 c 3
 67 697 77 680 84 659 c 2
 130 521 l 1
 113 512 l 1
 32 612 l 2
 18 627 8 640 8 662 c 3
EndSplineSet
Validated: 1
EndChar

StartChar: quotedblleft
Encoding: 8220 8220 99
Width: 354
VWidth: 811
Flags: HMW
LayerCount: 2
Fore
SplineSet
101 447 m 3
 65 447 43 480 43 516 c 3
 43 592 79 637 128 673 c 1
 144 650 l 1
 129 639 117 626 108 613 c 0
 99 600 94 589 94 580 c 3
 94 560 110 552 124 545 c 0
 140 536 155 526 155 501 c 3
 155 470 132 447 101 447 c 3
256 447 m 3
 220 447 199 480 199 516 c 3
 199 592 235 637 284 673 c 1
 300 650 l 1
 285 639 273 626 264 613 c 0
 255 600 250 589 250 580 c 3
 250 560 266 552 280 545 c 0
 296 536 311 526 311 501 c 3
 311 470 287 447 256 447 c 3
EndSplineSet
Validated: 1
EndChar

StartChar: quotedblright
Encoding: 8221 8221 100
Width: 351
VWidth: 811
Flags: HMW
LayerCount: 2
Fore
SplineSet
255 673 m 3
 291 673 313 640 313 604 c 3
 313 528 277 483 228 447 c 1
 212 470 l 1
 227 481 239 494 248 507 c 0
 257 520 262 531 262 540 c 7
 262 560 246 568 232 575 c 0
 216 584 201 594 201 619 c 3
 201 650 224 673 255 673 c 3
100 673 m 3
 136 673 157 640 157 604 c 3
 157 528 121 483 72 447 c 1
 56 470 l 1
 71 481 83 494 92 507 c 0
 101 520 106 531 106 540 c 7
 106 560 90 568 76 575 c 0
 60 584 45 594 45 619 c 3
 45 650 69 673 100 673 c 3
EndSplineSet
Validated: 1
EndChar

StartChar: quotedblbase
Encoding: 8222 8222 101
Width: 369
VWidth: 811
Flags: HMW
LayerCount: 2
Fore
SplineSet
260 104 m 3
 296 104 318 71 318 35 c 3
 318 -41 282 -86 233 -122 c 1
 217 -99 l 1
 232 -88 244 -75 253 -62 c 0
 262 -49 267 -38 267 -29 c 3
 267 -9 251 -1 237 6 c 0
 221 15 206 24 206 49 c 3
 206 80 229 104 260 104 c 3
105 104 m 3
 141 104 162 71 162 35 c 3
 162 -41 126 -86 77 -122 c 1
 61 -99 l 1
 76 -88 88 -75 97 -62 c 0
 106 -49 111 -38 111 -29 c 3
 111 -9 95 -1 81 6 c 0
 65 15 50 24 50 49 c 3
 50 80 74 104 105 104 c 3
EndSplineSet
Validated: 1
EndChar

StartChar: quoteleft
Encoding: 8216 8216 102
Width: 198
VWidth: 811
Flags: HMW
LayerCount: 2
Fore
SplineSet
101 447 m 7
 65 447 43 480 43 516 c 7
 43 592 79 637 128 673 c 5
 144 650 l 5
 129 639 117 626 108 613 c 4
 99 600 94 589 94 580 c 7
 94 560 110 552 124 545 c 4
 140 536 155 526 155 501 c 7
 155 470 132 447 101 447 c 7
EndSplineSet
Validated: 1
EndChar

StartChar: quoteright
Encoding: 8217 8217 103
Width: 196
VWidth: 811
Flags: HMW
LayerCount: 2
Fore
SplineSet
100 673 m 3
 136 673 157 640 157 604 c 3
 157 528 121 483 72 447 c 1
 56 470 l 1
 71 481 83 494 92 507 c 0
 101 520 106 531 106 540 c 3
 106 560 90 568 76 575 c 0
 60 584 45 594 45 619 c 3
 45 650 69 673 100 673 c 3
EndSplineSet
Validated: 1
EndChar

StartChar: ellipsis
Encoding: 8230 8230 104
Width: 666
VWidth: 811
Flags: HMW
LayerCount: 2
Fore
SplineSet
105 -8 m 4
 73 -8 50 15 50 47 c 4
 50 79 72 104 105 104 c 4
 138 104 162 80 162 47 c 4
 162 15 137 -8 105 -8 c 4
333 -8 m 4
 301 -8 277 15 277 47 c 4
 277 79 300 104 333 104 c 4
 366 104 389 80 389 47 c 4
 389 15 365 -8 333 -8 c 4
560 -8 m 4
 528 -8 504 15 504 47 c 4
 504 79 527 104 560 104 c 4
 593 104 616 80 616 47 c 4
 616 15 592 -8 560 -8 c 4
EndSplineSet
Validated: 1
EndChar

StartChar: fraction
Encoding: 8260 8260 105
Width: 178
VWidth: 811
Flags: HMW
LayerCount: 2
Fore
SplineSet
-129 0 m 5
 251 624 l 5
 308 624 l 5
 -73 0 l 5
 -129 0 l 5
EndSplineSet
Validated: 1
EndChar

StartChar: bullet
Encoding: 8226 8226 106
Width: 332
VWidth: 811
Flags: HMW
LayerCount: 2
Fore
SplineSet
69 303 m 3
 69 357 112 397 166 397 c 3
 220 397 264 357 264 303 c 3
 264 249 220 210 166 210 c 3
 112 210 69 249 69 303 c 3
EndSplineSet
Validated: 1
EndChar

StartChar: dagger
Encoding: 8224 8224 107
Width: 360
VWidth: 811
Flags: HMW
LayerCount: 2
Fore
SplineSet
180 571 m 0
 195 571 207 554 207 534 c 2
 207 375 l 25
 283 377 l 2
 308 377 315 361 315 350 c 0
 315 339 308 321 283 321 c 0
 261 321 237 331 207 337 c 1
 207 182 l 2
 207 50 198 -81 192 -147 c 0
 190 -164 190 -175 180 -175 c 0
 169 -175 170 -160 168 -147 c 0
 162 -81 152 50 152 182 c 2
 152 337 l 1
 122 331 95 321 76 321 c 0
 51 321 45 340 45 350 c 0
 45 364 54 377 76 377 c 2
 152 375 l 25
 152 534 l 2
 152 554 165 571 180 571 c 0
EndSplineSet
Validated: 1
EndChar

StartChar: daggerdbl
Encoding: 8225 8225 108
Width: 360
VWidth: 811
Flags: HMW
LayerCount: 2
Back
SplineSet
45.416015625 17.841796875 m 0
 45.416015625 30.0068359375 51.904296875 46.2265625 77.044921875 46.2265625 c 0
 102.997070312 46.2265625 141.924804688 30.0068359375 171.12109375 26.7626953125 c 1
 169.499023438 68.1240234375 151.657226562 131.381835938 151.657226562 167.06640625 c 0
 151.657226562 197.883789062 171.12109375 201.939453125 180.041992188 201.939453125 c 0
 190.584960938 201.939453125 208.426757812 195.451171875 208.426757812 170.309570312 c 0
 208.426757812 127.327148438 190.584960938 74.6123046875 188.15234375 26.7626953125 c 1
 220.591796875 30.0068359375 257.086914062 46.2265625 283.0390625 46.2265625 c 0
 303.314453125 46.2265625 314.66796875 34.0615234375 314.66796875 17.841796875 c 0
 314.66796875 7.298828125 308.991210938 -10.54296875 283.0390625 -10.54296875 c 0
 257.086914062 -10.54296875 217.34765625 5.6767578125 188.15234375 8.9208984375 c 1
 189.774414062 -32.4404296875 208.426757812 -95.6982421875 208.426757812 -131.381835938 c 0
 208.426757812 -162.200195312 188.962890625 -166.254882812 180.041992188 -166.254882812 c 0
 169.499023438 -166.254882812 151.657226562 -158.956054688 151.657226562 -133.815429688 c 0
 151.657226562 -90.83203125 168.688476562 -38.927734375 171.12109375 8.9208984375 c 1
 137.870117188 5.6767578125 102.185546875 -10.54296875 77.044921875 -10.54296875 c 0
 51.904296875 -10.54296875 45.416015625 8.1103515625 45.416015625 17.841796875 c 0
45.416015625 387.658203125 m 0
 45.416015625 397.389648438 50.2822265625 415.232421875 77.044921875 415.232421875 c 0
 105.4296875 415.232421875 137.870117188 399.01171875 171.12109375 395.767578125 c 1
 169.499023438 437.12890625 151.657226562 501.198242188 151.657226562 536.881835938 c 0
 151.657226562 567.700195312 171.12109375 570.944335938 180.041992188 570.944335938 c 0
 190.584960938 570.944335938 208.426757812 564.456054688 208.426757812 539.315429688 c 0
 208.426757812 496.33203125 190.584960938 443.6171875 188.15234375 395.767578125 c 1
 218.159179688 399.01171875 255.46484375 415.232421875 282.227539062 415.232421875 c 0
 308.1796875 415.232421875 314.66796875 399.01171875 314.66796875 387.658203125 c 0
 314.66796875 377.115234375 308.991210938 359.2734375 283.0390625 359.2734375 c 0
 254.654296875 359.2734375 221.403320312 375.493164062 188.15234375 378.737304688 c 1
 189.774414062 337.375976562 208.426757812 273.306640625 208.426757812 237.623046875 c 0
 208.426757812 206.8046875 188.962890625 203.560546875 180.041992188 203.560546875 c 0
 169.499023438 203.560546875 151.657226562 210.048828125 151.657226562 235.190429688 c 0
 151.657226562 278.172851562 168.688476562 330.887695312 171.12109375 378.737304688 c 1
 142.736328125 376.303710938 102.997070312 359.2734375 76.234375 359.2734375 c 0
 50.2822265625 359.2734375 45.416015625 377.92578125 45.416015625 387.658203125 c 0
EndSplineSet
Fore
SplineSet
207 248 m 25
 283 251 l 2
 308 251 315 234 315 223 c 0
 315 212 308 195 283 195 c 0
 261 195 237 205 207 211 c 1
 207 182 l 2
 207 50 198 -81 192 -147 c 0
 190 -164 190 -175 180 -175 c 0
 169 -175 170 -160 168 -147 c 0
 162 -81 152 50 152 182 c 2
 152 211 l 1
 122 205 95 195 76 195 c 0
 51 195 45 213 45 223 c 0
 45 237 54 251 76 251 c 2
 152 248 l 25
 152 337 l 1
 122 331 95 321 76 321 c 0
 51 321 45 340 45 350 c 0
 45 364 54 377 76 377 c 2
 152 375 l 25
 152 534 l 2
 152 554 165 571 180 571 c 0
 195 571 207 554 207 534 c 2
 207 375 l 25
 283 377 l 2
 308 377 315 361 315 350 c 0
 315 339 308 321 283 321 c 0
 261 321 237 331 207 337 c 1
 207 248 l 25
EndSplineSet
Validated: 1
EndChar

StartChar: endash
Encoding: 8211 8211 109
Width: 610
VWidth: 811
Flags: HMW
LayerCount: 2
Back
SplineSet
63.2578125 325.2109375 m 1
 63.2578125 360.89453125 l 1
 395.767578125 360.89453125 l 1
 395.767578125 325.2109375 l 1
 63.2578125 325.2109375 l 1
63.2578125 194.639648438 m 1
 63.2578125 230.32421875 l 1
 395.767578125 230.32421875 l 1
 395.767578125 194.639648438 l 1
 63.2578125 194.639648438 l 1
613.116210938 94.076171875 m 0
 613.116210938 123.272460938 627.713867188 141.114257812 656.098632812 141.114257812 c 0
 703.948242188 141.114257812 704.758789062 86.77734375 724.22265625 57.5810546875 c 0
 735.577148438 40.5498046875 752.608398438 28.384765625 781.803710938 28.384765625 c 0
 822.353515625 28.384765625 851.549804688 49.470703125 871.825195312 72.990234375 c 0
 893.721679688 98.9423828125 909.130859375 137.870117188 909.130859375 183.286132812 c 0
 909.130859375 256.276367188 873.447265625 304.935546875 821.54296875 326.833007812 c 0
 803.701171875 334.131835938 784.237304688 338.186523438 762.33984375 338.186523438 c 0
 729.088867188 338.186523438 699.892578125 327.643554688 674.751953125 306.557617188 c 1
 662.586914062 308.1796875 l 1
 704.758789062 613.926757812 l 1
 962.657226562 613.926757812 l 1
 940.759765625 540.936523438 l 1
 732.333007812 540.936523438 l 1
 712.057617188 400.633789062 l 1
 735.577148438 408.744140625 753.418945312 413.610351562 782.615234375 413.610351562 c 0
 878.313476562 413.610351562 942.381835938 364.950195312 970.766601562 296.826171875 c 0
 980.499023438 272.49609375 985.365234375 245.733398438 985.365234375 216.537109375 c 0
 985.365234375 146.791015625 956.98046875 93.2646484375 920.485351562 56.76953125 c 0
 883.990234375 21.0859375 829.653320312 -8.1103515625 760.717773438 -8.1103515625 c 0
 697.459960938 -8.1103515625 647.989257812 14.59765625 624.469726562 53.5263671875 c 0
 617.170898438 65.69140625 613.116210938 79.4775390625 613.116210938 94.076171875 c 0
-157.333984375 172.743164062 m 1
 -416.853515625 172.743164062 l 1
 -423.341796875 186.530273438 l 1
 -96.5087890625 632.580078125 l 1
 -75.4228515625 624.469726562 l 1
 -75.4228515625 234.37890625 l 1
 0 234.37890625 l 1
 0 172.743164062 l 1
 -75.4228515625 172.743164062 l 1
 -75.4228515625 34.0615234375 l 1
 -3.244140625 18.6533203125 l 1
 -3.244140625 0 l 1
 -254.654296875 0 l 1
 -254.654296875 18.6533203125 l 1
 -157.333984375 34.0615234375 l 1
 -157.333984375 172.743164062 l 1
-161.388671875 471.19140625 m 1
 -164.6328125 471.19140625 l 1
 -332.509765625 237.623046875 l 1
 -331.69921875 234.37890625 l 1
 -161.388671875 234.37890625 l 1
 -161.388671875 471.19140625 l 1
EndSplineSet
Fore
SplineSet
62 255 m 5
 62 304 l 5
 548 304 l 5
 548 255 l 5
 62 255 l 5
EndSplineSet
Validated: 1
EndChar

StartChar: emdash
Encoding: 8212 8212 110
Width: 871
VWidth: 811
Flags: HMW
LayerCount: 2
Fore
SplineSet
62 180 m 5
 62 229 l 5
 809 229 l 5
 809 180 l 5
 62 180 l 5
EndSplineSet
Validated: 1
EndChar

StartChar: asterisk
Encoding: 42 42 111
Width: 393
VWidth: 811
Flags: HMW
LayerCount: 2
Back
SplineSet
340.620117188 394.146484375 m 0
 340.620117188 374.745117188 326.7265625 362.516601562 307.369140625 362.516601562 c 0
 288.8359375 362.516601562 277.640625 373.541992188 267.629882812 384.008789062 c 0
 254.828125 397.393554688 242.211914062 412.858398438 227.080078125 424.963867188 c 2
 205.994140625 441.18359375 l 1
 210.051757812 413.610351562 l 2
 212.754882812 395.227539062 216.404296875 379.006835938 221 364.950195312 c 0
 225.595703125 350.892578125 227.893554688 338.458007812 227.893554688 327.64453125 c 0
 227.893554688 308.942382812 216.927734375 295.205078125 197.88671875 295.205078125 c 0
 177.684570312 295.205078125 167.068359375 310.2578125 167.068359375 330.888671875 c 0
 167.068359375 342.784179688 169.63671875 355.759765625 174.772460938 369.81640625 c 0
 179.909179688 383.874023438 183.55859375 398.7421875 185.721679688 414.420898438 c 2
 188.965820312 441.18359375 l 1
 166.2578125 424.153320312 l 1
 144.862304688 407.037109375 129.962890625 382.462890625 107.459960938 367.788085938 c 0
 101.2421875 363.733398438 94.078125 361.706054688 85.96875 361.706054688 c 0
 66.3486328125 361.706054688 52.7177734375 374.219726562 52.7177734375 393.333984375 c 0
 52.7177734375 413.749023438 69.3662109375 420.3125 86.3740234375 425.369140625 c 0
 109.09765625 432.125976562 134.3515625 436.33984375 155.71484375 446.049804688 c 2
 179.233398438 456.592773438 l 1
 154.092773438 467.135742188 l 2
 125.491210938 478.8359375 84.8076171875 479.912109375 62.04296875 496.737304688 c 0
 55.8251953125 501.333007812 52.716796875 508.497070312 52.716796875 518.228515625 c 0
 52.716796875 537.760742188 65.62890625 550.668945312 85.9677734375 550.668945312 c 0
 104.473632812 550.668945312 114.870117188 539.659179688 124.89453125 529.177734375 c 0
 138.252929688 515.211914062 150.1328125 499.364257812 167.06640625 487.411132812 c 2
 188.15234375 472.001953125 l 1
 184.909179688 499.576171875 l 2
 182.74609375 517.41796875 179.096679688 532.151367188 173.959960938 543.775390625 c 0
 168.82421875 555.399414062 166.255859375 567.700195312 166.255859375 580.67578125 c 0
 166.255859375 603.1484375 176.689453125 617.982421875 197.07421875 617.982421875 c 0
 216.721679688 617.982421875 227.081054688 602.653320312 227.081054688 580.67578125 c 0
 227.081054688 566.583007812 222.057617188 555.248046875 218.56640625 543.775390625 c 0
 214.328125 529.848632812 209.440429688 516.16796875 208.427734375 497.954101562 c 2
 205.995117188 472.001953125 l 1
 226.26953125 488.221679688 l 2
 244.220703125 502.393554688 256.283203125 517.154296875 270.469726562 532.015625 c 0
 280.038085938 542.0390625 289.817382812 551.478515625 307.370117188 551.478515625 c 0
 328.044921875 551.478515625 340.62109375 538.3984375 340.62109375 519.038085938 c 0
 340.62109375 498.04296875 324.673828125 491.405273438 307.370117188 486.598632812 c 0
 285.159179688 480.4296875 260.517578125 476.647460938 239.245117188 467.9453125 c 2
 214.103515625 457.40234375 l 1
 237.623046875 446.859375 l 2
 260.245117188 436.491210938 284.348632812 432.39453125 308.1796875 425.775390625 c 0
 325.10546875 421.07421875 340.620117188 414.361328125 340.620117188 394.146484375 c 0
EndSplineSet
Fore
SplineSet
179 457 m 1
 86 486 l 2
 69 491 53 497 53 518 c 0
 53 537 66 551 86 551 c 0
 104 551 113 541 123 531 c 2
 188 472 l 1
 166 581 l 3
 166 604 177 618 197 618 c 3
 216 618 227 603 227 581 c 0
 206 472 l 1
 271 532 l 2
 281 542 289 551 307 551 c 0
 327 551 341 538 341 519 c 0
 341 498 324 492 307 487 c 2
 214 457 l 1
 308 426 l 2
 324 420 341 414 341 394 c 0
 341 375 326 363 307 363 c 0
 288 363 281 372 268 384 c 2
 206 441 l 1
 228 328 l 0
 228 309 217 295 198 295 c 3
 178 295 167 311 167 331 c 0
 189 441 l 1
 126 383 l 2
 113 371 105 362 86 362 c 0
 67 362 53 374 53 393 c 0
 53 413 69 419 85 425 c 2
 179 457 l 1
EndSplineSet
Validated: 1
EndChar

StartChar: hyphen
Encoding: 45 45 112
Width: 380
VWidth: 811
Flags: HMW
LayerCount: 2
Fore
SplineSet
61 170 m 5
 61 238 l 5
 320 238 l 5
 320 170 l 5
 61 170 l 5
EndSplineSet
Validated: 1
EndChar

StartChar: slash
Encoding: 47 47 113
Width: 291
VWidth: 811
Flags: HMW
LayerCount: 2
Fore
SplineSet
36 -137 m 5
 199 664 l 5
 255 664 l 5
 92 -137 l 5
 36 -137 l 5
EndSplineSet
Validated: 1
EndChar

StartChar: parenright
Encoding: 41 41 114
Width: 246
VWidth: 811
Flags: HMW
LayerCount: 2
Fore
SplineSet
30 -152 m 5
 92 -52 134 81 134 247 c 4
 134 338 115 426 93 497 c 4
 74 558 48 623 20 665 c 5
 29 673 l 5
 76 634 119 569 148 505 c 4
 180 435 208 345 208 247 c 4
 208 145 185 61 152 -8 c 4
 123 -69 84 -120 43 -162 c 5
 30 -152 l 5
EndSplineSet
Validated: 1
EndChar

StartChar: parenleft
Encoding: 40 40 115
Width: 244
VWidth: 811
Flags: HMW
LayerCount: 2
Fore
SplineSet
111 247 m 0
 111 81 153 -52 215 -152 c 1
 202 -162 l 1
 110 -68 36 59 36 247 c 0
 36 345 65 436 97 506 c 0
 126 570 169 634 216 673 c 1
 225 665 l 1
 197 623 171 558 152 498 c 0
 130 427 111 338 111 247 c 0
EndSplineSet
Validated: 1
EndChar

StartChar: cent
Encoding: 162 162 116
Width: 446
VWidth: 811
Flags: W
HStem: -6 57<263 326.68> 382 55<168.485 229 263 308.562>
VStem: 36 83<123.11 314.686> 229 34<-105 -8 54 382 436.499 544> 313 85<303.172 378.337>
LayerCount: 2
Back
SplineSet
262.763671875 437.940429688 m 5
 283.849609375 437.399414062 303.584960938 434.5625 321.967773438 429.42578125 c 4
 340.350585938 424.290039062 356.165039062 417.396484375 369.411132812 408.745117188 c 4
 382.657226562 400.094726562 393.064453125 390.092773438 400.633789062 378.73828125 c 4
 408.203125 367.384765625 411.98828125 355.219726562 411.98828125 342.243164062 c 4
 411.98828125 328.186523438 408.744140625 316.967773438 402.255859375 308.587890625 c 4
 395.767578125 300.208007812 386.577148438 296.017578125 374.681640625 296.017578125 c 4
 360.625 296.017578125 349.811523438 300.208007812 342.243164062 308.587890625 c 4
 334.673828125 316.967773438 329.538085938 329.80859375 326.834960938 347.109375 c 4
 323.590820312 367.654296875 316.697265625 382.927734375 306.154296875 392.930664062 c 4
 295.611328125 402.932617188 281.1484375 409.014648438 262.765625 411.177734375 c 5
 262.765625 51.09375 l 5
 288.176757812 51.09375 311.560546875 55.9599609375 332.916015625 65.69140625 c 4
 354.272460938 75.423828125 372.25 90.2919921875 386.84765625 110.296875 c 6
 395.768554688 122.461914062 l 5
 411.177734375 114.3515625 l 5
 407.123046875 103.80859375 l 6
 394.6875 71.369140625 376.03515625 45.6865234375 351.1640625 26.763671875 c 4
 326.29296875 7.8408203125 296.827148438 -3.2431640625 262.764648438 -6.4873046875 c 5
 262.764648438 -105.4296875 l 5
 228.703125 -105.4296875 l 5
 228.703125 -7.2978515625 l 5
 201.12890625 -5.67578125 175.852539062 0.6767578125 152.874023438 11.7607421875 c 4
 129.896484375 22.84375 110.296875 37.84765625 94.0771484375 56.7705078125 c 4
 77.8564453125 75.6943359375 65.150390625 98.1318359375 55.9599609375 124.083984375 c 4
 46.7685546875 150.036132812 42.1728515625 178.420898438 42.1728515625 209.239257812 c 4
 42.1728515625 240.056640625 46.6328125 268.577148438 55.5546875 294.798828125 c 4
 64.4755859375 321.021484375 77.181640625 343.999023438 93.6708984375 363.733398438 c 4
 110.161132812 383.467773438 129.895507812 399.6875 152.873046875 412.393554688 c 4
 175.8515625 425.099609375 201.127929688 433.07421875 228.702148438 436.318359375 c 5
 228.702148438 543.370117188 l 5
 262.763671875 543.370117188 l 5
 262.763671875 437.940429688 l 5
124.89453125 225.459960938 m 4
 124.89453125 177.880859375 133.815429688 139.493164062 151.657226562 110.296875 c 4
 169.499023438 81.1005859375 195.180664062 62.7177734375 228.702148438 55.1484375 c 5
 228.702148438 410.3671875 l 5
 214.64453125 407.6640625 201.3984375 401.311523438 188.963867188 391.309570312 c 4
 176.528320312 381.306640625 165.580078125 368.331054688 156.118164062 352.380859375 c 4
 146.65625 336.431640625 139.086914062 317.778320312 133.41015625 296.421875 c 4
 127.733398438 275.06640625 124.89453125 251.411132812 124.89453125 225.459960938 c 4
EndSplineSet
Fore
SplineSet
398 342 m 0
 398 316 386 296 361 296 c 0
 333 296 317 313 313 347 c 0
 310 379 291 382 263 383 c 1
 263 51 l 1
 317 52 357 76 381 110 c 2
 390 122 l 1
 406 114 l 1
 401 104 l 2
 379 46 333 4 263 -6 c 1
 263 -105 l 1
 229 -105 l 1
 229 -8 l 1
 113 -5 36 86 36 209 c 0
 36 335 114 426 229 437 c 1
 229 544 l 1
 263 544 l 1
 263 438 l 1
 328 434 398 399 398 342 c 0
229 382 m 1
 145 374 119 319 119 225 c 0
 119 135 154 68 229 54 c 1
 229 382 l 1
EndSplineSet
Validated: 1
EndChar

StartChar: sterling
Encoding: 163 163 117
Width: 549
VWidth: 811
Flags: W
HStem: -8 79<275.116 435.332> -7 35<70.381 133.201> 84 36<72.2388 151.705> 261 36<105 195 298 444> 570 59<347.518 413.675>
VStem: 26 43<29.0901 80.7651> 463 28<108.212 132>
LayerCount: 2
Fore
SplineSet
26 49 m 0x7e
 26 94 67 120 114 120 c 0
 129 120 146 118 165 113 c 1
 177 161 186 205 195 261 c 1
 105 261 l 1
 105 297 l 1
 202 297 l 1
 221 392 l 2
 237 473 260 533 290 571 c 0
 320 609 358 629 404 629 c 0
 451 629 503 609 503 567 c 0
 503 540 482 520 456 520 c 0
 431 520 420 538 411 555 c 0
 404 570 397 570 376 570 c 0
 362 570 351 561 345 544 c 0
 329 486 320 427 307 349 c 2
 298 297 l 1
 444 297 l 1
 444 261 l 1
 291 261 l 1
 276 197 261 145 237 94 c 1
 271 79 308 71 349 71 c 0
 413 71 451 91 463 132 c 1
 491 132 l 1
 491 44 448 -8 361 -8 c 0xbe
 316 -8 286 6 255 25 c 0
 243 32 228 42 213 54 c 1
 185 22 148 -7 97 -7 c 0
 57 -7 26 11 26 49 c 0x7e
69 53 m 0
 69 38 80 28 96 28 c 0x7e
 124 28 143 51 152 75 c 1
 140 81 130 84 114 84 c 0
 89 84 69 77 69 53 c 0
EndSplineSet
Validated: 1
EndChar

StartChar: currency
Encoding: 164 164 118
Width: 514
VWidth: 811
Flags: W
HStem: 123 52<189.758 324.594> 420 52<189.406 324.449>
VStem: 83 56<226.405 368.754> 375 56<226.421 369.589>
LayerCount: 2
Back
SplineSet
101.375 102.997070312 m 5
 62.447265625 141.923828125 l 5
 116.784179688 195.450195312 l 5
 94.076171875 223.024414062 82.7216796875 257.356445312 82.7216796875 298.447265625 c 4
 82.7216796875 337.375 94.076171875 371.4375 116.784179688 400.6328125 c 5
 62.447265625 453.348632812 l 5
 101.375 492.276367188 l 5
 154.901367188 437.939453125 l 5
 183.555664062 460.647460938 217.618164062 472.000976562 257.086914062 472.000976562 c 4
 294.392578125 472.000976562 328.724609375 460.916992188 360.083984375 438.75 c 5
 412.798828125 492.276367188 l 5
 451.7265625 453.348632812 l 5
 397.389648438 399.822265625 l 5
 420.09765625 371.166992188 431.452148438 337.375 431.452148438 298.447265625 c 4
 431.452148438 260.060546875 420.368164062 225.728515625 398.201171875 195.451171875 c 5
 451.7265625 141.924804688 l 5
 412.798828125 102.997070312 l 5
 359.2734375 157.333984375 l 5
 330.618164062 134.625976562 296.555664062 123.272460938 257.086914062 123.272460938 c 4
 218.159179688 123.272460938 184.096679688 134.625976562 154.901367188 157.333984375 c 5
 101.375 102.997070312 l 5
257.086914062 175.174804688 m 4
 273.306640625 175.174804688 288.446289062 178.418945312 302.502929688 184.907226562 c 4
 316.560546875 191.395507812 328.995117188 200.180664062 339.80859375 211.264648438 c 4
 350.62109375 222.348632812 359.13671875 235.32421875 365.354492188 250.192382812 c 4
 371.572265625 265.060546875 374.681640625 280.875 374.681640625 297.635742188 c 4
 374.681640625 314.397460938 371.572265625 330.211914062 365.354492188 345.080078125 c 4
 359.13671875 359.948242188 350.62109375 372.923828125 339.80859375 384.0078125 c 4
 328.995117188 395.091796875 316.560546875 403.876953125 302.502929688 410.365234375 c 4
 288.446289062 416.853515625 273.306640625 420.09765625 257.086914062 420.09765625 c 4
 240.8671875 420.09765625 225.728515625 416.853515625 211.670898438 410.365234375 c 4
 197.614257812 403.876953125 185.178710938 395.091796875 174.366210938 384.0078125 c 4
 163.552734375 372.923828125 155.037109375 360.083007812 148.819335938 345.485351562 c 4
 142.6015625 330.887695312 139.493164062 315.208007812 139.493164062 298.447265625 c 4
 139.493164062 281.686523438 142.6015625 265.872070312 148.819335938 251.00390625 c 4
 155.037109375 236.135742188 163.552734375 223.024414062 174.366210938 211.669921875 c 4
 185.178710938 200.31640625 197.614257812 191.395507812 211.670898438 184.907226562 c 4
 225.728515625 178.418945312 240.8671875 175.174804688 257.086914062 175.174804688 c 4
EndSplineSet
Fore
SplineSet
101 103 m 1
 62 142 l 1
 117 195 l 1
 94 223 83 257 83 298 c 3
 83 337 94 372 117 401 c 1
 62 453 l 1
 101 492 l 1
 155 438 l 1
 183 461 217 472 257 472 c 3
 294 472 328 461 360 439 c 1
 413 492 l 1
 452 453 l 1
 397 400 l 1
 420 372 431 337 431 298 c 3
 431 260 420 225 398 195 c 1
 452 142 l 1
 413 103 l 1
 359 157 l 1
 331 134 297 123 257 123 c 3
 218 123 184 134 155 157 c 1
 101 103 l 1
257 175 m 3
 325 175 375 230 375 298 c 3
 375 366 325 420 257 420 c 3
 189 420 139 365 139 298 c 3
 139 230 189 175 257 175 c 3
EndSplineSet
Validated: 1
EndChar

StartChar: yen
Encoding: 165 165 119
Width: 611
VWidth: 811
Flags: W
HStem: 0 19<148 182.067 344.4 378> 169 36<85 221 306 435> 268 35<85 205 320 435> 606 18<28 66.9024 217.559 253 321 365.388 468.474 501>
VStem: 221 85<34 169 205 268>
LayerCount: 2
Back
SplineSet
85.1552734375 303.314453125 m 5
 205.182617188 303.315429688 l 5
 96.5078125 556.34765625 l 6
 92.18359375 566.079101562 88.1279296875 573.919921875 84.3427734375 579.866210938 c 4
 80.55859375 585.813476562 76.09765625 590.543945312 70.9619140625 594.05859375 c 4
 65.8251953125 597.572265625 59.87890625 600.140625 53.1201171875 601.762695312 c 4
 46.3623046875 603.384765625 37.8466796875 604.736328125 27.57421875 605.817382812 c 5
 27.57421875 624.470703125 l 5
 253.032226562 624.470703125 l 5
 253.032226562 605.817382812 l 5
 232.487304688 602.033203125 217.75390625 597.708007812 208.83203125 592.841796875 c 4
 199.911132812 587.975585938 195.451171875 580.947265625 195.451171875 571.755859375 c 4
 195.451171875 564.186523438 197.883789062 554.724609375 202.75 543.37109375 c 6
 291.149414062 328.456054688 l 5
 294.392578125 328.456054688 l 5
 382.791992188 544.181640625 l 6
 386.036132812 552.833007812 387.658203125 560.672851562 387.658203125 567.701171875 c 4
 387.658203125 578.514648438 382.65625 586.89453125 372.654296875 592.841796875 c 4
 362.65234375 598.7890625 345.486328125 603.114257812 321.15625 605.817382812 c 5
 321.15625 624.469726562 l 5
 501.198242188 624.469726562 l 5
 501.198242188 605.817382812 l 5
 488.221679688 603.114257812 477.409179688 600.275390625 468.7578125 597.301757812 c 4
 460.107421875 594.327148438 452.538085938 589.731445312 446.049804688 583.513671875 c 4
 439.561523438 577.295898438 433.34375 568.780273438 427.397460938 557.966796875 c 4
 421.450195312 547.154296875 414.961914062 533.096679688 407.932617188 515.795898438 c 6
 320.344726562 303.314453125 l 5
 434.696289062 303.314453125 l 5
 434.696289062 267.629882812 l 5
 305.747070312 267.629882812 l 5
 305.747070312 205.182617188 l 5
 434.696289062 205.182617188 l 5
 434.696289062 169.499023438 l 5
 305.747070312 169.499023438 l 5
 305.747070312 34.0615234375 l 5
 377.92578125 18.6533203125 l 5
 377.92578125 0 l 5
 147.6015625 0 l 5
 147.6015625 18.6533203125 l 5
 220.591796875 34.0615234375 l 5
 220.591796875 169.499023438 l 5
 85.1552734375 169.499023438 l 5
 85.1552734375 205.182617188 l 5
 220.591796875 205.182617188 l 5
 220.591796875 267.629882812 l 5
 85.1552734375 267.629882812 l 5
 85.1552734375 303.314453125 l 5
EndSplineSet
Fore
SplineSet
376 586 m 3
 376 597 355 602 321 606 c 1
 321 624 l 1
 501 624 l 1
 501 606 l 1
 477 601 461 597 446 583 c 0
 428 567 419 544 408 516 c 2
 320 303 l 1
 435 303 l 1
 435 268 l 1
 306 268 l 1
 306 205 l 1
 435 205 l 1
 435 169 l 1
 306 169 l 1
 306 34 l 1
 378 19 l 1
 378 0 l 1
 148 0 l 1
 148 19 l 1
 221 34 l 1
 221 169 l 1
 85 169 l 1
 85 205 l 1
 221 205 l 1
 221 268 l 1
 85 268 l 1
 85 303 l 1
 205 303 l 1
 97 556 l 2
 87 579 78 596 54 602 c 0
 47 604 39 605 28 606 c 1
 28 624 l 1
 253 624 l 1
 253 606 l 1
 233 602 217 598 209 593 c 0
 199 588 195 581 195 572 c 0
 195 565 198 554 203 543 c 2
 281 354 l 1
 284 354 l 1
 372 569 l 2
 375 578 376 579 376 586 c 3
EndSplineSet
Validated: 1
EndChar

StartChar: section
Encoding: 167 167 120
Width: 811
VWidth: 0
Flags: W
HStem: -128 51<141.557 295.826> 622 51<141.895 292.565>
VStem: 52 75<240.504 338.554> 56 64<-56.0753 3.40854 505.702 600.951> 320 63<-53.2482 49.7807 207.711 301.292>
LayerCount: 2
Back
SplineSet
231.946289062 673.129882812 m 4
 253.573242188 673.129882812 273.579101562 671.102539062 291.961914062 667.047851562 c 4
 310.345703125 662.9921875 326.294921875 657.315429688 339.8125 650.016601562 c 4
 353.329101562 642.717773438 363.736328125 633.931640625 371.036132812 623.659179688 c 4
 378.334960938 613.385742188 381.984375 602.301757812 381.984375 590.407226562 c 4
 381.984375 577.971679688 378.334960938 567.69921875 371.036132812 559.588867188 c 4
 363.736328125 551.479492188 353.869140625 547.423828125 341.434570312 547.423828125 c 4
 328.999023438 547.423828125 319.942382812 551.884765625 314.265625 560.805664062 c 4
 308.588867188 569.7265625 302.505859375 582.296875 296.018554688 598.517578125 c 4
 292.233398438 607.708007812 288.313476562 615.413085938 284.258789062 621.630859375 c 4
 280.204101562 627.848632812 275.47265625 632.849609375 270.06640625 636.634765625 c 4
 264.659179688 640.419921875 258.170898438 643.123046875 250.602539062 644.745117188 c 4
 243.033203125 646.3671875 234.112304688 647.177734375 223.838867188 647.177734375 c 4
 190.858398438 647.177734375 165.311523438 639.87890625 147.19921875 625.28125 c 4
 129.087890625 610.682617188 120.03125 589.8671875 120.03125 562.833984375 c 4
 120.03125 539.584960938 126.654296875 520.662109375 139.900390625 506.064453125 c 4
 153.146484375 491.465820312 169.63671875 478.895507812 189.37109375 468.352539062 c 4
 209.104492188 457.809570312 230.4609375 447.942382812 253.439453125 438.750976562 c 4
 276.416992188 429.559570312 297.7734375 418.611328125 317.506835938 405.905273438 c 4
 337.241210938 393.19921875 353.731445312 377.520507812 366.977539062 358.8671875 c 4
 380.223632812 340.21484375 386.846679688 316.290039062 386.846679688 287.09375 c 4
 386.846679688 256.817382812 379.68359375 230.053710938 365.35546875 206.8046875 c 4
 351.02734375 183.555664062 331.158203125 165.444335938 305.747070312 152.467773438 c 5
 327.374023438 138.951171875 345.62109375 122.190429688 360.489257812 102.185546875 c 4
 375.357421875 82.1806640625 382.791992188 55.6875 382.791992188 22.7060546875 c 4
 382.791992188 -24.33203125 366.977539062 -61.232421875 335.348632812 -87.9951171875 c 4
 303.719726562 -114.7578125 260.060546875 -128.139648438 204.372070312 -128.139648438 c 4
 182.205078125 -128.139648438 161.794921875 -125.9765625 143.141601562 -121.651367188 c 4
 124.48828125 -117.326171875 108.404296875 -111.108398438 94.88671875 -102.999023438 c 4
 81.3701171875 -94.888671875 70.8271484375 -85.2919921875 63.2578125 -74.2080078125 c 4
 55.6884765625 -63.1240234375 51.904296875 -51.0947265625 51.904296875 -38.1181640625 c 4
 51.904296875 -25.142578125 55.5537109375 -14.599609375 62.8525390625 -6.4892578125 c 4
 70.1513671875 1.6201171875 80.0185546875 5.67578125 92.4541015625 5.67578125 c 4
 104.348632812 5.67578125 113.134765625 1.4853515625 118.811523438 -6.8955078125 c 4
 124.48828125 -15.275390625 130.571289062 -28.115234375 137.05859375 -45.4169921875 c 4
 140.302734375 -53.5263671875 143.817382812 -61.095703125 147.6015625 -68.125 c 4
 151.38671875 -75.1533203125 156.1171875 -81.236328125 161.794921875 -86.3720703125 c 4
 167.471679688 -91.5087890625 174.770507812 -95.427734375 183.69140625 -98.130859375 c 4
 192.612304688 -100.833984375 203.831054688 -102.185546875 217.34765625 -102.185546875 c 4
 249.788085938 -102.185546875 275.064453125 -94.2119140625 293.176757812 -78.26171875 c 4
 311.288085938 -62.3115234375 320.344726562 -40.279296875 320.344726562 -12.1640625 c 4
 320.344726562 12.70703125 313.721679688 32.8466796875 300.475585938 48.2548828125 c 4
 287.229492188 63.6640625 270.603515625 76.91015625 250.598632812 87.994140625 c 4
 230.59375 99.078125 209.102539062 109.215820312 186.124023438 118.407226562 c 4
 163.146484375 127.59765625 141.655273438 138.276367188 121.650390625 150.44140625 c 4
 101.645507812 162.606445312 85.01953125 177.474609375 71.7734375 195.045898438 c 4
 58.52734375 212.618164062 51.904296875 235.461914062 51.904296875 263.576171875 c 4
 51.904296875 294.935546875 60.8251953125 321.96875 78.6669921875 344.676757812 c 4
 96.5087890625 367.384765625 121.379882812 384.145507812 153.279296875 394.958984375 c 5
 140.302734375 401.987304688 127.868164062 409.692382812 115.97265625 418.072265625 c 4
 104.078125 426.452148438 93.6708984375 436.048828125 84.7490234375 446.861328125 c 4
 75.828125 457.674804688 68.7998046875 470.110351562 63.6630859375 484.166992188 c 4
 58.52734375 498.223632812 55.958984375 514.173828125 55.958984375 532.015625 c 4
 55.958984375 575.809570312 71.50390625 610.27734375 102.591796875 635.418945312 c 4
 133.6796875 660.559570312 176.797851562 673.129882812 231.946289062 673.129882812 c 4
324.401367188 253.842773438 m 4
 324.401367188 270.063476562 320.616210938 284.12109375 313.047851562 296.015625 c 4
 305.478515625 307.911132812 295.206054688 318.723632812 282.229492188 328.456054688 c 4
 269.25390625 338.1875 254.520507812 346.973632812 238.030273438 354.813476562 c 4
 221.540039062 362.653320312 204.374023438 370.627929688 186.53125 378.737304688 c 5
 165.4453125 372.791015625 148.415039062 362.112304688 135.438476562 346.703125 c 4
 122.462890625 331.293945312 115.974609375 313.31640625 115.974609375 292.771484375 c 4
 115.974609375 274.9296875 120.705078125 260.061523438 130.166992188 248.166992188 c 4
 139.62890625 236.271484375 151.9296875 225.864257812 167.068359375 216.943359375 c 4
 182.20703125 208.022460938 199.102539062 200.047851562 217.755859375 193.018554688 c 4
 236.409179688 185.990234375 254.926757812 178.150390625 273.309570312 169.499023438 c 5
 288.98828125 178.150390625 301.423828125 189.774414062 310.614257812 204.372070312 c 4
 319.805664062 218.969726562 324.401367188 235.459960938 324.401367188 253.842773438 c 4
EndSplineSet
Fore
SplineSet
56 532 m 3xd8
 56 628 131 673 232 673 c 3
 291 673 347 658 371 624 c 0
 378 613 382 602 382 590 c 0
 382 566 366 547 341 547 c 3
 286 547 334 622 224 622 c 3
 163 622 120 599 120 563 c 3xd8
 120 539 127 521 140 506 c 0
 183 458 262 442 318 406 c 0
 355 382 387 348 387 287 c 3
 387 221 352 176 306 152 c 1
 328 138 345 122 360 102 c 0
 375 82 383 56 383 23 c 3
 383 -77 308 -128 204 -128 c 3
 142 -128 88 -111 63 -75 c 0
 56 -64 52 -51 52 -38 c 0
 52 -13 67 6 92 6 c 0
 104 6 112 1 118 -7 c 0
 146 -48 123 -77 217 -77 c 3
 278 -77 320 -51 320 -12 c 3
 320 13 313 34 300 49 c 0
 257 98 180 116 122 151 c 0
 85 174 52 205 52 264 c 3xe8
 52 335 97 376 153 395 c 1
 104 422 56 456 56 532 c 3xd8
268 180 m 1
 293 194 314 220 314 256 c 3
 314 288 296 308 276 323 c 0
 252 342 220 354 190 368 c 1
 157 358 127 332 127 291 c 3xe8
 127 255 149 237 173 223 c 0
 201 206 236 195 268 180 c 1
EndSplineSet
Validated: 1
EndChar

StartChar: brokenbar
Encoding: 166 166 121
Width: 223
VWidth: 811
Flags: W
VStem: 84 55<-139 175 350 664>
LayerCount: 2
Fore
SplineSet
84 350 m 1
 84 664 l 1
 139 664 l 1
 139 350 l 1
 84 350 l 1
84 -139 m 1
 84 175 l 1
 139 175 l 1
 139 -139 l 1
 84 -139 l 1
EndSplineSet
Validated: 1
EndChar

StartChar: uni00AD
Encoding: 173 173 122
Width: 377
VWidth: 811
Flags: W
HStem: 170 68<59 318>
VStem: 59 259<170 238>
LayerCount: 2
Fore
SplineSet
59 170 m 5
 59 238 l 5
 318 238 l 5
 318 170 l 5
 59 170 l 5
EndSplineSet
Validated: 1
EndChar

StartChar: logicalnot
Encoding: 172 172 123
Width: 463
VWidth: 811
Flags: W
HStem: 214 36<68 359>
VStem: 359 42<119 214>
LayerCount: 2
Fore
SplineSet
359 214 m 5
 68 214 l 5
 68 250 l 5
 401 250 l 5
 401 119 l 5
 359 119 l 5
 359 214 l 5
EndSplineSet
Validated: 1
EndChar

StartChar: paragraph
Encoding: 182 182 124
Width: 472
VWidth: 811
Flags: W
HStem: 579 45<276 324> 604 20<399.5 425>
VStem: 25 251<360.506 538.104> 226 50<-88 276> 324 50<-88 579>
LayerCount: 2
Back
SplineSet
238.43359375 -87.587890625 m 5
 238.43359375 275.737304688 l 5
 193.017578125 275.737304688 l 6
 167.06640625 275.737304688 143.817382812 280.333984375 123.272460938 289.524414062 c 4
 102.7265625 298.715820312 85.1552734375 311.286132812 70.556640625 327.236328125 c 4
 55.958984375 343.186523438 44.740234375 361.569335938 36.900390625 382.384765625 c 4
 29.060546875 403.201171875 25.140625 425.502929688 25.140625 449.291992188 c 4
 25.140625 475.78515625 29.4658203125 499.845703125 38.1171875 521.47265625 c 4
 46.767578125 543.099609375 59.203125 561.482421875 75.4228515625 576.62109375 c 4
 91.642578125 591.759765625 111.376953125 603.51953125 134.625976562 611.899414062 c 4
 157.875 620.279296875 184.096679688 624.469726562 213.29296875 624.469726562 c 6
 424.963867188 624.469726562 l 5
 424.963867188 604.1953125 l 5
 361.706054688 590.408203125 l 5
 361.706054688 -87.587890625 l 5
 324.400390625 -87.587890625 l 5
 324.400390625 592.030273438 l 5
 275.740234375 592.030273438 l 5
 275.740234375 -87.587890625 l 5
 238.43359375 -87.587890625 l 5
EndSplineSet
Fore
SplineSet
226 -88 m 1x98
 226 276 l 1x98
 193 276 l 2
 111 276 59 323 37 382 c 0
 29 403 25 425 25 449 c 0
 25 536 70 588 135 611 c 0
 159 620 184 624 213 624 c 2
 425 624 l 1
 425 604 l 1x68
 374 590 l 1
 374 -88 l 1
 324 -88 l 1
 324 579 l 1
 276 579 l 1
 276 -88 l 1
 226 -88 l 1x98
EndSplineSet
Validated: 1
EndChar

StartChar: cedilla
Encoding: 184 184 125
Width: 186
VWidth: 811
Flags: W
HStem: -208 30<17.087 107.371> -101 54<85 115.461>
VStem: 118 60<-170.392 -104.08>
LayerCount: 2
Fore
SplineSet
178 -127 m 0
 178 -181 129 -208 71 -208 c 0
 46 -208 22 -200 8 -189 c 1
 19 -165 l 1
 34 -174 44 -178 65 -178 c 0
 94 -178 118 -164 118 -136 c 0
 118 -112 105 -101 79 -101 c 0
 65 -101 51 -104 37 -108 c 1
 30 -101 l 1
 79 14 l 1
 109 14 l 1
 85 -47 l 1
 138 -47 178 -77 178 -127 c 0
EndSplineSet
Validated: 1
EndChar

StartChar: guillemotleft
Encoding: 171 171 126
Width: 353
VWidth: 811
Flags: W
HStem: 43 311
VStem: 47 247
LayerCount: 2
Fore
SplineSet
160 43 m 1
 47 191 l 1
 47 207 l 1
 158 354 l 1
 168 350 l 1
 114 200 l 1
 169 49 l 1
 160 43 l 1
286 43 m 1
 174 191 l 1
 174 207 l 1
 285 354 l 1
 294 350 l 1
 241 200 l 1
 296 49 l 1
 286 43 l 1
EndSplineSet
Validated: 1
EndChar

StartChar: exclamdown
Encoding: 161 161 127
Width: 243
VWidth: 811
Flags: W
HStem: -8 21G<106 138> 418 20G<101.5 141.5> 527 106<78.366 164.983>
VStem: 72 98<0.804424 277.008 534.311 625.537>
LayerCount: 2
Fore
SplineSet
122 -8 m 3
 90 -8 72 17 72 48 c 3
 72 59 74 77 77 105 c 0
 89 208 98 324 105 438 c 1
 138 438 l 1
 145 324 153 206 165 103 c 0
 168 75 170 56 170 45 c 3
 170 14 154 -8 122 -8 c 3
121 633 m 3
 153 633 174 611 174 581 c 3
 174 549 153 527 121 527 c 3
 89 527 69 550 69 581 c 3
 69 610 91 633 121 633 c 3
EndSplineSet
Validated: 1
EndChar

StartChar: mu
Encoding: 181 181 128
Width: 484
VWidth: 811
Flags: W
HStem: -8 44<177.952 284.399> 410 20G<85 162 333 410>
VStem: 85 77<51.5594 430> 85 50<-141 4> 333 77<83.8213 430>
LayerCount: 2
Back
SplineSet
343.052734375 -8.1103515625 m 5
 337.375976562 -8.1103515625 l 5
 337.375976562 48.66015625 l 5
 334.131835938 49.470703125 l 5
 301.692382812 8.9208984375 254.654296875 -8.1103515625 188.962890625 -8.1103515625 c 4
 128.94921875 -8.1103515625 92.4541015625 23.5185546875 86.77734375 78.6669921875 c 4
 85.1552734375 97.3203125 85.1552734375 115.162109375 85.1552734375 137.05859375 c 6
 85.1552734375 401.4453125 l 5
 24.330078125 413.610351562 l 5
 24.330078125 429.830078125 l 5
 162.200195312 429.830078125 l 5
 162.200195312 156.5234375 l 6
 162.200195312 87.587890625 163.010742188 35.68359375 228.702148438 35.68359375 c 4
 274.928710938 35.68359375 308.991210938 80.2890625 332.509765625 109.485351562 c 5
 332.509765625 304.125 l 4
 332.509765625 401.4453125 l 5
 271.684570312 413.610351562 l 5
 271.684570312 429.830078125 l 5
 409.5546875 429.830078125 l 5
 409.5546875 60.8251953125 l 5
 471.19140625 42.171875 l 5
 471.19140625 30.818359375 l 5
 395.767578125 16.2197265625 373.87109375 7.298828125 343.052734375 -8.1103515625 c 5
EndSplineSet
Fore
SplineSet
88 -141 m 25xd8
 85 137 l 2
 85 430 l 1
 162 430 l 1
 162 157 l 2xe8
 162 88 163 36 229 36 c 0
 275 36 309 80 333 109 c 1
 333 304 l 1
 333 430 l 1
 410 430 l 1
 410 61 l 1
 471 42 l 1
 471 31 l 1
 396 16 374 7 343 -8 c 1
 337 -8 l 1
 337 49 l 1
 334 49 l 1
 302 8 250 -8 200 -8 c 3
 169 -8 154 -7 135 4 c 1
 135 -141 l 25
 88 -141 l 25xd8
EndSplineSet
Validated: 1
EndChar

StartChar: guillemotright
Encoding: 187 187 129
Width: 353
VWidth: 811
Flags: W
HStem: 43 311
VStem: 58 249
LayerCount: 2
Fore
SplineSet
184 49 m 5
 239 200 l 5
 186 350 l 5
 195 354 l 5
 307 207 l 5
 307 191 l 5
 194 43 l 5
 184 49 l 5
58 49 m 5
 113 200 l 5
 59 350 l 5
 69 354 l 5
 180 207 l 5
 180 191 l 5
 67 43 l 5
 58 49 l 5
EndSplineSet
Validated: 1
EndChar

StartChar: questiondown
Encoding: 191 191 130
Width: 351
VWidth: 811
Flags: W
HStem: -8 51<128.505 242.631> 481 105<148.634 235.634>
VStem: 36 72<63.2577 194.247> 139 106<490.296 576.34> 175 34<286.698 392> 251 64<55.0764 138.485>
LayerCount: 2
Fore
SplineSet
193 586 m 7xf4
 225 586 245 565 245 534 c 7
 245 503 223 481 192 481 c 7
 161 481 139 503 139 534 c 7
 139 565 162 586 193 586 c 7xf4
251 85 m 4
 251 109 242 103 242 126 c 4
 242 145 266 154 281 154 c 4
 294 154 315 147 315 119 c 4
 315 49 248 -8 173 -8 c 4
 90 -8 36 55 36 129 c 7
 36 193 87 228 125 256 c 4
 164 284 175 301 175 356 c 6
 175 392 l 29
 209 392 l 29
 209 354 l 6xec
 209 319 205 272 152 224 c 4
 120 194 108 170 108 132 c 7
 108 79 131 43 177 43 c 4
 223 43 251 61 251 85 c 4
EndSplineSet
Validated: 1
EndChar

StartChar: registered
Encoding: 174 174 131
Width: 559
VWidth: 811
Flags: W
HStem: 184 25<211.159 348.734> 288 7<185 212 247 283 360 397> 395 22<247 281> 518 20<247 316.949> 530 8<185 212> 608 25<210.973 348.919>
VStem: 54 30<330.11 487.951> 212 35<302 395 417 518> 332 37<427.854 510.302> 475 30<330.11 487.751>
LayerCount: 2
Back
SplineSet
184.908203125 537.693359375 m 1
 280.606445312 537.693359375 l 2
 308.1796875 537.693359375 330.482421875 531.747070312 347.513671875 519.8515625 c 0
 364.544921875 507.95703125 373.059570312 490.65625 373.059570312 467.948242188 c 0
 373.059570312 451.186523438 368.05859375 437.669921875 358.056640625 427.397460938 c 0
 348.0546875 417.124023438 334.131835938 409.825195312 316.290039062 405.5 c 1
 371.438476562 304.125 l 1
 395.767578125 297.63671875 l 1
 395.767578125 287.905273438 l 1
 326.022460938 287.905273438 l 1
 268.44140625 401.4453125 l 1
 249.788085938 401.4453125 l 1
 249.788085938 304.125 l 1
 278.984375 297.63671875 l 1
 278.984375 287.905273438 l 1
 184.908203125 287.905273438 l 1
 184.908203125 297.63671875 l 1
 205.994140625 304.125 l 1
 205.994140625 520.662109375 l 1
 184.908203125 527.150390625 l 1
 184.908203125 537.693359375 l 1
249.788085938 418.4765625 m 1
 270.874023438 418.4765625 288.581054688 422.26171875 302.908203125 429.831054688 c 0
 317.236328125 437.399414062 324.400390625 450.645507812 324.400390625 469.569335938 c 0
 324.400390625 486.330078125 318.72265625 499.036132812 307.369140625 507.686523438 c 0
 296.014648438 516.337890625 276.821289062 520.663085938 249.788085938 520.663085938 c 1
 249.788085938 418.4765625 l 1
EndSplineSet
Fore
SplineSet
369 466 m 3xf7c0
 369 430 350 407 319 400 c 1
 360 302 l 1
 397 295 l 1
 397 288 l 1
 327 288 l 1
 281 395 l 1
 247 395 l 1
 247 302 l 1
 283 295 l 1
 283 288 l 1
 185 288 l 1
 185 295 l 1
 212 302 l 1
 212 524 l 1
 185 530 l 1
 185 538 l 1xefc0
 282 538 l 2
 321 538 350 523 363 497 c 0
 367 488 369 477 369 466 c 3xf7c0
268 417 m 2
 309 417 332 431 332 470 c 3
 332 508 312 518 273 518 c 2
 247 518 l 1xf7c0
 247 417 l 1
 268 417 l 2
54 409 m 3
 54 538 151 633 280 633 c 3
 409 633 505 537 505 409 c 3
 505 281 408 184 280 184 c 3
 152 184 54 281 54 409 c 3
84 409 m 3
 84 296 167 209 280 209 c 3
 393 209 475 296 475 409 c 3
 475 522 393 608 280 608 c 3
 167 608 84 522 84 409 c 3
EndSplineSet
Validated: 1
EndChar

